<svg class="_30cbab20" width="124" height="28" viewBox="0 0 124 28" xmlns="http://www.w3.org/2000/svg"><path fill-rule="evenodd" clip-rule="evenodd" d="M119.862 4.51V1.542l.041-.006c.248-.038.597-.09 1.038-.09.537 0 .786.096 1.003.247.174.112.31.343.31.628 0 .343-.288.59-.635.703v.038c.309.096.445.322.537.725.098.44.152.628.233.725h-.694c-.098-.113-.152-.36-.228-.725-.06-.306-.249-.457-.635-.457h-.325v1.182h-.645Zm.656-1.675h.325c.385 0 .695-.113.695-.419 0-.284-.196-.456-.635-.456-.19 0-.309.021-.385.038v.837Z"></path><path fill-rule="evenodd" clip-rule="evenodd" d="M120.995 0C122.671 0 124 1.316 124 2.97c0 1.653-1.329 2.99-3.021 2.99s-3.021-1.331-3.021-2.99c0-1.66 1.345-2.97 3.021-2.97h.016Zm-.038.607c-1.291 0-2.272 1.068-2.272 2.363 0 1.294.981 2.362 2.288 2.362 1.308.022 2.289-1.047 2.289-2.341 0-1.294-.981-2.384-2.289-2.384h-.016Z"></path><path fill-rule="evenodd" clip-rule="evenodd" d="M26.891 1.01H9.313L0 27.547h13.305l.949-4.285h7.696l.95 4.285h13.31L26.89 1.01ZM15.317 18.478l2.782-12.614 2.788 12.614h-5.57Z"></path><path fill-rule="evenodd" clip-rule="evenodd" d="M57.84 14.316c-1.172-.188-1.367-.446-1.362-.703.006-.264.223-.516 1.373-.73 3.276-.607 6.633-2.192 6.633-5.559 0-3.748-3.872-6.31-8.45-6.31H33.037v13.291l4.642 13.237h15.827c3.84 0 11.618-.489 11.618-6.954 0-3.249-3.053-5.563-7.284-6.277v.005ZM45.696 6.138h3.184c1.47 0 2.668 1.186 2.668 2.647 0 1.46-1.198 2.647-2.668 2.647h-3.184V6.138Zm3.379 15.927h-3.38v-5.617h3.38c1.562 0 2.831 1.267 2.831 2.808s-1.274 2.809-2.831 2.809Z"></path><path fill-rule="evenodd" clip-rule="evenodd" d="M91.283 24.766V18.89s-.081-2.148-2.625-3.098c-.745-.28-1.532-.51-2.311-.738a70.75 70.75 0 0 1-1.057-.315c-.835-.263-.721-1.154 0-1.31l.255-.056c1.807-.398 3.592-.79 4.892-2.119.939-.966 1.508-2.293 1.508-3.517 0-3.694-4.382-6.723-8.96-6.723H61.788c1.481.79 2.734 1.96 3.466 3.517.412.88.624 1.82.624 2.792 0 3.389-2.555 5.29-5.44 6.294 3.184 1.133 6.075 3.33 6.075 6.975 0 1.998-.651 3.808-2.1 5.23-.742.73-1.621 1.29-2.603 1.724h10.86V16.12h2.782s3.005.097 3.005 2.975v6.331s-.092 2.11 2.126 2.11h12.312s-1.61-.445-1.61-2.77ZM75.668 11.432h-2.994V5.756h2.994c1.578 0 2.864 1.278 2.864 2.836 0 1.557-1.291 2.84-2.864 2.84Z"></path><path fill-rule="evenodd" clip-rule="evenodd" d="M102.711.102c-5.201 0-9.144.628-11.829 2.497 1.096 1.015 1.953 2.282 2.289 3.754.103.456.163.923.163 1.38 0 1.643-.749 3.302-1.893 4.473-.971.993-2.105 1.546-3.33 1.933.352.107.704.225 1.052.36 1.296.483 2.375 1.337 3.004 2.572.26.505.489 1.186.505 1.766v5.483c0 3.582 7.577 3.678 9.795 3.678 12.133 0 16.917-2.99 16.917-14.643S113.348.102 102.711.102Zm3.314 20.346c0 1.268-1.079 2.304-2.381 2.304h-1.345c-1.302 0-2.376-1.036-2.376-2.304V7.658c0-1.268 1.074-2.304 2.376-2.304h1.345c1.302 0 2.381 1.03 2.381 2.303v12.791Z"></path></svg>