<svg xmlns:dc="http://purl.org/dc/elements/1.1/" xmlns:cc="http://creativecommons.org/ns#" xmlns:rdf="http://www.w3.org/1999/02/22-rdf-syntax-ns#" xmlns:svg="http://www.w3.org/2000/svg" xmlns="http://www.w3.org/2000/svg" viewBox="0 0 470.66666 69.333336" xml:space="preserve" id="logo-header" version="1.1">
    <defs id="defs6"></defs>
<g transform="matrix(1.3333333,0,0,-1.3333333,0,69.333333)" id="g10">
        <g transform="scale(0.1)" id="g12">
            <path id="path14" style="fill:#ed1c24;fill-opacity:1;fill-rule:nonzero;stroke:none" d="m 2272.4,7.02344 c -69.73,-3.6211 -102.29,0.41406 -128.32,18.39456 -71.87,49.664 -112.07,102.566 -168.92,180.176 -6.86,-15.469 -14.31,-30.688 -22.47,-45.504 9.33,-11.203 18.13,-23.07 26.59,-34.879 l 2.22,-3.106 2.11,-2.988 C 2017.04,71.2539 2054.42,33.582 2106.84,6.8125 1972.73,-0.0664063 1988.63,26 1917.63,105.613 1912.58,98.957 1907.32,92.4648 1901.8,86.1836 1873.3,53.668 1837.5,25.793 1795.53,13.4453 c -33.72,-9.91405 -69.35,-9.01171 -101.66,5.3711 -27.57,12.2813 -50.19,33.4688 -63.8,60.418 -22.4,44.3786 -11.93,98.1096 17.93,136.3826 14.64,18.762 33.64,33.758 55.42,43.391 24.25,10.722 50.46,14.246 76.76,11.332 48.2,-5.336 91.86,-31.84 127.62,-63.652 9.87,20.328 18.24,41.507 25.66,62.816 -25.79,40.961 -50.37,82.777 -73.1,125.527 -4.65,-10.523 -9.54,-20.941 -14.68,-31.238 l -0.11,-0.238 -0.14,-0.227 c -39.16,-66.051 -47.82,-78.078 -102.74,-72.676 l -13.26,0.641 7.75,10.785 c 19.48,27.082 38.03,54.68 53.03,84.543 15.46,30.762 26.72,63.09 36.95,95.899 l 8.79,28.148 6.72,-1.844 c 13.82,-3.785 26.15,-11.488 35.73,-22.136 11.52,-12.797 15.93,-24.118 23.58,-39.012 17.27,-33.633 35.82,-66.641 55.28,-99.074 10.96,41.722 20.09,84.046 28.38,126.339 l 1.81,9.18 8.42,-4.074 c 5.63,-2.719 11.81,-7.375 16.39,-11.52 10.78,-9.757 18.74,-22.019 22.31,-36.195 3.97,-15.723 1.43,-25.656 -1.78,-40.906 -8.15,-38.688 -18.06,-77.121 -30.43,-114.688 C 2072.39,169.762 2153.35,60.8945 2272.4,7.02344 Z M 1876.08,152.84 c -27.78,26.715 -63.72,52.055 -102.64,56.363 -15.47,1.715 -30.93,-0.187 -45.21,-6.504 -12.5,-5.527 -23.42,-14.113 -31.82,-24.886 -15.19,-19.461 -23.11,-47.79 -11.45,-70.887 7.23,-14.3127 19.31,-25.4846 33.94,-32.0002 18.81,-8.3789 39.76,-8.2461 59.29,-2.5 30.45,8.957 56.8,30.7302 77.4,54.2222 7.3,8.336 14.12,17.114 20.49,26.192"></path>
            <path id="path16" style="fill:#000;fill-opacity:1;fill-rule:evenodd;stroke:none" d="M 253.668,214.566 H 135.113 l -13.668,-36.168 -7.191,-17.589 c -5.539,-13.555 -12.445,-32.524 -12.445,-47.336 0,-6.168 1.336,-11.879 4.179,-17.3519 2.676,-5.1484 6.239,-9.5977 11.016,-12.9258 7.601,-5.2969 17.047,-7.4687 26.156,-8.2305 l 4.723,-0.3906 V 58.2578 H 9.84766 v 16.4375 l 4.85544,0.2813 c 8.5547,0.4922 16.793,2.4297 24.2696,6.7109 8.1093,4.6484 15.0586,12.2969 20.6796,19.8125 6.8946,8.762 12.5196,19.09 17.2735,29.148 8.3594,17.704 15.6211,36.516 22.6953,54.774 l 105.4809,272.16 h 23.304 L 353.957,154.82 c 6.516,-15.726 13.613,-33.129 21.984,-47.945 4.231,-7.4961 9.684,-15.1211 16.477,-20.3711 4.266,-3.1758 9.062,-5.4922 14.023,-7.0625 7.997,-2.3555 17.407,-3.5351 25.676,-4.4922 L 436.68,74.418 V 58.2578 H 239.055 v 16.2735 l 4.687,0.4335 c 9.231,0.8477 25.113,2.7461 33.11,7.7774 9.859,6.2148 15.277,14.6953 15.277,26.4568 0,9.266 -4.145,20.875 -7.594,29.36 z M 448.129,58.2578 v 16.7266 h 5.152 c 15.086,0 29.946,3.4961 40.719,14.6601 5.609,5.8086 8.93,13.1055 10.738,20.9105 2.969,12.793 3.172,28.996 3.172,42.093 v 210.356 c 0,13.375 -0.219,30.355 -3.441,43.379 -1.992,8.035 -5.602,15.312 -11.719,20.976 -4.676,4.329 -9.98,7.696 -15.996,9.809 -7.289,2.555 -15.992,3.406 -23.668,3.699 l -4.957,0.184 v 16.531 H 639.82 v -16.437 l -4.863,-0.278 c -7.984,-0.445 -16.695,-1.457 -24.312,-4.015 -5.95,-2 -11.145,-5.356 -15.614,-9.579 -6,-5.906 -9.769,-13.066 -11.726,-21.246 -3.102,-12.925 -3.262,-29.761 -3.262,-43.023 V 198.531 c 0,-18.269 -0.02,-37.765 1.918,-55.933 1.012,-9.543 3.078,-19.836 7.289,-28.528 5.973,-12.332 14.777,-21.7341 27.16,-27.7419 14.887,-7.2226 33.52,-9.0117 49.852,-9.0117 18.304,0 38.008,1.9453 55.195,8.5938 14.262,5.5156 26.402,14.0898 35.805,26.1638 6.593,8.465 11.797,17.875 15.695,27.864 5.18,13.277 8.676,27.992 11.512,41.925 l 0.91,4.492 16.461,-1.367 -4.43,-126.7302 z M 949.508,261.195 V 152.746 c 0,-12.914 0.125,-29.105 2.98,-41.726 1.782,-7.872 5.231,-14.9536 10.782,-20.8364 4.601,-4.8906 9.914,-8.5195 16.218,-10.8555 7.742,-2.8711 17.012,-3.9101 25.212,-4.3515 l 4.88,-0.2578 V 58.2578 H 817.305 v 16.7266 h 5.152 c 8.313,0 16.477,1.2422 24.301,4.0703 6.23,2.2461 12.574,5.5195 17.09,10.4805 5.484,6.0234 8.504,14.1058 10.25,21.9488 2.882,12.95 3.277,28.129 3.277,41.36 v 210.16 c 0,12.48 -0.68,24.949 -2.008,37.355 -1.613,15.008 -8.793,26.114 -21.984,33.473 -8.848,4.945 -21.242,6.496 -31.203,7.035 l -4.875,0.266 v 16.449 h 307.905 l 8.97,-101.914 -15.38,-3.492 -1.46,4.453 c -3.41,10.394 -7.48,22.082 -12.75,31.699 -8.54,15.617 -20.34,27.805 -35.82,36.582 -9.49,5.371 -19.89,8.746 -30.61,10.582 -15.85,2.719 -33.43,3.035 -49.48,3.035 H 949.508 V 280.281 h 6.312 c 23.7,0 52.36,3.723 70.19,21.004 6.2,6.008 10.81,13.086 13.96,21.125 3.97,10.137 5.67,22.242 6.56,33.043 l 0.4,4.953 16.36,-0.746 -1.86,-182.418 h -16.13 l -0.51,4.586 c -1.52,13.828 -4.25,30.504 -10.31,43.152 -4.73,9.868 -11.92,17.543 -21.21,23.313 -8.03,4.996 -17.418,7.922 -26.649,9.723 -11.937,2.324 -24.797,3.039 -37.113,3.179 z M 1372.65,214.566 H 1254.1 l -13.67,-36.168 -7.19,-17.589 c -5.54,-13.555 -12.45,-32.524 -12.45,-47.336 0,-6.168 1.34,-11.879 4.18,-17.3519 2.68,-5.1484 6.24,-9.5977 11.02,-12.9258 7.6,-5.2969 17.05,-7.4687 26.15,-8.2305 l 4.73,-0.3906 V 58.2578 h -138.03 v 16.4375 l 4.85,0.2813 c 8.56,0.4922 16.79,2.4297 24.27,6.7109 8.11,4.6484 15.06,12.2969 20.68,19.8125 6.89,8.762 12.52,19.09 17.27,29.148 8.36,17.704 15.62,36.516 22.7,54.774 l 105.48,272.16 h 23.3 L 1472.94,154.82 c 6.52,-15.726 13.61,-33.129 21.99,-47.945 4.23,-7.4961 9.68,-15.1211 16.47,-20.3711 4.27,-3.1758 9.07,-5.4922 14.03,-7.0625 8,-2.3555 17.41,-3.5351 25.67,-4.4922 l 4.56,-0.5312 V 58.2578 h -197.62 v 16.2735 l 4.69,0.4335 c 9.23,0.8477 25.11,2.7461 33.11,7.7774 9.86,6.2148 15.28,14.6953 15.28,26.4568 0,9.266 -4.15,20.875 -7.6,29.36 z M 245.023,236.539 193.008,365.094 143.621,236.539 Z m 1118.987,0 -52.01,128.555 -49.39,-128.555 h 101.4"></path>
            <path id="path18" style="fill:#000;fill-opacity:1;fill-rule:evenodd;stroke:none" d="m 2683.5,456.48 3.75,-134.597 h -15.3 l -1.25,3.367 c -1.52,4.141 -3.09,8.277 -4.87,12.574 -4.87,13.446 -10.01,27.336 -16.06,40.301 -7.54,16.152 -18.17,30.164 -31.13,42.363 -9.19,8.641 -19.67,16.227 -31.43,20.934 -11.67,4.664 -24.17,6.441 -36.68,6.441 -18.68,0 -37.04,-3.66 -53.28,-13.199 -14.6,-8.566 -26.93,-20.687 -37.34,-33.926 -12.15,-15.437 -21.55,-32.629 -28.71,-50.894 -11.48,-29.305 -15.88,-60.77 -15.88,-92.117 0,-26.528 2.93,-53.551 10.85,-78.95 6.65,-21.339 16.71,-41.343 31.51,-58.207 26.5,-30.1872 60.63,-43.2536 100.53,-43.2536 19.38,0 38.52,3.125 56.37,10.8555 15.24,6.5937 28.5,16.2111 38.06,29.9061 12.43,17.785 19.16,40.645 23.08,61.758 l 0.94,5.051 16.23,-2.957 -0.57,-4.813 c -3.08,-25.726 -10.1,-52.629 -25.43,-73.941 -13.37,-18.5901 -31.41,-31.633 -52.45,-40.4338 -24.07,-10.0664 -50.3,-13.8164 -76.26,-13.8164 -26.14,0 -51.97,3.793 -76.83,11.9219 -38.78,12.6836 -69.74,35.9101 -92.14,70.0153 -23.65,36.016 -33.02,77.223 -33.02,119.965 0,33.793 5.85,66.922 19.18,98.063 12.16,28.437 29.7,53.464 54.02,72.777 18.9,15.008 40.66,25.844 63.49,33.512 23.89,8.027 48.64,12.32 73.86,12.32 25.44,0 50.6,-5.234 74.51,-13.48 l 23.56,-7.758 c 3.1,-1.188 6.77,-2.285 10.12,-2.285 3.25,0 5.58,1.332 7.48,3.781 1.68,2.406 3.14,5.824 4.33,8.515 l 1.76,3.957 z m 267.53,-241.914 h -118.56 l -13.66,-36.168 -7.19,-17.589 c -5.54,-13.555 -12.45,-32.524 -12.45,-47.336 0,-6.168 1.34,-11.879 4.18,-17.3519 2.68,-5.1484 6.24,-9.5977 11.02,-12.9258 7.59,-5.2969 17.05,-7.4687 26.15,-8.2305 l 4.73,-0.3906 V 58.2578 h -138.04 v 16.4375 l 4.86,0.2813 c 8.55,0.4922 16.79,2.4297 24.27,6.7109 8.11,4.6484 15.05,12.2969 20.68,19.8125 6.89,8.762 12.52,19.09 17.27,29.148 8.36,17.704 15.62,36.516 22.69,54.774 l 105.48,272.16 h 23.31 L 3051.32,154.82 c 6.52,-15.726 13.61,-33.129 21.98,-47.945 4.24,-7.4961 9.68,-15.1211 16.48,-20.3711 4.26,-3.1758 9.06,-5.4922 14.02,-7.0625 8,-2.3555 17.41,-3.5351 25.68,-4.4922 l 4.56,-0.5312 V 58.2578 h -197.62 v 16.2735 l 4.68,0.4335 c 9.24,0.8477 25.11,2.7461 33.11,7.7774 9.86,6.2148 15.28,14.6953 15.28,26.4568 0,9.266 -4.14,20.875 -7.59,29.36 z m 326.38,33.829 v -95.649 c 0,-12.941 0.15,-29.34 3.16,-41.965 1.86,-7.801 5.19,-15.0349 10.83,-20.8279 4.6,-4.7265 9.95,-8.3008 16.12,-10.6367 7.71,-2.9258 17.08,-3.9141 25.27,-4.3398 l 4.88,-0.2539 V 58.2578 h -192.18 v 16.461 l 4.88,0.2578 c 8.11,0.4297 17.44,1.4257 25.07,4.3398 6.12,2.332 11.37,5.9492 15.94,10.6367 5.66,5.8047 9.14,12.7739 10.91,20.6639 2.87,12.801 2.98,29.137 2.98,42.227 v 210.16 c 0,13.086 -0.11,29.422 -2.98,42.226 -1.77,7.872 -5.22,14.879 -10.99,20.75 -4.5,4.833 -9.72,8.399 -15.94,10.606 -7.76,2.758 -16.8,3.836 -24.99,4.281 l -4.88,0.266 v 16.449 H 3288 c 15.1,0 30.34,0.113 45.54,-0.297 22.85,-1.055 49.48,-3.773 70.87,-12.316 18.82,-7.504 34.62,-19.239 46.09,-35.992 11.37,-16.602 16.46,-35.43 16.46,-55.504 0,-30.684 -11.47,-56.141 -35.58,-75.289 -7.26,-5.754 -15.34,-10.329 -23.9,-13.848 -6.35,-2.621 -13.1,-4.762 -19.91,-6.59 4.83,-2.707 9.43,-5.801 13.16,-9.332 5.07,-4.625 9.24,-10.25 12.84,-16.191 5.88,-10.125 11.05,-21.575 16.13,-32.137 12.26,-25.5 24.76,-51.195 38.19,-76.098 6.06,-11.226 13.22,-24.1638 21.25,-34.1052 3.25,-4.0117 7.48,-8.5117 12.14,-10.8906 4.82,-2.4649 11.2,-3.5 16.54,-4.0313 l 4.64,-0.4648 V 58.2578 H 3420 l -1.38,3.0117 c -3.02,6.586 -5.94,13.3125 -9.17,19.9961 l -19.92,45.2974 c -10.72,24.359 -22.54,48.425 -35.99,71.406 -7.83,13.363 -19.5,31.578 -32.07,40.949 -4.46,3.32 -9.44,5.766 -14.81,7.23 -6.49,1.77 -13.71,2.247 -20.41,2.247 z m -335.02,-11.856 -52.02,128.555 -49.39,-128.555 z m 335.02,28.578 h 5.73 c 14.75,0 35.32,0.074 49.63,3.821 10.14,2.656 18.95,8.128 26.54,15.285 19.28,18.183 28.52,40.566 28.52,67.015 0,14 -2.67,27.492 -8.31,40.301 -5.26,11.922 -12.66,22.469 -22.76,30.758 -7.75,6.355 -16.87,10.219 -26.58,12.473 -14.32,3.332 -31.51,3.757 -46.17,3.757 h -6.6 v -173.41"></path>
        </g>
    </g>
</svg>