<svg width="100%" height="" viewBox="0 0 2968 508" fill="none" xmlns="http://www.w3.org/2000/svg">
<path d="M2179.05 397.214C2188.69 397.212 2197.35 397.101 2205.99 397.223C2224.92 397.491 2238.79 389.155 2246.73 372.139C2252.21 360.411 2257.19 348.334 2261.02 335.988C2269.5 308.689 2277.17 281.139 2285.06 253.66C2294.16 221.968 2304.09 190.553 2317.88 160.548C2322.04 151.516 2327.25 142.902 2332.67 134.539C2343.49 117.835 2359.22 109.257 2378.94 106.845C2399.92 104.278 2420.68 104.405 2441.39 108.745C2471.05 114.96 2490.45 132.524 2500.03 161.224C2505.54 177.743 2508.82 194.619 2509.24 212.041C2509.89 239.307 2510.87 266.569 2511.17 293.839C2511.88 358.103 2512.3 422.371 2512.71 486.638C2512.74 491.539 2511.72 496.447 2511.13 501.923C2507.99 502.423 2505.47 503.123 2502.94 503.171C2494.94 503.321 2486.94 503.33 2478.94 503.201C2470.37 503.063 2469.48 502.056 2469.23 493.189C2469.17 491.191 2469.22 489.19 2469.22 487.191C2469.22 422.533 2469.21 357.876 2469.22 293.219C2469.23 277.508 2467.55 262.025 2462.91 246.973C2456.24 225.35 2443.91 216.377 2421.42 214.6C2409.78 213.681 2398.37 213.737 2386.73 214.569C2367 215.978 2352.66 224.945 2343.21 241.921C2332.14 261.826 2325.67 283.554 2318.78 305.115C2303.09 354.221 2289.23 403.982 2268.79 451.427C2263.57 463.544 2256.25 474.85 2249.1 486.019C2243.12 495.362 2233.87 500.845 2222.99 502.996C2204.66 506.616 2186.23 508.578 2167.57 505.486C2165.29 505.106 2162.93 505.129 2160.6 505.001C2141.73 503.967 2128.11 494.405 2118.23 478.856C2106.36 460.183 2098.03 439.824 2091.08 418.983C2077.4 377.957 2064.6 336.64 2050.97 295.601C2045.63 279.522 2039.61 263.604 2032.83 248.081C2023.67 227.113 2007.81 215.977 1984.12 214.316C1971.03 213.398 1958.28 214.014 1945.48 215.308C1928.61 217.01 1916.98 226.658 1911.64 242.414C1908.15 252.691 1905.35 263.714 1905.08 274.474C1903.9 321.729 1903.66 369.009 1903.27 416.281C1903.06 441.609 1903.27 466.94 1903.21 492.27C1903.19 502.642 1902.69 503.122 1892.68 503.215C1884.69 503.289 1876.68 503.397 1868.69 503.156C1862.14 502.959 1861.25 501.93 1860.82 495.548C1860.64 492.893 1860.77 490.217 1860.77 487.551C1860.77 422.227 1860.74 356.903 1860.79 291.579C1860.8 276.587 1860.4 261.552 1861.37 246.613C1862.98 221.805 1862.83 196.769 1869.24 172.453C1874.92 150.943 1884.41 131.976 1903.92 119.511C1913.06 113.678 1923.07 110.582 1933.63 108.417C1955.42 103.947 1977.23 104.133 1999.03 107.538C2020.39 110.874 2034.77 123.881 2045.21 142.13C2055.01 159.246 2062.97 177.182 2068.8 195.96C2082.4 239.78 2095.32 283.812 2109.05 327.59C2113.62 342.148 2119.27 356.433 2125.39 370.419C2133.59 389.168 2148.37 398.251 2169.06 397.229C2172.05 397.081 2175.06 397.21 2179.05 397.214Z" fill="#69B9E7"/>
<path d="M2580.86 186.968C2594.17 149.64 2620.56 127.161 2656.63 114.926C2677.85 107.726 2699.72 103.729 2722.06 102.87C2746.63 101.925 2771.27 100.632 2795.81 101.488C2827.03 102.575 2857.99 106.322 2887.46 118.186C2929.45 135.088 2953.32 166.16 2960.94 210.283C2965.19 234.882 2967.12 259.718 2967.18 284.652C2967.33 353.288 2967.23 421.924 2967.23 490.561C2967.23 494.156 2967.23 497.751 2967.23 502.004C2963.75 502.503 2961.23 503.127 2958.71 503.176C2951.38 503.317 2944.05 503.262 2936.72 503.222C2925.37 503.16 2925.24 503.034 2925.23 491.251C2925.2 468.261 2925.22 445.271 2925.21 422.282C2925.21 419.618 2925.1 416.954 2925.06 414.29C2924.99 409.428 2922.81 406.837 2917.66 407.218C2915.67 407.366 2913.67 407.231 2911.67 407.231C2816.04 407.23 2720.42 407.229 2624.79 407.231C2610.8 407.232 2610.79 407.241 2610.78 421.75C2610.78 444.739 2610.78 467.729 2610.78 490.719C2610.78 493.05 2611.34 495.637 2610.51 497.643C2609.65 499.733 2607.48 502.736 2605.79 502.8C2593.93 503.247 2582.05 503.036 2569.54 503.036C2569.22 498.963 2568.8 496.07 2568.8 493.177C2568.76 421.542 2568.44 349.905 2568.93 278.273C2569.13 249.388 2571.21 220.523 2579.01 192.436C2579.46 190.837 2580.09 189.29 2580.86 186.968ZM2650 331.214C2737.9 331.213 2825.79 331.223 2913.69 331.201C2924.23 331.199 2925.36 330.456 2925.11 319.981C2924.71 303.062 2924.34 286.089 2922.64 269.272C2920.95 252.55 2916.12 236.721 2903.24 224.518C2892.67 214.498 2879.58 210.027 2865.86 206.95C2843.37 201.906 2820.32 202.209 2797.53 201.556C2768.33 200.72 2739.06 202.118 2709.82 202.845C2691.89 203.292 2674.1 204.867 2656.85 210.604C2635.2 217.809 2621.6 231.996 2616.06 254.325C2610.4 277.2 2610.62 300.421 2610.91 323.669C2610.98 329.742 2612.57 330.999 2619.04 331.146C2628.69 331.366 2638.35 331.21 2650 331.214Z" fill="#69B8E7"/>
<path d="M723.927 234.199C712.414 256.616 706.67 280.327 698.984 303.339C684.967 345.307 671.43 387.443 656.779 429.188C650.512 447.044 641.986 463.999 629.976 479.112C619.662 492.091 606.52 499.67 590.707 502.694C568.849 506.873 546.867 505.999 525.453 500.333C496.753 492.74 478.201 473.866 469.864 445.459C464.522 427.259 461.461 408.666 460.626 389.562C456.679 299.322 459.81 209.047 458.808 118.796C458.776 115.896 459.325 112.989 459.663 109.463C473.399 109.463 486.482 109.463 500.785 109.463C500.785 113.647 500.785 117.214 500.785 120.781C500.785 176.105 500.607 231.429 500.887 286.751C500.978 304.687 501.295 322.728 503.334 340.512C504.794 353.238 508.315 365.97 512.701 378.051C517.498 391.264 527.488 399.877 541.898 402.499C558.415 405.504 574.945 405.791 591.427 402.574C605.029 399.92 615.596 391.992 621.723 380.055C628.979 365.919 635.262 351.109 640.274 336.029C654.334 293.727 667.225 251.038 681.17 208.698C689.195 184.334 699.432 160.92 712.959 138.899C725.56 118.385 742.627 106.938 766.91 104.455C787.423 102.357 807.389 103.436 827.075 108.784C854.613 116.265 872.392 134.283 880.994 161.359C888.407 184.694 891.057 208.752 891.216 233.128C891.768 317.391 892.266 401.654 892.784 485.918C892.792 487.251 892.8 488.584 892.782 489.917C892.637 500.681 892.181 501.158 881.391 501.224C874.059 501.268 866.725 501.323 859.395 501.205C851.106 501.072 849.684 499.625 849.241 491.259C849.118 488.933 849.215 486.595 849.215 484.262C849.215 418.274 849.224 352.286 849.209 286.298C849.205 268.898 846.449 251.936 841.489 235.25C836.644 218.95 821.886 204.046 800.911 204.467C790.399 204.678 779.888 203.987 769.253 204.427C747.971 205.305 733.206 214.463 723.927 234.199Z" fill="#6AB9E7"/>
<path d="M1718.65 206.802C1702.22 204.114 1686.67 204.876 1671.16 207.085C1657.4 209.043 1646.65 216.056 1640.16 228.228C1634.4 239.044 1628.87 250.191 1625.01 261.783C1609.89 307.231 1595.58 352.952 1580.72 398.493C1573.18 421.617 1564.41 444.29 1552.28 465.473C1539.35 488.076 1521.37 502.856 1494.11 505.567C1472.22 507.744 1451.05 506.451 1430.24 499.565C1411.66 493.419 1397.96 481.44 1388.77 464.221C1381.3 450.228 1377.81 435.02 1375.19 419.559C1371.4 397.191 1370.85 374.588 1370.81 351.989C1370.69 275.674 1370.77 199.358 1370.77 123.042C1370.77 119.47 1370.77 115.898 1370.77 111.552C1385.07 111.552 1398.18 111.552 1412.78 111.552C1412.78 115.644 1412.78 119.512 1412.78 123.38C1412.78 185.366 1412.77 247.351 1412.79 309.337C1412.8 330.366 1415.08 351.113 1420.88 371.393C1426.07 389.547 1439.21 403.958 1462.56 405.514C1473.56 406.248 1484.29 406.186 1495.23 405.329C1513.87 403.868 1527.92 395.295 1535.42 378.494C1543.54 360.308 1550.57 341.556 1556.87 322.651C1569.5 284.792 1581.02 246.565 1593.55 208.675C1601.41 184.946 1611.58 162.253 1624.57 140.696C1637.95 118.503 1657.11 107.033 1682.39 105.417C1698.32 104.399 1714.3 104.914 1730.07 108.005C1768.42 115.528 1788.9 140.3 1796.79 177.226C1801.53 199.423 1803.22 221.908 1803.22 244.549C1803.24 326.863 1803.23 409.178 1803.23 491.492C1803.23 494.765 1803.23 498.038 1803.23 501.666C1800.18 502.3 1797.98 503.117 1795.77 503.152C1786.78 503.293 1777.78 503.241 1768.78 503.165C1764.03 503.125 1761.29 500.82 1761.25 495.845C1761.23 493.18 1761.22 490.514 1761.22 487.848C1761.22 422.53 1761.3 357.211 1761.17 291.894C1761.13 271.525 1759.05 251.369 1751.29 232.277C1745.48 217.993 1735.28 208.841 1718.65 206.802Z" fill="#69B9E7"/>
<path d="M401.231 287C401.231 358.932 401.231 429.863 401.231 501.555C398.202 502.184 395.736 503.096 393.255 503.141C383.596 503.318 373.93 503.353 364.272 503.182C356.277 503.039 355.278 502.021 355.255 493.638C355.168 462.32 355.219 431.003 355.218 399.685C355.218 396.488 355.218 393.292 355.218 388.718C351.537 390.581 349.165 391.568 347.011 392.906C325.03 406.564 300.656 412.555 275.28 415.156C244.168 418.345 212.906 419.919 181.702 418.54C151.938 417.226 121.976 417.353 92.7279 409.469C72.4095 403.991 53.8439 395.541 38.1105 381.698C28.0421 372.84 20.7342 361.554 15.3938 349.219C8.20548 332.614 4.20474 315.235 2.91776 297.136C-1.33969 237.264 1.70621 177.317 0.810334 117.413C0.786042 115.789 1.15231 114.16 1.48868 111.189C15.9965 110.279 30.4405 110.954 46.0403 110.852C46.3202 115.107 46.7472 118.617 46.7517 122.128C46.8004 159.442 46.7195 196.757 46.8087 234.071C46.8526 252.418 48.4041 270.557 54.7228 288.03C60.6181 304.332 71.3947 316.273 87.5417 322.108C98.696 326.138 110.53 328.922 122.296 330.464C136.744 332.358 151.432 332.523 166.028 333.171C181.621 333.864 197.271 335.227 212.819 334.55C238.99 333.412 265.207 331.753 291.188 328.557C302.436 327.173 313.954 322.873 323.918 317.327C340.026 308.362 347.22 292.416 350.941 274.883C354.83 256.558 355.11 237.941 355.183 219.335C355.309 187.352 355.218 155.368 355.218 123.384C355.218 119.786 355.218 116.189 355.218 112.933C362.924 110.367 386.355 109.833 399.365 111.6C399.668 111.878 399.939 112.082 400.152 112.336C400.358 112.581 400.654 112.876 400.655 113.15C400.862 170.767 401.046 228.383 401.231 287Z" fill="#69B9E7"/>
<path d="M1186.74 108.984C1210.59 113.811 1225.68 127.878 1235.81 148.624C1245.06 167.585 1250.93 187.629 1256.71 207.751C1268.64 249.279 1280.49 290.828 1292.42 332.357C1304.63 374.848 1316.87 417.327 1329.12 459.807C1331.88 469.386 1334.85 478.908 1337.43 488.535C1338.52 492.581 1338.85 496.83 1339.65 501.781C1336.03 502.386 1333.53 503.107 1331.01 503.168C1324.02 503.336 1317.02 503.274 1310.02 503.22C1299.87 503.143 1298.36 501.863 1295.35 492.062C1289.97 474.587 1284.56 457.121 1279 439.706C1262.4 387.761 1245.91 335.781 1228.94 283.957C1224.61 270.72 1219.14 257.793 1213.35 245.112C1203.9 224.44 1186.75 215.474 1164.59 214.751C1159.97 214.601 1155.35 213.152 1150.78 213.383C1136.88 214.086 1122.95 214.858 1109.13 216.459C1091.74 218.474 1079.87 228.981 1072.55 244.142C1066.49 256.682 1061.11 269.679 1056.81 282.92C1035.94 347.114 1015.53 411.458 994.978 475.753C993.056 481.765 991.337 487.842 989.359 493.835C986.756 501.724 985.215 502.999 977.342 503.183C969.351 503.37 961.35 503.327 953.358 503.159C950.855 503.106 948.368 502.322 944.823 501.683C945.824 497.032 946.412 493.179 947.489 489.468C967.125 421.799 986.884 354.164 1006.48 286.482C1016.18 252.964 1025.23 219.253 1035.33 185.857C1039.36 172.547 1044.93 159.632 1050.66 146.927C1062.02 121.739 1082.62 109.356 1109.53 107.211C1125.41 105.945 1141.38 105.284 1157.31 105.415C1166.85 105.494 1176.38 107.624 1186.74 108.984Z" fill="#69B9E7"/>
<path d="M2745 42.7941C2702.79 42.7938 2661.59 42.7938 2620.66 42.7938C2618.39 34.7936 2618.03 13.2919 2619.74 2.57288C2619.97 2.33752 2620.19 2.07959 2620.45 1.87335C2620.7 1.67291 2620.98 1.40851 2621.27 1.37415C2623.24 1.14239 2625.21 0.792786 2627.19 0.792969C2722.39 0.801636 2817.59 0.839478 2912.79 0.914124C2913.72 0.914856 2914.65 1.4494 2916.39 1.98261C2916.39 14.9256 2916.39 28.0244 2916.39 41.0502C2916.04 41.3597 2915.8 41.5979 2915.54 41.797C2915.28 41.9908 2914.99 42.2942 2914.72 42.295C2858.48 42.4762 2802.24 42.6349 2745 42.7941Z" fill="#6AB9E7"/>
<path d="M2649 331.214C2638.35 331.21 2628.69 331.365 2619.04 331.146C2612.57 330.999 2610.98 329.742 2610.91 323.668C2610.62 300.42 2610.4 277.2 2616.06 254.325C2621.6 231.996 2635.2 217.809 2656.85 210.604C2674.1 204.867 2691.89 203.292 2709.82 202.845C2739.06 202.117 2768.33 200.719 2797.53 201.556C2820.32 202.209 2843.37 201.906 2865.86 206.95C2879.58 210.027 2892.67 214.497 2903.24 224.517C2916.12 236.72 2920.95 252.549 2922.64 269.271C2924.34 286.088 2924.71 303.062 2925.11 319.98C2925.36 330.456 2924.23 331.198 2913.69 331.201C2825.79 331.222 2737.9 331.213 2649 331.214Z" fill="#FEFFFF"/>
</svg>