<?xml version="1.0" encoding="utf-8"?>
<!-- Generator: Adobe Illustrator 22.1.0, SVG Export Plug-In . SVG Version: 6.00 Build 0)  -->
<svg version="1.1" id="Слой_1" xmlns="http://www.w3.org/2000/svg" xmlns:xlink="http://www.w3.org/1999/xlink" x="0px" y="0px"
	 viewBox="0 0 260 52" style="enable-background:new 0 0 260 52;" xml:space="preserve">
<style type="text/css">
	.st0{fill:#0000E9;}
	.st1{fill:#F00014;}
	.st2{fill:#FF0F19;}
</style>
<g>
	<g>
		<path class="st0" d="M19.1,28.3h-4.5V23h-10v5.3H0.1v-9.1h1.4c1-1.7,1.9-3.7,2.5-6c0.7-2.3,1.1-4.7,1.3-7.3h11.4v13.3H19v9.1H19.1
			z M12.1,19.2V9.6H9c-0.3,3.3-1.2,6.5-2.6,9.6H12.1z"/>
		<path class="st0" d="M37.4,14.4c0,2.9-0.7,5.1-2.1,6.6c-1.4,1.5-3.5,2.3-6.2,2.3s-4.8-0.8-6.2-2.3c-1.4-1.5-2.1-3.7-2.1-6.6
			s0.7-5,2.1-6.5s3.5-2.3,6.2-2.3s4.8,0.7,6.2,2.2C36.7,9.3,37.4,11.5,37.4,14.4z M25.6,14.4c0,3.3,1.2,5,3.5,5c1.2,0,2-0.4,2.6-1.2
			c0.6-0.8,0.9-2.1,0.9-3.8s-0.3-3-0.9-3.8s-1.4-1.2-2.6-1.2C26.8,9.4,25.6,11.1,25.6,14.4z"/>
		<path class="st0" d="M55.1,23h-4.7V9.6h-3.3c-0.2,1.9-0.4,3.9-0.7,5.9s-0.6,3.4-0.9,4.2c-0.3,0.8-0.6,1.5-1,1.9
			c-0.4,0.5-0.9,0.8-1.5,1.1c-0.6,0.2-1.4,0.4-2.2,0.4c-0.7,0-1.3-0.1-1.8-0.3v-3.6c0.5,0.2,0.9,0.2,1.1,0.2c0.4,0,0.7-0.2,0.9-0.5
			s0.4-0.9,0.6-1.7c0.2-0.8,0.4-2.3,0.8-4.5c0.3-2.2,0.6-4.5,0.9-7h11.8C55.1,5.7,55.1,23,55.1,23z"/>
		<path class="st0" d="M71.1,17.3c0,1.8-0.6,3.2-1.9,4.2c-1.2,1-3,1.5-5.3,1.5h-5.1V5.9h4.7V12h0.2c2.4,0,4.2,0.5,5.5,1.4
			C70.4,14.2,71.1,15.5,71.1,17.3z M63.5,19.4h0.2c1.8,0,2.7-0.7,2.7-2s-0.9-1.9-2.7-1.9h-0.2V19.4z"/>
		<path class="st0" d="M73.8,23V5.9h4.7v13.3h4.3V5.9h4.6v13.3h4.3V5.9h4.7v13.3h3.6v9.1h-4.5V23H73.8z"/>
		<path class="st0" d="M102.1,5.9h4.1v7.4c0,0.8-0.1,2.3-0.2,4.7h0.1l6.8-12h5.7v17h-4.1v-7.2c0-1.1,0.1-2.7,0.2-4.9h-0.1l-6.9,12
			H102L102.1,5.9L102.1,5.9z"/>
		<path class="st0" d="M137.4,23h-5.2l-5.1-8.7V23h-4.7V5.9h4.7v8.3l4.9-8.3h5.1l-5.3,8.2L137.4,23z"/>
		<path class="st0" d="M167.6,14.4c0,2.9-0.7,5.1-2.1,6.6s-3.5,2.3-6.2,2.3s-4.8-0.8-6.2-2.3s-2.1-3.7-2.1-6.6s0.7-5,2.1-6.5
			c1.4-1.5,3.5-2.3,6.2-2.3s4.8,0.7,6.2,2.2S167.6,11.5,167.6,14.4z M155.8,14.4c0,3.3,1.2,5,3.5,5c1.2,0,2-0.4,2.6-1.2
			c0.6-0.8,0.9-2.1,0.9-3.8s-0.3-3-0.9-3.8c-0.6-0.8-1.4-1.2-2.6-1.2C157,9.4,155.8,11.1,155.8,14.4z"/>
		<path class="st0" d="M185.4,23h-4.7v-7h-5.4v7h-4.7V5.9h4.7v6.4h5.4V5.9h4.7V23z"/>
		<path class="st0" d="M203.7,23H199V9.6h-3.3c-0.2,1.9-0.4,3.9-0.7,5.9s-0.6,3.4-0.9,4.2c-0.3,0.8-0.6,1.5-1,1.9
			c-0.4,0.5-0.9,0.8-1.5,1.1c-0.6,0.2-1.4,0.4-2.2,0.4c-0.7,0-1.3-0.1-1.8-0.3v-3.6c0.5,0.2,0.9,0.2,1.1,0.2c0.4,0,0.7-0.2,0.9-0.5
			s0.4-0.9,0.6-1.7c0.2-0.8,0.4-2.3,0.8-4.5c0.3-2.2,0.6-4.5,0.9-7h11.8L203.7,23L203.7,23z"/>
		<path class="st0" d="M217.9,23l-0.8-3.2h-5.6l-0.9,3.2h-5.1l5.6-17.2h6.2L223,23H217.9z M216.1,16l-0.7-2.8
			c-0.2-0.6-0.4-1.4-0.6-2.4c-0.2-1-0.4-1.7-0.5-2.1c-0.1,0.4-0.2,1.1-0.4,2s-0.7,2.7-1.4,5.4h3.6L216.1,16L216.1,16z"/>
		<path class="st0" d="M224.9,5.9h3.5c0.3,0,0.6,0.3,0.6,0.6v6.8c0,0.8-0.1,2.3-0.2,4.7h0.1l6.6-11.7c0.1-0.2,0.3-0.3,0.5-0.3h4.8
			c0.3,0,0.6,0.3,0.6,0.6v15.9c0,0.3-0.3,0.6-0.6,0.6h-3c-0.3,0-0.6-0.3-0.6-0.6v-6.6c0-1.1,0.1-2.7,0.2-4.9h-0.1l-6.9,12h-5.7
			L224.9,5.9L224.9,5.9z M233.1,4.5c-1.9,0-3.3-0.4-4.2-1.1c-0.9-0.7-1.4-1.9-1.5-3.4h3.8c0,0.8,0.2,1.3,0.5,1.7
			c0.3,0.3,0.8,0.5,1.4,0.5c1.2,0,1.8-0.7,1.9-2.2h3.9C238.6,3,236.7,4.5,233.1,4.5z"/>
		<path class="st0" d="M259.2,23h-3.6c-0.3,0-0.6-0.2-0.6-0.6v-5.9c0-0.3-0.3-0.6-0.6-0.6h-4.3c-0.3,0-0.6,0.3-0.6,0.6v5.9
			c0,0.3-0.3,0.6-0.6,0.6h-3.6c-0.3,0-0.6-0.3-0.6-0.6V5.9h4.7v6.4h5.4V5.9h4.7v16.5C259.8,22.8,259.6,23,259.2,23z"/>
		<path class="st0" d="M142,20h4v4h-4V20z"/>
		<path class="st0" d="M0,31h260v3H0V31z"/>
		<rect x="142" y="20" class="st1" width="4" height="4"/>
	</g>
	<g>
		<path class="st2" d="M74.6,42.5l-2.4,5.3c-0.3,0.7-0.6,1.1-0.8,1.4s-0.5,0.5-0.8,0.6c-0.3,0.1-0.7,0.2-1.2,0.2
			c-0.4,0-0.8-0.1-1.1-0.2v-1.1C68.6,49,69,49,69.4,49c0.3,0,0.6-0.1,0.8-0.2c0.2-0.2,0.4-0.4,0.6-0.8l-2.8-5.5h1.3l1.8,3.8
			c0.2,0.4,0.3,0.6,0.3,0.7h0.1c0-0.1,0.1-0.2,0.2-0.4l1.7-4H74.6z"/>
		<path class="st2" d="M74.6,48.9h0.6c0.5-0.9,0.9-1.9,1.2-3.1s0.6-2.3,0.6-3.4H81v6.4h1V52h-1.2V50h-5V52h-1.2V48.9z M78.1,43.5
			c-0.1,0.8-0.3,1.7-0.6,2.7c-0.3,1-0.7,1.9-1.1,2.7h3.2v-5.4H78.1z"/>
		<path class="st2" d="M89.8,46.2c0,1.2-0.3,2.2-0.9,2.8c-0.6,0.7-1.5,1-2.6,1c-1.1,0-2-0.3-2.6-1c-0.6-0.7-0.9-1.6-0.9-2.9
			s0.3-2.2,0.9-2.9c0.6-0.7,1.5-1,2.6-1c1.1,0,2,0.3,2.6,1C89.5,44,89.8,45,89.8,46.2z M84.1,46.2c0,0.9,0.2,1.6,0.6,2.1
			c0.4,0.5,0.9,0.7,1.7,0.7c0.7,0,1.3-0.2,1.6-0.7c0.4-0.5,0.6-1.2,0.6-2.1c0-0.9-0.2-1.6-0.6-2.1c-0.4-0.5-0.9-0.7-1.6-0.7
			c-0.7,0-1.3,0.2-1.7,0.7C84.3,44.6,84.1,45.3,84.1,46.2z"/>
		<path class="st2" d="M96.5,47.7c0,1.5-1,2.3-2.9,2.3h-2.2v-7.5H96v1.1h-3.3v2h0.9C95.5,45.5,96.5,46.3,96.5,47.7z M92.7,48.9h0.9
			c0.6,0,1-0.1,1.3-0.3s0.4-0.5,0.4-0.9c0-0.4-0.1-0.7-0.4-0.9c-0.3-0.2-0.8-0.3-1.4-0.3h-0.7V48.9z"/>
		<path class="st2" d="M103.9,50h-1.2v-3.4h-3.5V50H98v-7.5h1.2v3.1h3.5v-3.1h1.2V50z"/>
		<path class="st2" d="M112.5,46.2c0,1.2-0.3,2.2-0.9,2.8c-0.6,0.7-1.5,1-2.6,1c-1.1,0-2-0.3-2.6-1c-0.6-0.7-0.9-1.6-0.9-2.9
			s0.3-2.2,0.9-2.9c0.6-0.7,1.5-1,2.6-1c1.1,0,2,0.3,2.6,1C112.2,44,112.5,45,112.5,46.2z M106.8,46.2c0,0.9,0.2,1.6,0.6,2.1
			c0.4,0.5,0.9,0.7,1.7,0.7c0.7,0,1.3-0.2,1.6-0.7c0.4-0.5,0.6-1.2,0.6-2.1c0-0.9-0.2-1.6-0.6-2.1c-0.4-0.5-0.9-0.7-1.6-0.7
			c-0.7,0-1.3,0.2-1.7,0.7C107,44.6,106.8,45.3,106.8,46.2z"/>
		<path class="st2" d="M116.9,42.5h2.2c1,0,1.8,0.2,2.2,0.5c0.5,0.3,0.7,0.8,0.7,1.4c0,0.4-0.1,0.8-0.3,1.1c-0.2,0.3-0.6,0.5-1,0.5
			v0.1c0.5,0.1,0.9,0.3,1.2,0.6c0.2,0.3,0.4,0.7,0.4,1.2c0,0.7-0.2,1.2-0.7,1.6c-0.5,0.4-1.1,0.6-2,0.6h-2.7V42.5z M118.1,45.6h1.2
			c0.5,0,0.9-0.1,1.1-0.2c0.2-0.2,0.4-0.4,0.4-0.8c0-0.4-0.1-0.6-0.4-0.8c-0.3-0.2-0.7-0.2-1.2-0.2h-1.1V45.6z M118.1,46.6v2.4h1.3
			c0.5,0,0.9-0.1,1.2-0.3c0.3-0.2,0.4-0.5,0.4-0.9c0-0.4-0.1-0.7-0.4-0.9c-0.3-0.2-0.7-0.3-1.2-0.3H118.1z"/>
		<path class="st2" d="M128.8,47.7c0,0.7-0.2,1.3-0.7,1.7c-0.5,0.4-1.2,0.6-2.1,0.6h-2.1v-7.5h1.2v3h0.9c0.9,0,1.6,0.2,2.1,0.6
			C128.5,46.5,128.8,47,128.8,47.7z M125,49h0.8c0.5,0,1-0.1,1.2-0.3c0.3-0.2,0.4-0.5,0.4-0.9c0-0.4-0.1-0.7-0.4-0.9
			c-0.3-0.2-0.7-0.3-1.4-0.3H125V49z M131.1,50h-1.2v-7.5h1.2V50z"/>
		<path class="st2" d="M138.1,47.7c0,1.5-1,2.3-2.9,2.3H133v-7.5h4.6v1.1h-3.3v2h0.9C137.1,45.5,138.1,46.3,138.1,47.7z M134.3,48.9
			h0.9c0.6,0,1-0.1,1.3-0.3s0.4-0.5,0.4-0.9c0-0.4-0.1-0.7-0.4-0.9s-0.8-0.3-1.4-0.3h-0.7V48.9z"/>
		<path class="st2" d="M144.5,44.8c0,0.8-0.3,1.4-0.8,1.8c-0.5,0.4-1.2,0.6-2.2,0.6h-0.8V50h-1.2v-7.5h2.2c0.9,0,1.6,0.2,2.1,0.6
			C144.3,43.4,144.5,44,144.5,44.8z M140.8,46.1h0.7c0.6,0,1.1-0.1,1.4-0.3c0.3-0.2,0.4-0.6,0.4-1c0-0.4-0.1-0.8-0.4-1
			c-0.3-0.2-0.7-0.3-1.2-0.3h-0.9V46.1z"/>
		<path class="st2" d="M150.7,50l-0.7-2.1h-2.9l-0.7,2.1h-1.3l2.8-7.5h1.3L152,50H150.7z M149.6,46.8l-0.7-2
			c-0.1-0.1-0.1-0.4-0.2-0.6c-0.1-0.3-0.2-0.5-0.2-0.6c-0.1,0.4-0.2,0.9-0.4,1.4l-0.7,2H149.6z"/>
		<path class="st2" d="M155.6,50h-1.2v-6.4h-2.2v-1.1h5.6v1.1h-2.2V50z"/>
		<path class="st2" d="M164.2,47.7c0,0.7-0.2,1.3-0.7,1.7c-0.5,0.4-1.2,0.6-2.1,0.6h-2.3v-7.5h1.2v3h1.1c1,0,1.7,0.2,2.2,0.6
			C163.9,46.5,164.2,47,164.2,47.7z M160.2,48.9h1c0.6,0,1-0.1,1.3-0.3c0.3-0.2,0.4-0.5,0.4-0.9c0-0.4-0.1-0.7-0.4-0.9
			c-0.3-0.2-0.8-0.3-1.4-0.3h-0.9V48.9z"/>
		<path class="st2" d="M166.8,48.9c-0.2,0.6-0.5,1.5-0.9,2.5H165c0.2-0.9,0.4-1.8,0.5-2.6h1.2L166.8,48.9z"/>
		<path class="st2" d="M176.9,42.5l-2.4,5.3c-0.3,0.7-0.6,1.1-0.8,1.4c-0.2,0.3-0.5,0.5-0.8,0.6c-0.3,0.1-0.7,0.2-1.2,0.2
			c-0.4,0-0.8-0.1-1.1-0.2v-1.1c0.3,0.1,0.7,0.2,1.1,0.2c0.3,0,0.6-0.1,0.8-0.2c0.2-0.2,0.4-0.4,0.6-0.8l-2.8-5.5h1.3l1.8,3.8
			c0.2,0.4,0.3,0.6,0.3,0.7h0.1c0-0.1,0.1-0.2,0.2-0.4l1.7-4H176.9z"/>
		<path class="st2" d="M176.9,48.9h0.6c0.5-0.9,0.9-1.9,1.2-3.1s0.5-2.3,0.6-3.4h3.9v6.4h1V52h-1.2V50h-5V52h-1.2V48.9z M180.4,43.5
			c-0.1,0.8-0.3,1.7-0.6,2.7c-0.3,1-0.7,1.9-1.1,2.7h3.2v-5.4H180.4z"/>
		<path class="st2" d="M192.1,46.2c0,1.2-0.3,2.2-0.9,2.8c-0.6,0.7-1.5,1-2.6,1c-1.1,0-2-0.3-2.6-1c-0.6-0.7-0.9-1.6-0.9-2.9
			s0.3-2.2,0.9-2.9c0.6-0.7,1.5-1,2.6-1c1.1,0,2,0.3,2.6,1C191.8,44,192.1,45,192.1,46.2z M186.4,46.2c0,0.9,0.2,1.6,0.6,2.1
			c0.4,0.5,0.9,0.7,1.7,0.7c0.7,0,1.3-0.2,1.6-0.7c0.4-0.5,0.6-1.2,0.6-2.1c0-0.9-0.2-1.6-0.6-2.1c-0.4-0.5-0.9-0.7-1.6-0.7
			c-0.7,0-1.3,0.2-1.7,0.7C186.6,44.6,186.4,45.3,186.4,46.2z"/>
		<path class="st2" d="M198.8,47.7c0,1.5-1,2.3-2.9,2.3h-2.2v-7.5h4.6v1.1H195v2h0.9C197.8,45.5,198.8,46.3,198.8,47.7z M195,48.9
			h0.9c0.6,0,1-0.1,1.3-0.3s0.4-0.5,0.4-0.9c0-0.4-0.1-0.7-0.4-0.9c-0.3-0.2-0.8-0.3-1.4-0.3H195V48.9z"/>
		<path class="st2" d="M206.2,50H205v-3.4h-3.5V50h-1.2v-7.5h1.2v3.1h3.5v-3.1h1.2V50z"/>
		<path class="st2" d="M214.8,46.2c0,1.2-0.3,2.2-0.9,2.8c-0.6,0.7-1.5,1-2.6,1c-1.1,0-2-0.3-2.6-1c-0.6-0.7-0.9-1.6-0.9-2.9
			s0.3-2.2,0.9-2.9c0.6-0.7,1.5-1,2.6-1c1.1,0,2,0.3,2.6,1C214.5,44,214.8,45,214.8,46.2z M209.1,46.2c0,0.9,0.2,1.6,0.6,2.1
			c0.4,0.5,0.9,0.7,1.7,0.7c0.7,0,1.3-0.2,1.6-0.7c0.4-0.5,0.6-1.2,0.6-2.1c0-0.9-0.2-1.6-0.6-2.1c-0.4-0.5-0.9-0.7-1.6-0.7
			c-0.7,0-1.3,0.2-1.7,0.7C209.3,44.6,209.1,45.3,209.1,46.2z"/>
		<path class="st2" d="M224.9,50h-1.4l-3.1-3.8V50h-1.2v-7.5h1.2v3.6l3-3.6h1.3l-3,3.6L224.9,50z"/>
		<path class="st2" d="M231.6,42.5l-2.4,5.3c-0.3,0.7-0.6,1.1-0.8,1.4c-0.2,0.3-0.5,0.5-0.8,0.6c-0.3,0.1-0.7,0.2-1.2,0.2
			c-0.4,0-0.8-0.1-1.1-0.2v-1.1c0.3,0.1,0.7,0.2,1.1,0.2c0.3,0,0.6-0.1,0.8-0.2c0.2-0.2,0.4-0.4,0.6-0.8l-2.8-5.5h1.3l1.8,3.8
			c0.2,0.4,0.3,0.6,0.3,0.7h0.1c0-0.1,0.1-0.2,0.2-0.4l1.7-4H231.6z"/>
		<path class="st2" d="M238.4,50h-1.2v-6.4h-3.3V50h-1.2v-7.5h5.8V50z"/>
		<path class="st2" d="M240.3,42.5h1.1v3.9c0,0.4,0,0.8,0,1.2c0,0.4,0,0.7,0,0.8h0l3.8-6h1.4V50h-1.1v-3.9c0-0.6,0-1.3,0.1-2.2h0
			l-3.8,6h-1.4V42.5z"/>
		<path class="st2" d="M251.2,50H250v-6.4h-2.2v-1.1h5.6v1.1h-2.2V50z"/>
		<path class="st2" d="M259.8,47.7c0,0.7-0.2,1.3-0.7,1.7c-0.5,0.4-1.2,0.6-2.1,0.6h-2.3v-7.5h1.2v3h1.1c1,0,1.7,0.2,2.2,0.6
			C259.6,46.5,259.8,47,259.8,47.7z M255.8,48.9h1c0.6,0,1-0.1,1.3-0.3c0.3-0.2,0.4-0.5,0.4-0.9c0-0.4-0.1-0.7-0.4-0.9
			c-0.3-0.2-0.8-0.3-1.4-0.3h-0.9V48.9z"/>
	</g>
</g>
</svg>
