<svg width="177" height="95" viewBox="0 0 177 95" fill="none" xmlns="http://www.w3.org/2000/svg">
    <g clip-path="url(#clip0_367_152)">
        <path d="M88.2707 52.6699V34.146C88.2707 34.146 86.5129 37.2705 82.1567 37.2705C77.8005 37.2705 75.8134 33.4021 75.8134 33.4021C75.8134 33.4021 76.272 35.7826 77.8769 37.2705C77.8769 37.2705 72.6036 38.9815 69.1645 34.5179C69.1645 34.5179 73.3678 34.5923 75.3549 31.9142C75.3549 31.9142 81.9274 39.0559 88.3471 32.1374V25.9627C88.3471 25.9627 86.0544 26.2603 86.0544 27.6738C86.0544 29.0873 87.5829 29.3104 87.5829 29.3104V30.2031C87.5829 30.2031 85.5958 32.8069 81.9274 32.8069C78.259 32.8069 76.807 30.7239 76.807 30.7239L82.4624 25.1444C82.4624 25.1444 85.2901 25.2932 88.3471 25.2932V1.85938C88.3471 1.85938 86.0544 1.85938 86.0544 4.16556C86.0544 6.47175 87.6593 6.17418 87.6593 6.17418C87.6593 6.17418 84.908 21.4992 76.1956 29.236C67.4831 36.9729 64.7318 29.3848 64.7318 29.3848L63.4326 30.5007C63.4326 30.5007 65.3432 36.0058 69.5466 37.7912L67.5596 45.9001L71.8394 38.7584H73.0621L71.3044 45.8257L74.8199 38.684L76.6541 38.6096L76.272 46.0489L79.1761 38.0888C79.1761 38.0888 80.3989 38.9815 81.6217 39.5023L81.7746 46.9416L83.9145 39.2791C83.9145 39.2791 85.5958 38.6096 86.2837 38.1632L88.2707 52.6699Z" stroke="#00A548" stroke-width="4" stroke-miterlimit="10"></path>
        <path d="M63.2034 30.3471C64.5541 30.3471 65.649 29.2813 65.649 27.9665C65.649 26.6518 64.5541 25.5859 63.2034 25.5859C61.8527 25.5859 60.7578 26.6518 60.7578 27.9665C60.7578 29.2813 61.8527 30.3471 63.2034 30.3471Z" stroke="#00A548" stroke-width="4" stroke-miterlimit="10"></path>
        <path d="M74.438 30.1273C75.662 30.1273 76.6543 29.1614 76.6543 27.9699C76.6543 26.7784 75.662 25.8125 74.438 25.8125C73.214 25.8125 72.2217 26.7784 72.2217 27.9699C72.2217 29.1614 73.214 30.1273 74.438 30.1273Z" stroke="#00A548" stroke-width="4" stroke-miterlimit="10"></path>
        <path d="M88.1172 52.819V34.1463C88.1172 34.1463 89.875 37.2708 94.2312 37.2708C98.5874 37.2708 100.651 33.328 100.651 33.328C100.651 33.328 100.192 35.7086 98.5874 37.2708C98.5874 37.2708 103.861 39.0563 107.376 34.5183C107.376 34.5183 103.173 34.5927 101.186 31.9145C101.186 31.9145 94.5369 39.0563 88.1936 32.1377V25.9631C88.1936 25.9631 90.4864 26.2607 90.4864 27.6741C90.4864 29.0876 88.9579 29.3108 88.9579 29.3108V30.2035C88.9579 30.2035 90.9449 32.8073 94.6897 32.8073C98.4345 32.8073 99.8102 30.7242 99.8102 30.7242L94.0783 25.0704C94.0783 25.0704 91.2506 25.2192 88.1936 25.2192V1.71094C88.1936 1.71094 90.4864 1.71094 90.4864 4.01712C90.4864 6.32331 88.8814 6.02574 88.8814 6.02574C88.8814 6.02574 91.6327 21.4251 100.422 29.2364C109.21 37.0477 111.962 29.3852 111.962 29.3852L113.108 30.5011C113.108 30.5011 111.121 36.0062 106.994 37.866L108.981 46.0492L104.701 38.8331H103.479L105.236 45.9748L101.644 38.7587L99.7338 38.6843L100.116 46.198L97.2117 38.1636C97.2117 38.1636 95.9889 39.0563 94.6897 39.577L94.5369 47.0907L92.4734 39.4282C92.4734 39.4282 90.7156 38.7587 90.1042 38.3123L88.1172 52.819Z" stroke="#00A548" stroke-width="4" stroke-miterlimit="10"></path>
        <path d="M113.109 30.3471C114.459 30.3471 115.554 29.2813 115.554 27.9665C115.554 26.6518 114.459 25.5859 113.109 25.5859C111.758 25.5859 110.663 26.6518 110.663 27.9665C110.663 29.2813 111.758 30.3471 113.109 30.3471Z" stroke="#00A548" stroke-width="4" stroke-miterlimit="10"></path>
        <path d="M102.103 30.1273C103.327 30.1273 104.319 29.1614 104.319 27.9699C104.319 26.7784 103.327 25.8125 102.103 25.8125C100.879 25.8125 99.8867 26.7784 99.8867 27.9699C99.8867 29.1614 100.879 30.1273 102.103 30.1273Z" stroke="#00A548" stroke-width="4" stroke-miterlimit="10"></path>
        <path d="M88.27 30.1273C89.4941 30.1273 90.4864 29.1614 90.4864 27.9699C90.4864 26.7784 89.4941 25.8125 88.27 25.8125C87.046 25.8125 86.0537 26.7784 86.0537 27.9699C86.0537 29.1614 87.046 30.1273 88.27 30.1273Z" stroke="#00A548" stroke-width="4" stroke-miterlimit="10"></path>
        <path d="M88.1175 6.24553C89.4681 6.24553 90.5631 5.17971 90.5631 3.86495C90.5631 2.5502 89.4681 1.48438 88.1175 1.48438C86.7668 1.48438 85.6719 2.5502 85.6719 3.86495C85.6719 5.17971 86.7668 6.24553 88.1175 6.24553Z" stroke="#00A548" stroke-width="4" stroke-miterlimit="10"></path>
        <path d="M83.4558 11.5988C83.4558 11.5988 72.2213 15.4672 72.527 19.8564C72.8327 24.2456 81.1631 20.3771 95.0724 13.8306C108.982 7.28396 121.898 11.5244 127.018 16.6575C127.018 16.6575 119.758 13.0122 110.969 14.4257C110.969 14.4257 116.242 18.8149 117.465 22.6089C117.465 22.6089 109.364 14.0537 97.7473 17.4014C86.1307 20.8235 75.8897 27.0725 69.2408 22.0882C64.2732 16.6575 76.1954 10.1853 83.4558 11.5988Z" stroke="#00A548" stroke-width="4" stroke-miterlimit="10"></path>
        <path d="M66.7952 38.2329C66.7952 38.2329 55.2551 40.7622 49.5996 50.2845C49.5996 50.2845 50.1346 45.7466 52.2745 42.2501C52.2745 42.2501 48.224 42.1013 45.167 43.4404C45.167 43.5148 54.338 34.8852 66.7952 38.2329Z" stroke="#00A548" stroke-width="4" stroke-miterlimit="10"></path>
        <path d="M109.898 38.0896C109.898 38.0896 124.801 34.6675 132.291 43.8922C132.291 43.8922 128.623 42.4788 124.496 42.5531C124.496 42.5531 127.782 45.0825 127.476 51.5547C127.553 51.5547 120.063 40.5445 109.898 38.0896Z" stroke="#00A548" stroke-width="4" stroke-miterlimit="10"></path>
        <path d="M156.135 59.4375C156.135 59.4375 176.235 66.1329 175.471 78.9285C174.707 91.7241 157.74 101.842 101.109 83.0201L128.011 84.7312L114.789 72.6795C114.789 72.6795 133.743 82.3506 153.613 80.9371C173.331 79.5236 160.033 61.6693 156.135 59.4375Z" stroke="#00A548" stroke-width="4" stroke-miterlimit="10"></path>
        <path d="M21.093 59.2109C21.093 59.2109 1.37538 64.8648 1.52823 78.6275C1.68108 92.3903 27.0541 101.838 77.036 82.7192L49.7523 84.579L64.5787 71.4858C64.5787 71.4858 46.6189 81.3801 28.9648 81.0081C11.3106 80.6362 8.63574 71.4114 21.093 59.2109Z" stroke="#00A548" stroke-width="4" stroke-miterlimit="10"></path>
        <path d="M38.2121 68.7357C35.9958 66.4295 31.2575 68.3637 31.2575 68.3637C31.2575 68.3637 31.2575 67.0247 31.3339 63.9001C31.4103 60.7756 34.6202 61.7427 34.6202 61.7427L33.4738 58.1719C28.8883 60.0317 30.1875 64.3465 30.4168 66.5039C30.6461 68.6613 29.8054 68.8101 29.8054 68.8101L26.672 63.677L27.6655 61.8171L21.6279 65.3136L23.9971 65.388L30.4932 76.9933L29.2704 79.1507L35.5373 75.803L33.7031 75.9518L30.0347 69.7772C30.0347 69.7772 30.6461 69.2564 33.3974 69.2564C36.1487 69.2564 37.9064 73.1993 37.9064 73.1993L37.1422 74.9103L43.2562 71.5626C43.2562 71.5626 43.0269 71.7114 41.9569 71.7858C40.887 71.8602 40.5049 71.0419 38.2121 68.7357Z" stroke="#E8E318" stroke-width="4" stroke-miterlimit="10" stroke-linecap="round" stroke-linejoin="round"></path>
        <path d="M49.0647 54.7501L50.364 53.0391L43.8678 54.9733L46.0077 55.0477C46.0077 55.0477 46.3899 55.9404 45.4728 57.8746C44.5557 59.8088 40.9637 71.4142 45.7785 71.191C50.5932 70.9678 49.9818 62.9333 49.9818 62.9333L53.421 67.9177L52.1217 69.4799L58.9235 67.1738L57.0129 67.025L49.0647 54.7501ZM49.4469 63.1565C49.2176 67.6201 45.0142 71.0422 44.7085 66.7274C44.4028 62.4126 46.6191 58.0978 46.6191 58.0978C46.6191 58.0978 49.6761 58.6929 49.4469 63.1565Z" stroke="#E8E318" stroke-width="4" stroke-miterlimit="10" stroke-linecap="round" stroke-linejoin="round"></path>
        <path d="M66.3361 50.0642C62.1327 50.0642 60.6807 52.3704 60.6807 52.3704L62.5149 65.6124L61.2921 66.5795L67.5589 65.7612L65.4954 65.3892L65.0369 59.5866L66.489 58.1731C66.489 58.1731 71.0744 59.4378 71.7623 55.8669C72.4501 52.296 70.463 49.9899 66.3361 50.0642ZM68.1703 57.1316C67.7117 57.8011 65.8776 57.206 64.5019 58.1731L63.432 52.1473C63.432 52.1473 64.8076 50.8826 66.6418 51.1801C68.476 51.4777 68.6288 56.4621 68.1703 57.1316Z" stroke="#E8E318" stroke-width="4" stroke-miterlimit="10" stroke-linecap="round" stroke-linejoin="round"></path>
        <path d="M86.5889 48.4237C84.6783 49.4652 82.5384 61.4425 82.5384 61.4425L79.0992 50.2835L80.9334 49.0189C80.9334 49.0189 73.9788 49.242 73.9023 49.242L75.8894 50.0604L79.6342 64.7902L81.927 64.7158L82.0034 69.9977H83.4555C83.379 69.9977 83.2262 69.477 83.5319 64.0463C83.914 57.7229 86.5889 51.3251 86.5889 51.3251C86.5889 51.3251 88.8816 51.697 89.493 50.1348C90.1044 48.5725 88.4995 47.3822 86.5889 48.4237Z" stroke="#E8E318" stroke-width="4" stroke-miterlimit="10" stroke-linecap="round" stroke-linejoin="round"></path>
        <path d="M100.269 55.1954L107.148 54.9722C107.148 54.9722 105.772 54.0795 104.778 52.9636C103.785 51.8477 102.715 49.0208 98.8173 49.0952C94.9196 49.1696 91.4805 51.5502 91.4805 56.1625C91.4805 60.7749 96.8302 65.6849 96.8302 65.6849H98.4351C98.4351 65.6849 104.549 62.3372 106.46 58.0224H99.7344C99.7344 58.0224 100.881 58.7663 101.11 59.5102C101.339 60.2542 100.651 63.825 97.518 65.0153L96.7538 64.4202C96.7538 64.4202 96.9831 60.9237 95.8367 58.1711C94.6903 55.493 95.1489 50.2855 98.2823 49.9135C101.492 49.6903 102.638 54.2283 100.269 55.1954Z" stroke="#E8E318" stroke-width="4" stroke-miterlimit="10" stroke-linecap="round" stroke-linejoin="round"></path>
        <path d="M119.452 64.345C119.452 64.345 118.382 67.0976 113.261 66.3536C113.261 66.3536 113.643 62.7084 113.49 61.2205C113.338 59.7326 113.338 57.3521 115.401 57.3521C117.465 57.3521 118.229 59.5839 118.229 59.5839L116.547 60.1046L123.273 61.89C123.273 61.89 120.139 55.9386 114.178 56.7569C114.178 56.7569 114.637 52.3677 118 51.475C118 51.475 122.126 51.6238 121.821 55.7898L120.063 56.1618L125.718 57.2777C125.718 57.2777 125.031 56.385 124.572 55.2691C124.114 54.1532 121.591 50.5823 116.853 50.7311C112.115 50.8799 110.128 55.1947 110.281 58.096C110.433 60.9973 112.344 63.3035 112.115 66.1305C112.115 66.1305 114.484 67.2463 116.395 67.4695C118.305 67.6927 121.591 66.6512 123.426 64.1962L118.305 62.5596L119.452 64.345Z" stroke="#E8E318" stroke-width="4" stroke-miterlimit="10" stroke-linecap="round" stroke-linejoin="round"></path>
        <path d="M140.239 57.7223L133.514 54.5234L134.813 57.2016C134.813 57.2016 126.636 64.5665 125.489 66.2775C124.343 67.9886 125.566 69.774 127.477 69.8484C129.387 69.9228 129.999 66.5751 128.088 66.4263C128.088 66.4263 131.986 60.3261 135.119 58.3919L133.896 70.7411H131.374L138.1 73.6425L137.106 71.857L138.635 57.8711L140.239 57.7223Z" stroke="#E8E318" stroke-width="4" stroke-miterlimit="10" stroke-linecap="round" stroke-linejoin="round"></path>
        <path d="M152.467 64.1181L154.531 64.5645L148.187 60.3984L149.563 62.4071L142.15 74.0868H140.239L150.174 80.2614L154.531 74.2356L148.952 69.6232L152.467 64.1181ZM151.474 73.1941L148.111 77.9552L144.595 75.7978L148.34 70.6647L151.474 73.1941Z" stroke="#E8E318" stroke-width="4" stroke-miterlimit="10" stroke-linecap="round" stroke-linejoin="round"></path>
        <path d="M88.1943 52.5177V33.9194C88.1943 33.9194 86.4365 37.0439 82.0803 37.0439C77.7241 37.0439 75.737 33.1755 75.737 33.1755C75.737 33.1755 76.1956 35.5561 77.8005 37.0439C77.8005 37.0439 72.5272 38.755 69.0881 34.2914C69.0881 34.2914 73.2914 34.3658 75.2785 31.6876C75.2785 31.6876 81.851 38.8294 88.2707 31.9108V25.7362C88.2707 25.7362 85.978 26.0338 85.978 27.4472C85.978 28.8607 87.5065 29.0839 87.5065 29.0839V29.9766C87.5065 29.9766 85.5194 32.5803 81.851 32.5803C78.1826 32.5803 76.7305 30.4973 76.7305 30.4973L82.386 24.9179C82.386 24.9179 85.2137 25.0666 88.2707 25.0666V1.63281C88.2707 1.63281 85.978 1.63281 85.978 3.939C85.978 6.24519 87.5829 5.94761 87.5829 5.94761C87.5829 5.94761 84.8316 21.2726 76.1191 29.0095C67.4067 36.7464 64.6554 29.1583 64.6554 29.1583L63.4326 30.2742C63.4326 30.2742 65.3432 35.7793 69.5466 37.5647L67.5596 45.6735L71.8394 38.5318H73.0622L71.3044 45.5991L74.8199 38.4574L76.6541 38.383L76.272 45.8223L79.1761 37.8623C79.1761 37.8623 80.3989 38.755 81.6217 39.2757L81.7746 46.715L83.9145 39.0525C83.9145 39.0525 85.5958 38.383 86.2837 37.9366L88.1943 52.5177Z" fill="#E8E318"></path>
        <path d="M63.1272 30.1283C64.4779 30.1283 65.5728 29.0625 65.5728 27.7478C65.5728 26.433 64.4779 25.3672 63.1272 25.3672C61.7766 25.3672 60.6816 26.433 60.6816 27.7478C60.6816 29.0625 61.7766 30.1283 63.1272 30.1283Z" fill="#E8E318"></path>
        <path d="M74.3618 29.9007C75.5859 29.9007 76.5781 28.9348 76.5781 27.7433C76.5781 26.5518 75.5859 25.5859 74.3618 25.5859C73.1378 25.5859 72.1455 26.5518 72.1455 27.7433C72.1455 28.9348 73.1378 29.9007 74.3618 29.9007Z" fill="#E8E318"></path>
        <path d="M88.041 52.5924V33.9942C88.041 33.9942 89.7988 37.1187 94.155 37.1187C98.5112 37.1187 100.575 33.1758 100.575 33.1758C100.575 33.1758 100.116 35.5564 98.5112 37.1187C98.5112 37.1187 103.785 38.9041 107.3 34.3661C107.3 34.3661 103.097 34.4405 101.11 31.7624C101.11 31.7624 94.4607 38.9041 88.1174 31.9855V25.8109C88.1174 25.8109 90.4102 26.1085 90.4102 27.522C90.4102 28.9354 88.8817 29.1586 88.8817 29.1586V30.0513C88.8817 30.0513 90.8687 32.6551 94.6136 32.6551C98.282 32.6551 99.734 30.5721 99.734 30.5721L94.0022 24.9182C94.0022 24.9182 91.1744 25.067 88.1174 25.067V1.48438C88.1174 1.48438 90.4102 1.48438 90.4102 3.79056C90.4102 6.09675 88.8053 5.79918 88.8053 5.79918C88.8053 5.79918 91.5566 21.1985 100.345 29.0098C109.134 36.8211 111.886 29.1586 111.886 29.1586L113.108 30.2745C113.108 30.2745 111.121 35.7796 106.994 37.6394L108.981 45.8227L104.702 38.6065H103.479L105.237 45.7483L101.645 38.5321L99.734 38.4577L100.116 45.9715L97.212 37.937C97.212 37.937 95.9892 38.8297 94.69 39.3505L94.5371 46.8642L92.3972 39.1273C92.3972 39.1273 90.6395 38.4577 90.0281 38.0114L88.041 52.5924Z" fill="#E8E318"></path>
        <path d="M113.033 30.1283C114.383 30.1283 115.478 29.0625 115.478 27.7478C115.478 26.433 114.383 25.3672 113.033 25.3672C111.682 25.3672 110.587 26.433 110.587 27.7478C110.587 29.0625 111.682 30.1283 113.033 30.1283Z" fill="#E8E318"></path>
        <path d="M102.027 29.9007C103.251 29.9007 104.243 28.9348 104.243 27.7433C104.243 26.5518 103.251 25.5859 102.027 25.5859C100.803 25.5859 99.8105 26.5518 99.8105 27.7433C99.8105 28.9348 100.803 29.9007 102.027 29.9007Z" fill="#E8E318"></path>
        <path d="M88.1939 29.9007C89.4179 29.9007 90.4102 28.9348 90.4102 27.7433C90.4102 26.5518 89.4179 25.5859 88.1939 25.5859C86.9698 25.5859 85.9775 26.5518 85.9775 27.7433C85.9775 28.9348 86.9698 29.9007 88.1939 29.9007Z" fill="#E8E318"></path>
        <path d="M88.0413 6.0971C89.392 6.0971 90.4869 5.03128 90.4869 3.71652C90.4869 2.40176 89.392 1.33594 88.0413 1.33594C86.6906 1.33594 85.5957 2.40176 85.5957 3.71652C85.5957 5.03128 86.6906 6.0971 88.0413 6.0971Z" fill="#E8E318"></path>
        <path d="M83.3026 11.38C83.3026 11.38 72.0681 15.2485 72.3738 19.6376C72.6795 24.0268 81.0099 20.1584 94.9192 13.6118C108.829 7.06521 121.744 11.3056 126.865 16.4387C126.865 16.4387 119.604 12.7935 110.816 14.2069C110.816 14.2069 116.089 18.5961 117.312 22.3902C117.312 22.3902 109.211 13.835 97.594 17.1827C85.9775 20.6048 75.7365 26.8538 69.0876 21.8694C64.1964 16.4387 76.0422 9.96654 83.3026 11.38Z" fill="#DB0000"></path>
        <path d="M66.7191 38.0838C66.7191 38.0838 55.1789 40.6131 49.5235 50.1355C49.5235 50.1355 50.0584 45.5975 52.1983 42.101C52.1983 42.101 48.1478 41.9522 45.0908 43.2913C45.0908 43.2913 54.2618 34.6617 66.7191 38.0838Z" fill="#DB0000"></path>
        <path d="M109.822 37.9411C109.822 37.9411 124.725 34.519 132.215 43.7438C132.215 43.7438 128.546 42.3303 124.419 42.4047C124.419 42.4047 127.706 44.9341 127.4 51.4063C127.476 51.3319 119.91 40.3217 109.822 37.9411Z" fill="#E8E318"></path>
        <path d="M155.983 59.2109C155.983 59.2109 176.083 65.9063 175.318 78.7019C174.631 91.4976 157.588 101.615 100.957 82.7936L127.859 84.5046L114.637 72.5273C114.637 72.5273 133.59 82.1984 153.461 80.7849C173.255 79.2971 159.957 61.4427 155.983 59.2109Z" fill="#DB0000"></path>
        <path d="M21.0168 59.0625C21.0168 59.0625 1.29921 64.7164 1.45206 78.4791C1.60491 92.2418 26.978 101.69 76.9598 82.5707L49.6761 84.3562L64.5026 71.263C64.5026 71.263 46.5427 81.1573 28.8886 80.7853C11.2344 80.4133 8.55957 71.1886 21.0168 59.0625Z" fill="#E8E318"></path>
        <path d="M38.136 68.5169C35.9196 66.2108 31.1813 68.145 31.1813 68.145C31.1813 68.145 31.1813 66.8059 31.2577 63.6814C31.3341 60.5569 34.544 61.524 34.544 61.524L33.3976 57.9531C28.8121 59.813 30.1113 64.1278 30.3406 66.2852C30.5699 68.4426 29.7292 68.5913 29.7292 68.5913L26.5958 63.4582L27.5893 61.5984L21.5518 65.0949L23.9209 65.1693L30.417 76.7746L29.1942 78.932L35.4611 75.5843L33.6269 75.7331L29.8056 69.5584C29.8056 69.5584 30.417 69.0377 33.1683 69.0377C35.9196 69.0377 37.6774 72.9805 37.6774 72.9805L36.9132 74.6916L43.0271 71.3439C43.0271 71.3439 42.7979 71.4927 41.7279 71.5671C40.658 71.6415 40.3523 70.8231 38.136 68.5169Z" fill="#36306F"></path>
        <path d="M48.9114 54.5314L50.2106 52.8203L43.7145 54.7545L45.8544 54.8289C45.8544 54.8289 46.2365 55.7216 45.3194 57.6559C44.4023 59.5901 40.8104 71.1954 45.6251 70.9722C50.4399 70.7491 49.8285 62.7146 49.8285 62.7146L53.2676 67.6989L51.9684 69.2612L58.7702 66.955L56.8596 66.8062L48.9114 54.5314ZM49.2935 63.0122C49.0643 67.4758 44.9373 70.8978 44.5552 66.583C44.1731 62.2682 46.4658 57.9534 46.4658 57.9534C46.4658 57.9534 49.5228 58.4742 49.2935 63.0122Z" fill="#36306F"></path>
        <path d="M66.1838 49.8438C61.9804 49.8438 60.5283 52.1499 60.5283 52.1499L62.3625 65.3919L61.1397 66.359L67.4066 65.5407L65.3431 65.1687L64.961 59.3661L66.413 57.9526C66.413 57.9526 70.9985 59.2173 71.6864 55.6464C72.3742 52.0755 70.3871 49.8438 66.1838 49.8438ZM68.0944 56.9111C67.6358 57.5806 65.8016 56.9855 64.426 57.9526L63.356 51.9268C63.356 51.9268 64.7317 50.6621 66.5659 50.9596C68.4001 51.2572 68.5529 56.2416 68.0944 56.9111Z" fill="#36306F"></path>
        <path d="M86.5127 48.205C84.6021 49.2465 82.4622 61.2238 82.4622 61.2238L79.0231 50.0648L80.8573 48.8001C80.8573 48.8001 73.9026 49.0233 73.8262 49.0233L75.8132 49.8416L79.558 64.5715L81.8508 64.4971L81.9272 69.779H83.3793C83.3029 69.779 83.15 69.2582 83.4557 63.8275C83.8378 57.5041 86.5127 51.1063 86.5127 51.1063C86.5127 51.1063 88.8054 51.4783 89.4168 49.916C90.0282 48.3538 88.4233 47.1635 86.5127 48.205Z" fill="#36306F"></path>
        <path d="M100.193 55.047L107.071 54.8238C107.071 54.8238 105.696 53.9311 104.702 52.8152C103.709 51.6993 102.639 48.8724 98.7411 48.9468C94.8434 49.0211 91.4043 51.4017 91.4043 56.0141C91.4043 60.6265 96.754 65.5364 96.754 65.5364H98.359C98.359 65.5364 104.473 62.1887 106.384 57.8739H99.6582C99.6582 57.8739 100.805 58.6179 101.034 59.3618C101.263 60.1057 100.575 63.6766 97.4419 64.8669L96.6776 64.2717C96.6776 64.2717 96.9069 60.7753 95.7605 58.0227C94.6141 55.3446 95.0727 50.137 98.2061 49.7651C101.416 49.4675 102.562 54.0055 100.193 55.047Z" fill="#36306F"></path>
        <path d="M119.375 64.1966C119.375 64.1966 118.305 66.9491 113.185 66.2052C113.185 66.2052 113.567 62.5599 113.414 61.0721C113.261 59.5842 113.261 57.2036 115.325 57.2036C117.388 57.2036 118.153 59.4354 118.153 59.4354L116.471 59.9562L123.197 61.7416C123.197 61.7416 120.063 55.7902 114.102 56.6085C114.102 56.6085 114.561 52.2193 117.923 51.3266C117.923 51.3266 122.05 51.4754 121.745 55.6414L119.987 56.0133L125.642 57.1292C125.642 57.1292 124.954 56.2365 124.496 55.1206C124.037 54.0047 121.515 50.4339 116.777 50.5826C112.039 50.7314 110.052 55.0462 110.204 57.9476C110.357 60.8489 112.268 63.1551 112.039 65.982C112.039 65.982 114.408 67.0979 116.318 67.3211C118.229 67.5443 121.515 66.5028 123.35 64.0478L118.229 62.4111L119.375 64.1966Z" fill="#36306F"></path>
        <path d="M140.087 57.5036L133.362 54.3047L134.661 56.9828C134.661 56.9828 126.483 64.3478 125.337 66.0588C124.191 67.7698 125.414 69.5553 127.324 69.6297C129.235 69.7041 129.846 66.3564 127.936 66.2076C127.936 66.2076 131.833 60.1073 134.967 58.1731L133.744 70.5224H131.222L137.947 73.4237L136.954 71.6383L138.482 57.6524L140.087 57.5036Z" fill="#36306F"></path>
        <path d="M152.315 63.9775L154.378 64.4238L148.035 60.2578L149.411 62.2664L141.998 73.9461H140.087L150.022 80.1208L154.378 74.0949L148.799 69.4826L152.315 63.9775ZM151.398 72.979L148.035 77.7402L144.52 75.5828L148.264 70.4497L151.398 72.979Z" fill="#36306F"></path>
    </g>
    <defs>
        <clipPath id="clip0_367_152">
            <rect width="177" height="95" fill="white"></rect>
        </clipPath>
    </defs>
</svg>