<svg viewBox="0 0 565 223" fill="none" xmlns="http://www.w3.org/2000/svg" style="max-height: 90%; width: auto;">
                    <path d="M154.08 219.897C154.474 219.897 154.672 220.292 154.672 221.08C154.672 221.869 154.474 222.263 154.08 222.263H131.994C130.943 222.263 129.069 222.296 126.375 222.362C123.68 222.428 119.9 219.075 115.036 212.305C110.172 205.535 105.505 199.324 101.036 193.671L70.8658 155.612L64.3586 161.922V206.29C64.3586 210.234 64.7528 213.159 65.5414 215.065C66.3301 216.971 67.8748 218.253 70.1756 218.911C72.4761 219.568 76.1242 219.896 81.1196 219.896C81.5138 219.896 81.7112 220.291 81.7112 221.08C81.7112 221.868 81.5138 222.262 81.1196 222.262C77.1755 222.262 74.0205 222.196 71.6544 222.065L57.851 221.868L44.4422 222.065C42.0762 222.196 38.7896 222.262 34.5828 222.262C34.3198 222.262 34.1884 221.868 34.1884 221.08C34.1884 220.291 34.3198 219.896 34.5828 219.896C39.5783 219.896 43.2264 219.568 45.5268 218.911C47.8273 218.253 49.405 216.971 50.2596 215.065C51.1138 213.159 51.5413 210.234 51.5413 206.29V114.991C51.5413 111.047 51.1468 108.155 50.3581 106.315C49.5694 104.474 48.0251 103.193 45.7243 102.47C43.4238 101.747 39.7757 101.385 34.7799 101.385C34.5173 101.385 34.3858 100.991 34.3858 100.202C34.3858 99.4136 34.5173 99.0191 34.7799 99.0191L44.6396 99.2165C50.161 99.4795 54.5649 99.6106 57.8514 99.6106C61.664 99.6106 66.3308 99.4795 71.8519 99.2165L81.12 99.0191C81.5141 99.0191 81.7116 99.4136 81.7116 100.202C81.7116 100.991 81.5141 101.385 81.12 101.385C76.2557 101.385 72.6735 101.78 70.3727 102.568C68.0726 103.357 66.4949 104.705 65.6403 106.61C64.7857 108.516 64.3586 111.441 64.3586 115.386V156.993L106.557 114.991C110.896 110.653 113.065 107.433 113.065 105.329C113.065 102.7 109.186 101.385 101.431 101.385C101.168 101.385 101.036 100.991 101.036 100.202C101.036 99.4136 101.168 99.0191 101.431 99.0191L109.91 99.2165C115.168 99.4795 119.966 99.6106 124.305 99.6106C128.643 99.6106 133.178 99.4795 137.911 99.2165L145.206 99.0191C145.601 99.0191 145.798 99.4136 145.798 100.202C145.798 100.991 145.601 101.385 145.206 101.385C139.817 101.385 134.098 102.568 128.051 104.934C122.004 107.301 116.351 111.047 111.092 116.174L79.9368 146.739L108.332 183.022C117.929 195.511 125.257 204.318 130.319 209.445C135.38 214.572 139.29 217.596 142.051 218.516C144.812 219.436 148.821 219.897 154.08 219.897ZM270.284 192.882C270.284 192.619 270.547 192.488 271.073 192.488C271.467 192.488 271.829 192.554 272.157 192.685C272.486 192.817 272.65 193.014 272.65 193.277C271.467 201.559 270.876 210.235 270.876 219.306C270.876 220.358 270.646 221.114 270.185 221.574C269.725 222.034 268.904 222.264 267.721 222.264H185.098C184.835 222.264 184.703 221.87 184.703 221.081C184.703 220.292 184.835 219.898 185.098 219.898C190.093 219.898 193.742 219.569 196.042 218.912C198.342 218.255 199.92 216.973 200.774 215.067C201.629 213.161 202.056 210.236 202.056 206.292V114.993C202.056 111.048 201.629 108.156 200.774 106.316C199.92 104.476 198.343 103.194 196.042 102.471C193.742 101.748 190.093 101.387 185.098 101.387C184.835 101.387 184.703 100.992 184.703 100.204C184.703 99.4151 184.835 99.0206 185.098 99.0206H264.368C265.551 99.0206 266.143 99.6122 266.143 100.795L266.537 125.05C266.537 125.444 266.208 125.674 265.551 125.74C264.894 125.806 264.5 125.641 264.368 125.247C263.974 118.279 261.871 112.857 258.058 108.979C254.246 105.101 249.185 103.162 242.875 103.162H230.846C226.245 103.162 222.86 103.523 220.691 104.246C218.521 104.969 217.01 106.218 216.155 107.993C215.301 109.767 214.873 112.429 214.873 115.979V156.008H238.931C245.241 156.008 249.743 154.957 252.439 152.854C255.134 150.75 256.481 147.201 256.481 142.205C256.481 141.942 256.876 141.811 257.664 141.811C258.453 141.811 258.847 141.942 258.847 142.205L258.65 158.177C258.65 161.99 258.715 164.882 258.847 166.854L259.044 176.319C259.044 176.582 258.65 176.713 257.861 176.713C257.073 176.713 256.678 176.582 256.678 176.319C256.678 170.535 255.265 166.394 252.439 163.896C249.613 161.398 244.913 160.15 238.34 160.15H214.874V205.504C214.874 209.184 215.269 211.879 216.057 213.589C216.846 215.297 218.292 216.481 220.396 217.138C222.499 217.795 225.785 218.124 230.255 218.124H246.03C252.34 218.124 257.599 215.889 261.805 211.419C266.012 206.95 268.839 200.771 270.285 192.883L270.284 192.882ZM396.94 192.882C396.94 192.619 397.203 192.488 397.729 192.488C398.123 192.488 398.485 192.554 398.813 192.685C399.142 192.817 399.306 193.014 399.306 193.277C398.123 201.559 397.531 210.235 397.531 219.306C397.531 220.358 397.301 221.114 396.841 221.574C396.381 222.034 395.559 222.264 394.376 222.264H311.754C311.491 222.264 311.359 221.87 311.359 221.081C311.359 220.292 311.491 219.898 311.754 219.898C316.749 219.898 320.397 219.569 322.698 218.912C324.998 218.255 326.576 216.973 327.43 215.067C328.285 213.161 328.712 210.236 328.712 206.292V114.993C328.712 111.048 328.285 108.156 327.43 106.316C326.576 104.476 324.998 103.194 322.698 102.471C320.397 101.748 316.749 101.387 311.754 101.387C311.491 101.387 311.359 100.992 311.359 100.204C311.359 99.4151 311.491 99.0206 311.754 99.0206H391.024C392.207 99.0206 392.799 99.6122 392.799 100.795L393.193 125.05C393.193 125.444 392.864 125.674 392.207 125.74C391.55 125.806 391.155 125.641 391.024 125.247C390.63 118.279 388.526 112.857 384.714 108.979C380.901 105.101 375.84 103.162 369.53 103.162H357.502C352.901 103.162 349.516 103.523 347.346 104.246C345.177 104.969 343.666 106.218 342.811 107.993C341.957 109.767 341.529 112.429 341.529 115.979V156.008H365.587C371.896 156.008 376.399 154.957 379.094 152.854C381.789 150.75 383.137 147.201 383.137 142.205C383.137 141.942 383.531 141.811 384.32 141.811C385.109 141.811 385.503 141.942 385.503 142.205L385.305 158.177C385.305 161.99 385.371 164.882 385.503 166.854L385.7 176.319C385.7 176.582 385.306 176.713 384.517 176.713C383.728 176.713 383.334 176.582 383.334 176.319C383.334 170.535 381.921 166.394 379.095 163.896C376.268 161.398 371.569 160.15 364.996 160.15H341.53V205.504C341.53 209.184 341.924 211.879 342.713 213.589C343.502 215.297 344.948 216.481 347.051 217.138C349.155 217.795 352.441 218.124 356.911 218.124H372.686C378.996 218.124 384.255 215.889 388.461 211.419C392.668 206.95 395.494 200.771 396.94 192.883L396.94 192.882ZM467.791 205.502C467.791 209.709 468.349 212.766 469.467 214.672C470.584 216.578 472.753 217.926 475.974 218.714C479.195 219.503 484.289 219.897 491.256 219.897C491.651 219.897 491.848 220.292 491.848 221.08C491.848 221.869 491.651 222.263 491.256 222.263C485.867 222.263 481.66 222.197 478.636 222.066L461.481 221.869L448.269 222.066C445.771 222.197 442.419 222.263 438.212 222.263C437.949 222.263 437.818 221.869 437.818 221.08C437.818 220.292 437.949 219.897 438.212 219.897C443.208 219.897 446.856 219.569 449.156 218.911C451.457 218.254 453.001 216.972 453.791 215.066C454.579 213.16 454.973 210.235 454.973 206.291V114.992C454.973 111.048 454.579 108.156 453.791 106.315C453.002 104.475 451.457 103.194 449.156 102.47C446.856 101.747 443.208 101.386 438.212 101.386C437.949 101.386 437.818 100.992 437.818 100.203C437.818 99.4143 437.949 99.0198 438.212 99.0198L448.072 99.2172C453.593 99.4803 457.997 99.6114 461.284 99.6114C464.57 99.6114 468.251 99.4143 472.326 99.0198C473.904 99.0198 476.402 98.9213 479.82 98.7242C483.237 98.5267 486.195 98.4282 488.693 98.4282C500.787 98.4282 510.483 101.123 517.779 106.513C525.075 111.903 528.723 120.119 528.723 131.162C528.723 139.838 526.586 147.134 522.314 153.05C518.041 158.965 512.553 163.37 505.849 166.262C499.144 169.154 492.242 170.6 485.144 170.6C481.331 170.6 478.176 170.271 475.678 169.614C475.284 169.614 475.086 169.285 475.086 168.628C475.086 168.234 475.185 167.839 475.382 167.445C475.58 167.051 475.81 166.92 476.073 167.051C478.176 167.577 480.542 167.839 483.171 167.839C491.847 167.839 499.177 165.013 505.158 159.36C511.139 153.707 514.13 145.557 514.13 134.909C514.13 124.523 511.303 116.34 505.651 110.358C499.998 104.377 492.768 101.386 483.96 101.386C479.227 101.386 475.809 101.649 473.706 102.175C471.602 102.7 470.091 103.917 469.171 105.823C468.25 107.729 467.79 110.917 467.79 115.387L467.791 205.502Z" fill="#F2C32D"></path>
                    <path d="M209.329 62.7422H1.42805C0.958783 62.7422 0.578369 63.1226 0.578369 63.5919V65.6929C0.578369 66.1622 0.958783 66.5426 1.42805 66.5426H209.329C209.798 66.5426 210.179 66.1622 210.179 65.6929V63.5919C210.179 63.1226 209.798 62.7422 209.329 62.7422Z" fill="white"></path>
                    <path d="M563.97 62.818H356.069C355.6 62.818 355.219 63.1984 355.219 63.6677V65.7687C355.219 66.238 355.6 66.6184 356.069 66.6184H563.97C564.44 66.6184 564.82 66.238 564.82 65.7687V63.6677C564.82 63.1984 564.44 62.818 563.97 62.818Z" fill="white"></path>
                    <path d="M276.645 37.3101H252.344C251.433 37.3101 250.695 38.0485 250.695 38.9594V63.5282C250.695 64.4392 251.433 65.1776 252.344 65.1776H276.645C277.556 65.1776 278.295 64.4392 278.295 63.5282V38.9594C278.295 38.0485 277.556 37.3101 276.645 37.3101Z" stroke="white" stroke-width="2.6457" stroke-miterlimit="22.9256" stroke-linejoin="round"></path>
                    <path fill-rule="evenodd" clip-rule="evenodd" d="M287.944 1.70435H312.245C313.152 1.70435 313.895 2.44868 313.895 3.35408V63.4501C313.895 64.3555 313.151 65.0999 312.245 65.0999H287.944C287.039 65.0999 286.295 64.3574 286.295 63.4501V3.35408C286.295 2.44679 287.037 1.70435 287.944 1.70435Z" stroke="white" stroke-width="2.6457" stroke-miterlimit="22.9256" stroke-linejoin="round"></path>
                    <path fill-rule="evenodd" clip-rule="evenodd" d="M264.889 3.38633C265.172 3.55119 265.315 3.97113 265.489 4.29326L267.703 8.28057C267.722 8.31392 267.807 8.4765 267.828 8.51591C267.888 8.62241 267.94 8.69933 267.986 8.78006C268.086 8.95856 268.173 9.11773 268.268 9.29017C268.389 9.51036 268.411 9.58121 268.525 9.77563C268.643 9.97839 268.682 10.0819 268.795 10.2948C268.971 10.6265 269.168 10.9778 269.359 11.3117L270.474 13.2922C271.08 14.4209 272.036 16.2847 272.666 17.3152C272.874 17.6563 273.017 17.8897 273.212 18.2824L273.775 19.2965C274.255 20.2914 274.866 21.3154 275.417 22.2807L277.076 25.3155C277.276 25.6832 277.599 26.2278 277.187 26.6522C277.178 26.661 277.166 26.6735 277.156 26.6818C277.149 26.6894 277.136 26.7011 277.128 26.7083C277.119 26.7151 277.106 26.7265 277.097 26.733C276.866 26.8997 276.512 26.8641 276.223 26.8637L258.1 26.8634C257.191 26.8634 252.65 26.9698 252.163 26.8106C251.207 26.4976 251.91 25.4103 252.288 24.7839L252.741 23.9827C252.771 23.9285 252.781 23.9065 252.818 23.8307L253.296 22.9602C253.341 22.8776 253.344 22.8719 253.38 22.8071L254.199 21.3104C254.235 21.2449 254.225 21.2646 254.272 21.185L254.561 20.6764C254.589 20.6271 254.605 20.5927 254.623 20.5582L255.121 19.6475C255.128 19.6357 255.136 19.6206 255.143 19.6092C255.149 19.5978 255.159 19.583 255.165 19.572L257.08 16.0763C257.197 15.8655 257.037 16.143 257.151 15.9603L257.607 15.1409C257.613 15.1299 257.621 15.114 257.628 15.1027L258.176 14.087C258.183 14.0756 258.249 13.9615 258.249 13.9608L259.809 11.1411C259.818 11.1252 259.844 11.0835 259.852 11.0684L262.296 6.62817C262.305 6.61187 262.33 6.563 262.338 6.54708C262.422 6.39018 262.323 6.56791 262.401 6.42768L262.749 5.80617C262.817 5.67656 262.812 5.67274 262.877 5.56397L263.857 3.77556C264.02 3.47768 264.372 3.08428 264.889 3.38596L264.889 3.38633ZM279.647 26.5238V25.6821C279.639 25.6654 279.63 25.6445 279.626 25.6312C279.421 25.0309 279.48 24.921 279.109 24.2821L277.938 22.184C277.932 22.1711 277.926 22.1552 277.92 22.1423L277.673 21.7148C277.666 21.7038 277.657 21.6879 277.651 21.6769L276.668 19.8502C276.599 19.7301 276.643 19.8093 276.603 19.7384L276.442 19.4693C276.356 19.342 276.294 19.2294 276.22 19.0949L275.553 17.8757C275.503 17.7897 275.487 17.7586 275.447 17.6794L274.992 16.8543C274.945 16.7782 274.932 16.7505 274.887 16.6557L274.574 16.0539C274.566 16.038 274.515 15.9417 274.507 15.9277L274.323 15.6367C274.278 15.5612 274.239 15.4983 274.212 15.4453C274.129 15.2793 274.108 15.1917 274.011 15.0223L273.781 14.6555C273.696 14.5153 273.631 14.3962 273.561 14.2693L272.563 12.3978C272.509 12.2967 272.504 12.2883 272.452 12.2019L271.914 11.2302C271.871 11.1578 271.831 11.1074 271.792 11.0445C271.347 10.3316 271.03 9.5964 270.611 8.88391L269.516 6.87832C269.51 6.86581 269.502 6.84913 269.496 6.83587L266.669 1.87723C266.369 1.53918 265.938 1.25115 265.529 1.10335C265.474 1.08326 265.386 1.0514 265.296 1.0317C264.825 0.925201 264 0.97446 263.795 1.03207C262.711 1.33601 262.249 2.06594 261.663 3.08466C261.018 4.20607 260.49 5.20698 259.898 6.27572L253.242 18.3578C253.07 18.6882 252.94 18.8937 252.809 19.1468C252.537 19.671 252.218 20.2269 251.915 20.7757C251.739 21.0952 251.614 21.3097 251.473 21.5848L250.15 23.9701C249.991 24.2821 249.87 24.5038 249.727 24.7975C249.605 25.0503 249.552 25.4691 249.423 25.7154V26.5226L249.7 27.3928C249.865 27.7411 249.916 27.8464 250.143 28.1147C250.214 28.1993 250.207 28.2103 250.279 28.2849L250.73 28.6756C251.789 29.4711 254.179 29.1949 255.74 29.1949H273.39C274.499 29.1949 276.812 29.3374 277.674 29.0251C277.886 28.9485 278.26 28.7715 278.427 28.6252C278.533 28.532 278.6 28.4718 278.729 28.3683C279.395 27.8343 279.597 26.6234 279.647 26.5226V26.5238Z" fill="white"></path>
                </svg>