<svg version="1.1" id="Слой_1" xmlns="http://www.w3.org/2000/svg" xmlns:xlink="http://www.w3.org/1999/xlink" x="0px" y="0px" viewBox="0 0 925.5 842.1" style="enable-background:new 0 0 925.5 842.1;" xml:space="preserve">
				<g>
					<path d="M871.6,433.3v39.8c0,1.8,0.4,3.1,1.2,4c0.8,0.9,2.3,1.6,4.3,2.2v2.7h-36.6v-2.7c2-0.6,3.5-1.3,4.3-2.2
						c0.8-0.9,1.3-2.2,1.3-4v-39.8l-37.7-53c-3.2-4.5-5.8-7.6-7.6-9.2c-1.8-1.6-4.1-2.5-6.6-2.9v-2.7h46.1v2.7c-3.8,0.6-5.7,2.4-5.7,5.3
						c0,1,1.2,3.3,3.5,6.7l21,31.3l21.6-31.3c2.3-3.4,3.5-5.6,3.5-6.8c0-1.3-0.5-2.4-1.5-3.4c-1-0.9-2.4-1.5-4.2-1.8v-2.7h45.1v2.7
						c-2.6,0.3-4.8,1.3-6.6,2.9c-1.8,1.6-4.4,4.6-7.6,9.2L871.6,433.3z M742.2,384.7v88.4c0,1.8,0.4,3.1,1.2,4c0.8,0.9,2.2,1.6,4.3,2.2
						v2.7h-36.4v-2.7c2.1-0.6,3.5-1.3,4.3-2.2c0.8-0.9,1.2-2.2,1.2-4v-88.4h-36.2c-1.7,0-3,0.4-3.9,1.2c-0.9,0.8-1.6,2.2-2.2,4.2h-2.7
						V360h2.7c0.6,2.1,1.4,3.6,2.3,4.3c0.9,0.8,2.2,1.2,3.9,1.2h97.8c1.8,0,3.1-0.4,4-1.2c0.9-0.8,1.6-2.2,2.2-4.3h2.7v30.1h-2.7
						c-0.6-2-1.3-3.5-2.2-4.2c-0.9-0.8-2.2-1.2-4-1.2H742.2z M629.2,473.1v-98.7c0-1.7-0.4-3-1.2-3.9c-0.8-0.9-2.2-1.6-4.3-2.2v-2.7
						h36.4v2.7c-2,0.5-3.5,1.2-4.3,2.2c-0.8,0.9-1.2,2.2-1.2,4v98.7c0,1.8,0.4,3.1,1.3,4.1c0.8,1,2.2,1.7,4.2,2.2v2.7h-36.4v-2.7
						c2.1-0.6,3.5-1.3,4.3-2.2C628.8,476.2,629.2,474.9,629.2,473.1z M513.2,415.3h39.3c5.8,0,9.9-0.2,12.3-0.5c2.4-0.3,4.6-1,6.6-2.1
						c4.3-2.3,6.5-6.5,6.5-12.7c0-6.1-2.2-10.3-6.5-12.6c-2-1.1-4.2-1.9-6.5-2.2c-2.3-0.3-6.4-0.5-12.3-0.5h-39.3V415.3z M513.2,434.5
						v38.7c0,1.7,0.4,3,1.3,4c0.8,1,2.2,1.7,4.2,2.2v2.7h-36.4v-2.7c2.1-0.6,3.5-1.3,4.3-2.2c0.8-0.9,1.2-2.2,1.2-3.9v-98.7
						c0-1.8-0.4-3.1-1.2-4c-0.8-0.9-2.2-1.6-4.3-2.2v-2.7h72.9c8.9,0,15.9,0.5,21.1,1.5c5.2,1,9.8,2.8,13.6,5.4c4.5,3,7.8,7,10.1,12
						c2.1,4.9,3.1,10.1,3.1,15.7c0,19-10.6,30.2-31.7,33.4l22.7,32.2c4,5.7,6.9,9.3,8.7,10.9c1.9,1.6,4.1,2.5,6.8,2.7v2.7h-42.2v-2.7
						c2.9-0.5,4.4-1.5,4.4-3.1c0-1-1.3-3.5-4-7.4l-23.6-34.3H513.2z M396.8,383.2c-11.1,0-20.3,3.3-27.8,9.9c-8.8,7.8-13.1,18-13.1,30.6
						c0,12.6,4.4,22.9,13.1,30.6c7.4,6.6,16.7,9.9,27.9,9.9c11.2,0,20.5-3.3,27.8-9.9c4.4-3.9,7.8-8.7,10.1-14.4c2-5,3.1-10.3,3.1-15.7
						c0-13.2-4.4-23.6-13.1-31.2C417.3,386.6,408,383.3,396.8,383.2z M396.7,363.5c20.3,0,36.4,5.5,48.3,16.5
						c12.6,11.5,18.9,26.4,18.9,44.6c0,11.2-3,21.6-9,31.3c-11.8,18.9-31.1,28.4-58,28.4c-20.2,0-36.2-5.5-48.1-16.5
						c-6.4-5.9-11.2-12.9-14.5-21.1c-2.9-7.2-4.3-14.8-4.3-22.8c0-11.7,3-22.3,9-32C350.3,373.2,369.6,363.8,396.7,363.5z M280.8,473.1
						v-98.7c0-1.7-0.4-3-1.2-3.9c-0.8-0.9-2.2-1.6-4.3-2.2v-2.7h36.4v2.7c-2,0.5-3.5,1.2-4.3,2.2c-0.8,0.9-1.2,2.2-1.2,4v98.7
						c0,1.8,0.4,3.1,1.3,4.1c0.8,1,2.2,1.7,4.2,2.2v2.7h-36.4v-2.7c2.1-0.6,3.5-1.3,4.3-2.2C280.4,476.2,280.8,474.9,280.8,473.1z
						 M164.8,415.3h39.3c5.8,0,9.9-0.2,12.3-0.5c2.4-0.3,4.6-1,6.6-2.1c4.3-2.3,6.5-6.5,6.5-12.7c0-6.1-2.2-10.3-6.5-12.6
						c-2-1.1-4.2-1.9-6.5-2.2c-2.3-0.3-6.4-0.5-12.3-0.5h-39.3V415.3z M164.8,434.5v38.7c0,1.7,0.4,3,1.3,4c0.8,1,2.2,1.7,4.2,2.2v2.7
						h-36.4v-2.7c2.1-0.6,3.5-1.3,4.3-2.2c0.8-0.9,1.2-2.2,1.2-3.9v-98.7c0-1.8-0.4-3.1-1.2-4c-0.8-0.9-2.2-1.6-4.3-2.2v-2.7h72.9
						c8.9,0,15.9,0.5,21.1,1.5c5.2,1,9.8,2.8,13.6,5.4c4.5,3,7.8,7,10.1,12c2.1,4.9,3.1,10.1,3.1,15.7c0,19-10.6,30.2-31.7,33.4
						l22.7,32.2c4,5.7,6.9,9.3,8.7,10.9c1.9,1.6,4.1,2.5,6.8,2.7v2.7h-42.2v-2.7c2.9-0.5,4.4-1.5,4.4-3.1c0-1-1.3-3.5-4-7.4l-23.6-34.3
						H164.8z M30.9,415.6h38.9c7.8,0,13.2-0.8,16.3-2.5c2-1.1,3.6-2.8,4.8-5.2c1.2-2.4,1.8-5,1.8-7.8c0-2.8-0.6-5.4-1.8-7.8
						c-1.2-2.4-2.8-4.1-4.8-5.2c-3.1-1.7-8.5-2.5-16.3-2.5H30.9V415.6z M30.9,434.8v38.4c0,1.7,0.4,3,1.3,4c0.8,1,2.2,1.7,4.2,2.2v2.7H0
						v-2.7c2.1-0.6,3.5-1.3,4.3-2.2c0.8-0.9,1.2-2.2,1.2-3.9v-98.7c0-1.8-0.4-3.1-1.2-4c-0.8-0.9-2.2-1.6-4.3-2.2v-2.7h72.8
						c8.5,0,15.2,0.6,20.2,1.7c5,1.1,9.4,3.1,13.2,5.9c3.9,2.9,7,6.7,9.2,11.4c2.2,4.9,3.3,10.1,3.3,15.6c0,7.8-2.1,14.7-6.3,20.7
						c-3.6,5-8.5,8.7-14.5,10.8c-6,2.1-14.4,3.2-25.2,3.2H30.9z"></path>
					<path d="M844.3,328.1h25c-27.1-99-73.3-176.7-155.9-239.7C642.3,34.2,553.5,2,457.2,2c-96.3,0-185,32.2-256.1,86.4
						c-82.7,63-128.8,140.7-155.9,239.7h25c25.2-90.8,69.6-162.9,145.5-220.7C282.7,56.3,366.4,26,457.2,26
						c90.9,0,174.6,30.3,241.6,81.4C774.7,165.2,819.1,237.3,844.3,328.1"></path>
					<path d="M68.7,516h-25c27.1,99,73.3,176.7,155.9,239.7c71.1,54.2,159.9,86.4,256.1,86.4c96.3,0,185-32.2,256.1-86.4
						c82.7-63,128.8-140.7,155.9-239.7h-25c-25.2,90.8-69.6,162.9-145.5,220.7c-67,51.1-150.8,81.4-241.6,81.4
						c-90.9,0-174.6-30.3-241.6-81.4C138.3,678.9,94,606.8,68.7,516"></path>
				</g>
				</svg>