<svg width="239" height="86" viewBox="0 0 239 86" fill="none" xmlns="http://www.w3.org/2000/svg">
<path d="M103.356 24.4H104.652V37H103.14V27.262L98.622 34.03H97.686L93.168 27.262V37H91.656V24.4H92.952L98.154 32.176L103.356 24.4ZM107.969 24.4H116.465V25.84H109.481V29.926H115.925V31.366H109.481V35.56H116.573V37H107.969V24.4ZM119.221 39.97H117.781V35.56H119.311C120.679 33.088 121.363 29.368 121.363 24.4H129.103V35.56H130.687V39.97H129.247V37H119.221V39.97ZM122.911 25.84C122.647 30.328 122.011 33.568 121.003 35.56H127.591V25.84H122.911ZM143.406 37H141.894V28V26.92L134.316 37H132.912V24.4H134.424V33.382V34.462L142.002 24.4H143.406V37ZM158.591 39.97H157.151L157.169 37H146.711V24.4H148.223V35.56H155.513V24.4H157.025V35.56H158.591V39.97ZM171.32 37H169.808V28V26.92L162.23 37H160.826V24.4H162.338V33.382V34.462L169.916 24.4H171.32V37ZM183.607 24.4H185.119V37H183.607V31.402H176.137V37H174.625V24.4H176.137V29.962H183.607V24.4ZM187.578 30.79C187.578 29.398 187.908 28.192 188.568 27.172C189.228 26.14 190.05 25.384 191.034 24.904C192.018 24.424 193.074 24.184 194.202 24.184C195.498 24.184 196.68 24.466 197.748 25.03V26.542C196.836 25.93 195.738 25.624 194.454 25.624C193.014 25.624 191.766 26.068 190.71 26.956C189.654 27.832 189.12 29.11 189.108 30.79C189.108 31.858 189.378 32.782 189.918 33.562C190.47 34.342 191.142 34.906 191.934 35.254C192.738 35.602 193.596 35.776 194.508 35.776C195.864 35.776 196.974 35.47 197.838 34.858V36.37C196.746 36.934 195.528 37.216 194.184 37.216C193.38 37.216 192.588 37.078 191.808 36.802C191.028 36.514 190.32 36.112 189.684 35.596C189.048 35.068 188.538 34.39 188.154 33.562C187.77 32.722 187.578 31.798 187.578 30.79ZM201.783 37H200.271V24.4H201.783V29.854H204.645L208.443 24.4H210.171L205.887 30.538L210.549 37H208.821L204.699 31.294H201.783V37ZM222.736 37H221.224V28V26.92L213.646 37H212.242V24.4H213.754V33.382V34.462L221.332 24.4H222.736V37ZM235.023 37V28V26.92L227.445 37H226.041V24.4H227.553V33.382V34.462L235.131 24.4H236.535V37H235.023ZM233.799 22.42V21.016C232.995 21.544 232.155 21.808 231.279 21.808C230.403 21.808 229.563 21.544 228.759 21.016V22.42C229.467 22.924 230.307 23.176 231.279 23.176C232.251 23.176 233.091 22.924 233.799 22.42ZM103.536 62.97H102.096L102.114 60H91.656V47.4H93.168V58.56H100.458V47.4H101.97V58.56H103.536V62.97ZM105.771 47.4H114.267V48.84H107.283V52.926H113.727V54.366H107.283V58.56H114.375V60H105.771V47.4ZM125.88 47.4H127.392V60H125.88V54.402H118.41V60H116.898V47.4H118.41V52.962H125.88V47.4ZM129.293 47.4H139.661V48.84H135.233V60H133.721V48.84H129.293V47.4ZM141.56 47.4H145.862C149.426 47.4 151.208 48.756 151.208 51.468C151.208 54.18 149.426 55.536 145.862 55.536H143.072V60H141.56V47.4ZM149.678 51.468C149.678 50.952 149.582 50.52 149.39 50.172C149.198 49.812 148.922 49.542 148.562 49.362C148.214 49.17 147.83 49.038 147.41 48.966C146.99 48.882 146.498 48.84 145.934 48.84H143.072V54.096H145.934C147.098 54.096 148.01 53.904 148.67 53.52C149.342 53.136 149.678 52.452 149.678 51.468Z" fill="#313131"/>
<g filter="url(#filter0_d_1794_21)">
<path d="M60.1936 66.9626C59.8706 66.7606 59.5367 66.5518 59.1902 66.3361L59.2815 56.7798L68.4732 56.6807C72.448 61.3875 73.957 66.0379 74.6536 72.0839C71.0866 71.9236 68.7277 71.4156 66.553 70.5162C64.5562 69.6903 62.7039 68.5322 60.1936 66.9626Z" fill="#06823D" stroke="white"/>
<path d="M68.4733 24.8919L59.2815 24.8004L59.1902 15.2367C59.55 15.013 59.8963 14.7969 60.2308 14.5881C62.7224 13.0328 64.566 11.882 66.5532 11.0592C68.7279 10.1588 71.0868 9.64903 74.6536 9.48849C73.957 15.5353 72.4479 20.1928 68.4733 24.8919Z" fill="#06823D" stroke="white"/>
<path d="M26.2372 14.5881C26.5717 14.7969 26.9179 15.013 27.2777 15.2366L27.1788 24.8005L17.9868 24.8919C14.0199 20.1929 12.5111 15.5353 11.8145 9.48855C15.3813 9.64909 17.7401 10.1589 19.9149 11.0593C21.902 11.882 23.7457 13.0329 26.2372 14.5881Z" fill="#06823D" stroke="white"/>
<path d="M17.9868 56.4667L27.1788 56.5582L27.2777 66.1221C26.9271 66.3399 26.5894 66.5507 26.2628 66.7545C23.7585 68.3172 21.909 69.4714 19.9152 70.2951C17.7405 71.1936 15.3815 71.7015 11.8146 71.8619C12.5112 65.823 14.02 61.1656 17.9868 56.4667Z" fill="#06823D" stroke="white"/>
<path d="M30.642 28.6158H31.142V28.1158V9.81311C31.142 6.89081 33.5328 4.5 36.4551 4.5H50.5973C53.5196 4.5 55.9104 6.89081 55.9104 9.81311V28.1158V28.6158H56.4104H74.0553C77.0434 28.6158 79.5 31.0724 79.5 34.0604V47.9396C79.5 50.9276 77.0434 53.3842 74.0553 53.3842H56.4104H55.9104V53.8842V72.1869C55.9104 75.1092 53.5196 77.5 50.5973 77.5H36.4551C33.5328 77.5 31.142 75.1092 31.142 72.1869V53.8842V53.3842H30.642H11.9447C8.94881 53.3842 6.5 50.9281 6.5 47.9396V34.0604C6.5 31.0719 8.94881 28.6158 11.9447 28.6158H30.642Z" fill="#71B457" stroke="white"/>
<path d="M22.163 41.9866L24.5557 42.7184C24.1857 44.0751 23.5772 45.07 22.7221 45.7277C21.867 46.3855 20.7817 46.7144 19.4661 46.7144C17.8299 46.7144 16.4979 46.1553 15.4454 45.0453C14.393 43.9271 13.875 42.406 13.875 40.4737C13.875 38.4346 14.4012 36.8477 15.4537 35.7131C16.5061 34.5866 17.8957 34.0193 19.6141 34.0193C21.1106 34.0193 22.3274 34.4633 23.2648 35.3513C23.8239 35.8775 24.2432 36.634 24.5228 37.6206L22.0726 38.1962C21.9246 37.5631 21.6286 37.0615 21.1681 36.6997C20.7077 36.3297 20.1486 36.1488 19.4908 36.1488C18.5781 36.1488 17.8381 36.4695 17.2708 37.1273C16.7034 37.7768 16.4239 38.8293 16.4239 40.2928C16.4239 41.8386 16.7034 42.9404 17.2626 43.5982C17.8217 44.256 18.5452 44.5848 19.4332 44.5848C20.0992 44.5848 20.6666 44.3793 21.1352 43.96C21.6121 43.5406 21.9574 42.8828 22.163 41.9866ZM37.3083 46.5088H34.6279L33.5754 43.7133H28.6503L27.6308 46.5088H25.0079L29.7686 34.2413H32.3914L37.3083 46.5088ZM32.7697 41.6413L31.0594 37.1026L29.4068 41.6413H32.7697ZM38.6239 46.5088V34.2413H41.107V39.076H45.9417V34.2413H48.4248V46.5088H45.9417V41.148H41.107V46.5088H38.6239ZM62.0408 46.5088H59.3686L58.3079 43.7133H53.391L52.3714 46.5088H49.7486L54.5092 34.2413H57.1321L62.0408 46.5088ZM57.5021 41.6413L55.8001 37.1026L54.1474 41.6413H57.5021ZM70.781 41.9866L73.1819 42.7184C72.8119 44.0751 72.1952 45.07 71.3401 45.7277C70.485 46.3855 69.3997 46.7144 68.0841 46.7144C66.4561 46.7144 65.1159 46.1553 64.0634 45.0453C63.0192 43.9271 62.493 42.406 62.493 40.4737C62.493 38.4346 63.0192 36.8477 64.0717 35.7131C65.1241 34.5866 66.5137 34.0193 68.2321 34.0193C69.7368 34.0193 70.9537 34.4633 71.891 35.3513C72.4501 35.8775 72.8694 36.634 73.149 37.6206L70.6988 38.1962C70.5508 37.5631 70.2466 37.0615 69.7861 36.6997C69.3257 36.3297 68.7666 36.1488 68.1088 36.1488C67.1961 36.1488 66.4643 36.4695 65.897 37.1273C65.3297 37.7768 65.0419 38.8293 65.0419 40.2928C65.0419 41.8386 65.3214 42.9404 65.8806 43.5982C66.4397 44.256 67.1632 44.5848 68.0594 44.5848C68.7172 44.5848 69.2846 44.3793 69.7614 43.96C70.2301 43.5406 70.5754 42.8828 70.781 41.9866Z" fill="#FEFEFE"/>
</g>
<defs>
<filter id="filter0_d_1794_21" x="0" y="0" width="86" height="86" filterUnits="userSpaceOnUse" color-interpolation-filters="sRGB">
<feFlood flood-opacity="0" result="BackgroundImageFix"/>
<feColorMatrix in="SourceAlpha" type="matrix" values="0 0 0 0 0 0 0 0 0 0 0 0 0 0 0 0 0 0 127 0" result="hardAlpha"/>
<feOffset dy="2"/>
<feGaussianBlur stdDeviation="3"/>
<feComposite in2="hardAlpha" operator="out"/>
<feColorMatrix type="matrix" values="0 0 0 0 0 0 0 0 0 0 0 0 0 0 0 0 0 0 0.25 0"/>
<feBlend mode="normal" in2="BackgroundImageFix" result="effect1_dropShadow_1794_21"/>
<feBlend mode="normal" in="SourceGraphic" in2="effect1_dropShadow_1794_21" result="shape"/>
</filter>
</defs>
</svg>
