<svg width="162" height="36" viewBox="0 0 162 36" fill="none" xmlns="http://www.w3.org/2000/svg">
<path d="M161.809 0.125H35.7891V35.875H161.809V0.125Z" fill="white"/>
<path d="M41.9766 4.875H53.9766V8.405H49.9166V29.575H46.0366V8.405H41.9766V4.875Z" fill="#13100D"/>
<path d="M62.1418 4.87474C62.9352 4.81154 63.733 4.91698 64.4827 5.18413C65.2325 5.45127 65.9172 5.87406 66.4918 6.42473C67.5302 7.708 68.0415 9.3383 67.9219 10.9847V14.1647C68.042 15.8082 67.5305 17.4355 66.4918 18.7147C65.9172 19.2654 65.2325 19.6882 64.4827 19.9554C63.733 20.2225 62.9352 20.3279 62.1418 20.2647H60.3018V29.5447H56.4219V4.84473L62.1418 4.87474ZM60.3018 8.40474V16.7647H62.1418C62.3977 16.7819 62.6544 16.7474 62.8967 16.6632C63.1389 16.579 63.3617 16.4469 63.5518 16.2747C63.9419 15.7454 64.1171 15.088 64.0419 14.4347V10.7347C64.1151 10.0817 63.9401 9.4249 63.5518 8.89473C63.3617 8.72258 63.1389 8.59047 62.8967 8.50629C62.6544 8.4221 62.3977 8.38757 62.1418 8.40474H60.3018Z" fill="#13100D"/>
<path d="M82.2362 29.575H78.3262L77.6562 25.095H72.8862L72.2162 29.575H68.6562L72.6562 4.875H78.3362L82.2362 29.575ZM73.3862 21.745H77.1362L75.2662 9.25499L73.3862 21.745Z" fill="#13100D"/>
<path d="M89.3018 29.575H85.4219V4.875H89.3018V15.465H93.7119V4.875H97.6619V29.575H93.7119V18.995H89.3018V29.575Z" fill="#13100D"/>
<path d="M113.142 20.3654V23.6454C113.253 25.3127 112.728 26.9602 111.672 28.2554C110.469 29.2881 108.937 29.856 107.352 29.856C105.767 29.856 104.234 29.2881 103.032 28.2554C101.976 26.9602 101.45 25.3127 101.562 23.6454V10.8054C101.451 9.13813 101.977 7.491 103.032 6.19536C104.234 5.16257 105.767 4.59473 107.352 4.59473C108.937 4.59473 110.469 5.16257 111.672 6.19536C112.727 7.491 113.252 9.13813 113.142 10.8054V13.1654H109.472V10.5154C109.541 9.83783 109.344 9.15993 108.922 8.62537C108.727 8.44234 108.497 8.30024 108.246 8.20749C107.995 8.11474 107.729 8.07321 107.462 8.08536C107.193 8.07185 106.924 8.1127 106.672 8.20549C106.419 8.29828 106.188 8.4411 105.992 8.62537C105.578 9.16378 105.385 9.83962 105.452 10.5154V23.8554C105.38 24.5253 105.574 25.1964 105.992 25.7254C106.188 25.9078 106.42 26.0488 106.673 26.1399C106.925 26.2309 107.194 26.2702 107.462 26.2554C107.728 26.2688 107.994 26.2289 108.245 26.1379C108.496 26.0469 108.726 25.9066 108.922 25.7254C109.132 25.4655 109.289 25.1664 109.384 24.8455C109.478 24.5245 109.508 24.1879 109.472 23.8554V20.3654H113.142Z" fill="#13100D"/>
<path d="M120.88 29.575H117V4.875H127.27V8.405H120.88V29.575Z" fill="#13100D"/>
<path d="M140.853 29.575H136.933L136.263 25.095H131.503L130.833 29.575H127.273L131.273 4.875H136.953L140.853 29.575ZM131.993 21.745H135.733L133.863 9.25499L131.993 21.745Z" fill="#13100D"/>
<path d="M151.371 10.9451C151.455 10.1571 151.26 9.36451 150.821 8.70508C150.631 8.50911 150.402 8.35596 150.149 8.25592C149.895 8.15588 149.623 8.11128 149.351 8.12509C149.084 8.11294 148.817 8.15446 148.566 8.24721C148.315 8.33996 148.086 8.48205 147.891 8.66508C147.469 9.19965 147.272 9.87754 147.341 10.5551V13.1651H143.671V10.7651C143.563 9.10124 144.088 7.45814 145.141 6.16508C146.343 5.1323 147.876 4.56445 149.461 4.56445C151.046 4.56445 152.579 5.1323 153.781 6.16508C154.836 7.46073 155.361 9.10786 155.251 10.7751V11.4051C155.251 14.0451 154.341 15.7351 152.531 16.4951C153.454 16.8533 154.205 17.5509 154.631 18.4451C155.069 19.4642 155.281 20.5662 155.251 21.6751V23.6151C155.362 25.2824 154.837 26.9299 153.781 28.2251C152.579 29.2579 151.046 29.8257 149.461 29.8257C147.876 29.8257 146.343 29.2579 145.141 28.2251C144.085 26.9299 143.56 25.2824 143.671 23.6151V20.5151H147.341V23.8651C147.272 24.5426 147.469 25.2205 147.891 25.7551C148.086 25.9381 148.315 26.0802 148.566 26.173C148.817 26.2657 149.084 26.3072 149.351 26.2951C149.621 26.3096 149.892 26.2672 150.145 26.1708C150.398 26.0743 150.629 25.9259 150.821 25.7351C151.262 25.084 151.457 24.2969 151.371 23.5151V21.5751C151.453 20.7172 151.242 19.8569 150.771 19.1351C150.512 18.875 150.198 18.6768 149.851 18.5556C149.505 18.4344 149.135 18.3932 148.771 18.4351H148.171V14.9051H148.991C149.613 14.9424 150.226 14.7382 150.701 14.3351C150.932 14.0598 151.106 13.7411 151.213 13.3976C151.319 13.0542 151.356 12.6929 151.321 12.3351L151.371 10.9451Z" fill="#13100D"/>
<path d="M0 0.165039V35.915H35.79V0.165039H0ZM9.58002 5.49504H26.38V8.57504L20.59 9.34503V11.165H15.44V9.30504L9.64001 8.53503L9.58002 5.49504ZM20.58 11.855V13.855L18.85 17.535H17.04L15.44 13.855V11.855H20.58ZM8.34003 27.355H4.75V16.555H8.34003V27.355ZM13.62 30.515H9.84003L8.97003 27.325V16.515L9.84003 13.335H13.6L13.62 30.515ZM21.62 29.005H14.25V14.895H15.25L16.66 18.115H19.14L20.65 14.895H21.65L21.62 29.005ZM26.91 27.325L26.04 30.515H22.28V13.335H26.04L26.91 16.515V27.325ZM30.91 27.325H27.52V16.525H30.91V27.325Z" fill="#13100D"/>
<g style="mix-blend-mode:multiply">
<g style="mix-blend-mode:multiply">
<path d="M9.59375 5.44531H26.3937V8.53531L20.5938 9.29531H20.5637V11.1653H15.4137V9.29531H15.3837L9.59375 8.53531V5.44531Z" fill="#F6C900"/>
</g>
<g style="mix-blend-mode:multiply">
<path d="M20.5641 11.8057V13.8357L18.8241 17.5157H17.0241L15.4141 13.8357V11.8057H20.5641Z" fill="#F6C900"/>
</g>
<g style="mix-blend-mode:multiply">
<path d="M8.32219 16.5156H4.74219V27.3156H8.32219V16.5156Z" fill="#F6C900"/>
</g>
<g style="mix-blend-mode:multiply">
<path d="M13.6087 30.4652H9.84875L8.96875 27.2852V16.5152L9.84875 13.3252H13.6087V30.4652Z" fill="#F6C900"/>
</g>
<g style="mix-blend-mode:multiply">
<path d="M21.6434 28.9655H14.2734V14.8955H15.2634L16.6634 18.1155H19.1734L20.6934 14.8955H21.6434V28.9655Z" fill="#F6C900"/>
</g>
<g style="mix-blend-mode:multiply">
<path d="M26.9191 27.2852L26.0491 30.4652H22.2891V13.3252H26.0491L26.9191 16.5152V27.2852Z" fill="#F6C900"/>
</g>
<g style="mix-blend-mode:multiply">
<path d="M30.9759 16.5156H27.5859V27.3156H30.9759V16.5156Z" fill="#F6C900"/>
</g>
</g>
</svg>
