<svg viewBox="0 0 162 115" fill="none" xmlns="http://www.w3.org/2000/svg" style="max-height: 90%; width: auto;">
    <g clip-path="url(#clip0_0_530)">
        <path d="M48.1443 84.4478C47.8141 85.2413 47.2858 85.9026 46.6914 86.4317C46.031 86.9607 45.3045 87.4236 44.446 87.7543C43.5874 88.0849 42.5968 88.2172 41.5402 88.2172H36.9833V91.9866C36.9833 92.5156 37.1154 92.9124 37.3135 93.2431C37.5116 93.5737 37.8418 93.706 38.172 93.706H38.4362V94.1028H34.1435V93.706H34.4077C34.7379 93.706 35.0681 93.5737 35.2662 93.2431C35.4643 92.9124 35.5964 92.5156 35.5964 91.9866V77.5703C35.5964 77.0412 35.4643 76.6444 35.2662 76.3799C35.0681 76.0493 34.7379 75.917 34.4077 75.917H34.1435V75.4541H42.7289C43.6535 75.4541 44.446 75.5864 45.1724 75.917C45.8989 76.2477 46.5593 76.6444 47.0876 77.2396C47.616 77.7687 48.0122 78.4961 48.3424 79.2896C48.6066 80.0832 48.8047 80.9429 48.8047 81.9348C48.6726 82.7945 48.5406 83.6542 48.1443 84.4478ZM43.8516 87.4236C44.512 87.1591 45.1064 86.6962 45.6347 86.1672C46.097 85.6381 46.4933 84.9768 46.7574 84.2494C47.0216 83.522 47.1537 82.7284 47.1537 81.8026C47.1537 80.8768 47.0216 80.0832 46.8235 79.3558C46.6254 78.6283 46.2951 77.967 45.8989 77.438C45.5026 76.909 45.0404 76.5122 44.446 76.1815C43.9176 75.917 43.2572 75.7186 42.5968 75.7186H36.9833V87.8204H41.5402C42.3987 87.8865 43.1251 87.6881 43.8516 87.4236Z" fill="#549F40"></path>
        <path d="M89.6845 93.2433C89.8826 93.5739 90.1468 93.7062 90.543 93.7062H90.8072V94.103H86.5805V93.7062C87.0428 93.7062 87.373 93.5739 87.6372 93.3094C87.9013 93.0449 87.9674 92.582 87.9674 91.9868V77.5705C87.9674 77.0414 87.8353 76.6447 87.6372 76.314C87.439 75.9834 87.1749 75.8511 86.7786 75.8511H86.5805V75.3882H90.8072V75.8511C90.3449 75.8511 90.0147 75.9834 89.7505 76.2479C89.4863 76.5124 89.4203 76.9092 89.4203 77.5043V84.0512V91.9207C89.4203 92.5158 89.4863 92.9788 89.6845 93.2433ZM89.2882 85.6383L97.4774 77.1076C98.0717 76.5785 98.3359 76.1817 98.3359 75.9834C98.3359 75.9834 98.3359 75.9172 98.2699 75.9172C98.2038 75.9172 98.1378 75.8511 98.0057 75.8511V75.3882H100.779V75.8511C99.8549 75.8511 98.9303 76.1817 97.6094 77.306L97.4113 77.5043L89.2222 86.498" fill="#549F40"></path>
        <path d="M90.6751 84.5142L97.5434 92.053L97.7415 92.2514C99.0623 93.3756 99.9869 93.7062 100.912 93.7062V94.1691H98.1378V93.7062C98.2698 93.7062 98.3359 93.7062 98.4019 93.6401C98.468 93.6401 98.468 93.574 98.468 93.574C98.468 93.3756 98.2038 92.9788 97.6094 92.4498L90.4109 84.9771" fill="#549F40"></path>
        <path d="M80.3726 87.0932C80.967 86.6964 81.4953 86.2996 81.9576 85.7706C82.4199 85.2415 82.7501 84.6464 82.9482 83.9851C83.2124 83.3238 83.2784 82.5963 83.2784 81.8028C83.2784 80.877 83.1463 80.0173 82.8161 79.2237C82.552 78.4302 82.0897 77.7689 81.5613 77.1737C81.033 76.6447 80.3726 76.1817 79.6461 75.8511C78.9197 75.5204 78.0611 75.3882 77.2026 75.3882H68.6172V75.785H68.8153C69.2116 75.785 69.4757 75.9172 69.6739 76.2479C69.872 76.5785 70.0041 76.9753 70.0041 77.5043V91.9207C70.0041 92.4497 69.872 92.8465 69.6739 93.111C69.4757 93.4417 69.1455 93.5739 68.8153 93.5739H68.6832V94.0368H72.9759V93.5739H72.7118C72.3816 93.5739 72.0514 93.4417 71.8532 93.111C71.6551 92.7804 71.523 92.3836 71.523 91.9207V88.0851H76.0799H76.4101C76.5422 88.0851 76.6082 88.0851 76.7403 88.0851C77.0705 88.0851 77.7309 87.9529 78.3253 87.8206C79.1178 87.7545 79.7782 87.49 80.3726 87.0932ZM76.0799 87.8206H71.523V75.785H77.2026C77.863 75.785 78.4574 75.9172 79.0518 76.2479C79.5801 76.5124 80.1084 76.9753 80.5047 77.5043C80.9009 78.0334 81.2311 78.6947 81.4293 79.4221C81.6274 80.1495 81.7595 81.0092 81.7595 81.8689C81.7595 82.7286 81.6274 83.5883 81.3632 84.3157C81.099 85.0432 80.7028 85.7045 80.2405 86.2335C79.7122 86.7625 79.1178 87.1593 78.4574 87.49C77.7309 87.6884 76.9384 87.8206 76.0799 87.8206Z" fill="#549F40"></path>
        <path d="M65.5793 93.2433C65.2491 92.9788 64.9849 92.5158 64.7868 91.9868L57.6543 75.3882H57.2581L50.3898 92.1191C50.1256 92.6481 49.8614 93.0449 49.5973 93.3094C49.3331 93.5739 48.9368 93.7062 48.4745 93.7062V94.1691H52.1729V93.7062H51.9087C51.5785 93.7062 51.2483 93.5739 51.0502 93.3755C50.852 93.1771 50.786 92.9126 50.786 92.5158C50.786 92.3836 50.786 92.2513 50.852 92.1191C50.852 91.9868 50.9181 91.7884 51.0502 91.5239C51.1823 91.2594 51.3143 90.9287 51.5125 90.3997C51.6445 90.1352 51.7766 89.8045 51.9087 89.4077L51.9747 89.3416C52.0408 89.2093 52.1068 89.011 52.1729 88.8787L52.8333 87.3577L57.06 77.1076L62.7395 90.2674L63.3999 91.7884C63.466 91.9207 63.466 91.9868 63.532 92.0529C63.5981 92.1852 63.5981 92.3175 63.6641 92.4497C63.6641 92.582 63.7302 92.6481 63.7302 92.7804C63.7302 93.0449 63.6641 93.3094 63.466 93.4417C63.2679 93.5739 63.0697 93.7062 62.7395 93.7062H62.4754V94.1691H66.9002V93.7062C66.2397 93.7062 65.8435 93.5078 65.5793 93.2433Z" fill="#549F40"></path>
        <path d="M62.013 86.4318L61.4847 85.3076C58.3147 85.4399 55.2768 86.035 52.5031 86.9609L52.2389 87.556C55.2768 86.7625 58.5789 86.3657 62.013 86.4318Z" fill="#549F40"></path>
        <path d="M84.9295 93.9708L85.3918 93.3756L85.1937 93.2434C85.1937 93.2434 84.8634 93.7724 84.203 93.3095C81.6274 91.0611 78.6555 89.2095 75.2214 87.8207H71.457V86.5643C71.2589 86.4981 71.0608 86.432 70.7966 86.3659C70.5324 86.2997 70.2683 86.2336 69.938 86.1675V87.4901C70.1362 87.5562 70.2683 87.5562 70.4664 87.6223C75.5516 88.9449 80.0424 91.1934 83.7407 94.0369L83.8068 94.1031H84.7314L84.9295 93.9708Z" fill="#549F40"></path>
        <path d="M39.4929 46.1586C40.9153 46.1586 42.0685 45.0039 42.0685 43.5796C42.0685 42.1552 40.9153 41.0005 39.4929 41.0005C38.0704 41.0005 36.9172 42.1552 36.9172 43.5796C36.9172 45.0039 38.0704 46.1586 39.4929 46.1586Z" fill="#513938"></path>
        <path d="M145.886 73.0737C145.556 72.6108 145.159 72.214 144.763 71.8834C144.697 71.8173 144.697 71.8173 144.631 71.7511C143.442 70.2963 141.857 69.1721 140.14 68.5108C138.819 67.9817 137.433 67.6511 136.112 67.5188C136.31 66.4607 136.508 65.4027 136.706 64.3446C136.97 62.6913 137.234 61.1042 137.366 59.451C137.499 57.7977 137.631 56.1445 137.631 54.4251C137.631 54.0944 137.499 53.7638 137.3 53.4993L137.433 53.3009C137.234 53.1686 137.102 53.1025 136.904 53.0364C136.706 52.9702 136.508 52.9702 136.442 52.9702C136.31 52.9702 136.178 52.9702 136.046 52.9702C135.914 52.9702 135.914 53.0364 135.781 53.0364C135.583 53.1025 135.517 53.1025 135.385 53.1686C135.253 53.2347 135.187 53.3009 135.121 53.3009C134.791 53.4993 134.593 53.6977 134.395 53.896C133.998 54.2928 133.602 54.6235 133.272 55.0203C132.545 55.7477 131.885 56.5412 131.225 57.2687C129.904 58.7235 128.583 60.1784 127.064 61.3687C126.338 61.9639 125.479 62.4929 124.62 62.7575C124.158 62.8897 123.762 62.9558 123.366 62.8897C123.234 62.8897 123.102 62.8236 122.969 62.7575C124.026 61.1703 124.819 59.7816 125.743 58.3929C126.668 57.0042 127.592 55.6154 128.715 54.2928C128.979 53.9622 129.309 53.6977 129.574 53.367L130.036 52.9041C130.168 52.7718 130.366 52.5734 130.498 52.4412C131.093 51.846 131.753 51.317 132.347 50.9863C132.611 50.8541 132.876 50.7218 132.81 50.6557V50.5895C132.81 50.5895 132.81 50.5234 132.876 50.5234C132.876 50.5234 132.942 50.5234 133.008 50.5895C133.074 50.6557 133.074 50.6557 133.14 50.7218C133.338 50.9863 133.404 51.4492 133.536 51.9121C133.602 52.3751 133.668 52.838 133.668 53.367L133.998 53.4993C134.329 53.1025 134.593 52.6396 134.791 52.1105C134.989 51.5815 135.187 51.0525 135.121 50.3912C135.121 50.1928 135.055 50.0605 135.055 49.8621C135.055 49.6637 134.923 49.4653 134.857 49.2669C134.725 49.0686 134.593 48.8702 134.461 48.6718C134.263 48.5395 134.064 48.3411 133.866 48.2089C133.668 48.1427 133.404 48.0105 133.206 47.9443C133.008 47.8782 132.81 47.8782 132.611 47.8782C132.413 47.8782 132.215 47.8782 132.083 47.8782C131.885 47.8782 131.753 47.8782 131.555 47.9443C130.3 48.1427 129.243 48.6056 128.253 49.1347C127.262 49.6637 126.404 50.325 125.611 51.0525C123.96 52.5073 122.573 54.2267 121.781 56.2767C121.781 56.3428 121.781 56.3429 121.715 56.409C120.724 56.938 119.799 57.5332 118.809 58.0622C117.092 58.9881 115.375 59.9139 113.658 60.7074L112.997 61.0381L112.667 61.1703L112.469 61.2365C112.469 61.2365 112.469 61.2365 112.403 61.2365C112.337 60.9719 112.205 60.5752 112.205 60.1784C112.139 59.3187 112.073 58.3929 112.139 57.4671L112.205 56.0122V55.2186V55.0203C112.205 54.888 112.205 54.7557 112.205 54.6235C112.205 54.4912 112.139 54.2928 112.073 54.0944C111.94 53.8299 111.874 53.5654 111.478 53.3009C111.28 53.1686 111.148 53.1025 110.95 53.0364C110.752 52.9702 110.554 52.9702 110.488 52.9702C110.355 52.9702 110.223 52.9702 110.091 52.9702C109.959 52.9702 109.959 53.0364 109.827 53.0364C109.629 53.1025 109.563 53.1025 109.431 53.1686C109.299 53.2347 109.233 53.3009 109.167 53.3009C108.837 53.4993 108.638 53.6977 108.44 53.896C108.044 54.2928 107.648 54.6235 107.318 55.0203C106.591 55.7477 105.931 56.5412 105.27 57.2687C103.949 58.7235 102.629 60.1784 101.11 61.3687C100.383 61.9639 99.5247 62.4929 98.6661 62.7575C98.2038 62.8897 97.8076 62.9558 97.4113 62.8897C97.2792 62.8897 97.1472 62.8236 97.0151 62.7575C98.0717 61.1703 98.8643 59.7816 99.7888 58.3929C100.713 57.0042 101.638 55.6154 102.761 54.2928C102.893 54.0944 103.025 53.9622 103.157 53.8299L103.553 53.367L104.015 52.9041C104.148 52.7718 104.346 52.5734 104.478 52.4412C105.072 51.846 105.733 51.317 106.327 50.9863C106.591 50.8541 106.855 50.7218 106.789 50.6557V50.5895C106.789 50.5895 106.789 50.5234 106.855 50.5234C106.855 50.5234 106.921 50.5234 106.987 50.5895C107.053 50.6557 107.053 50.6557 107.119 50.7218C107.318 50.9863 107.384 51.4492 107.516 51.9121C107.582 52.3751 107.648 52.838 107.648 53.367L107.978 53.4993C108.308 53.1025 108.572 52.6396 108.77 52.1105C108.969 51.5815 109.167 51.0525 109.101 50.3912C109.101 50.1928 109.035 50.0605 109.035 49.8621C109.035 49.6637 108.903 49.4653 108.837 49.2669C108.704 49.0686 108.572 48.8702 108.44 48.6718C108.242 48.5395 108.044 48.3411 107.846 48.2089C107.648 48.1427 107.384 48.0105 107.185 47.9443C106.987 47.8782 106.789 47.8782 106.591 47.8782C106.393 47.8782 106.195 47.8782 106.063 47.8782C105.865 47.8782 105.667 47.8782 105.534 47.9443C104.28 48.1427 103.223 48.6056 102.232 49.1347C101.242 49.6637 100.383 50.325 99.5907 51.0525C97.9397 52.5073 96.5528 54.2267 95.7603 56.2767C95.6943 56.4751 95.5622 56.7396 95.4961 57.0042C95.298 57.2025 95.0999 57.3348 94.8357 57.5332C93.3828 58.6574 91.9299 59.7155 90.4109 60.7074C88.892 61.6994 87.373 62.5591 85.722 63.2204C84.9295 63.551 84.137 63.8155 83.2784 64.0139C82.4859 64.2123 81.6934 64.2123 81.033 64.0801C80.3726 63.9478 79.9103 63.551 79.5141 63.022C79.1839 62.4929 78.9197 61.7655 78.7876 60.9719C78.5234 59.3848 78.6555 57.6655 78.9197 55.9461C79.0518 54.7557 79.2499 53.5654 79.5141 52.4412C80.8349 51.0525 82.0897 49.5976 83.2124 48.0766C85.4578 45.1669 87.1088 41.8604 88.7599 38.62C92.062 32.1393 94.8357 25.3279 97.1472 18.3843C98.2699 14.8794 99.3265 11.3745 99.9209 7.6712C100.053 6.74538 100.185 5.81956 100.185 4.82762C100.185 4.36471 100.185 3.83567 100.119 3.30663C100.053 2.77759 99.9209 2.18242 99.5247 1.52112C99.3265 1.19047 98.9303 0.793688 98.468 0.595298C98.3359 0.529168 98.2038 0.529168 98.1378 0.463038C98.0057 0.463038 97.8736 0.396908 97.7415 0.396908C97.4774 0.396908 97.2132 0.396908 97.0151 0.463038C96.2226 0.727558 95.7603 1.05821 95.364 1.45499C94.5715 2.18242 93.9772 2.97598 93.3828 3.70341C92.2601 5.2244 91.2695 6.87764 90.3449 8.46476C89.4203 10.0519 88.4957 11.7051 87.6372 13.3584C85.9201 16.6649 84.3351 19.9714 83.0143 23.4101C81.6274 26.8489 80.5047 30.3538 79.448 33.8587C78.4574 37.4297 77.5989 41.0007 76.9384 44.6378C76.4101 47.8121 76.0139 50.9863 75.8157 54.2267C75.4855 54.5573 75.1553 54.888 74.7591 55.1525C72.0514 57.4671 69.0795 59.5832 65.9095 61.2365C64.3245 62.0962 62.6735 62.7575 61.0224 63.2204C60.1639 63.4188 59.3053 63.6171 58.5128 63.551C58.1166 63.551 57.7203 63.4849 57.3901 63.3526C57.192 63.2865 57.0599 63.1542 56.9278 63.0881C56.5976 62.6252 56.3995 62.0962 56.2674 61.501C56.0693 60.7074 56.0033 59.7816 56.0033 58.8558C56.0033 57.93 56.0693 57.0042 56.2014 56.0783C56.2674 55.3509 56.3995 54.6235 56.5316 53.896C56.5976 53.8299 56.7297 53.6977 56.7958 53.6315L57.4562 51.7799C58.5128 50.6557 59.5695 49.4653 60.4941 48.2089C62.9376 45.0346 64.8528 41.5297 66.636 38.0249C68.4191 34.4538 70.0041 30.8828 71.523 27.1795C73.042 23.4763 74.3628 19.773 75.5516 15.9374C76.1459 14.0197 76.6743 12.1019 77.0705 10.118C77.2687 9.12606 77.4668 8.13411 77.5989 7.14216C77.7309 6.15022 77.863 5.09214 77.797 3.96793C77.797 3.37276 77.7309 2.77759 77.4668 2.11629C77.3347 1.78564 77.1366 1.38886 76.7403 0.992078C76.5422 0.793688 76.278 0.595298 76.0139 0.463038C75.7497 0.330778 75.4195 0.264648 75.1553 0.264648C74.5609 0.264648 74.0326 0.396908 73.7024 0.595298C73.3722 0.793688 73.108 0.992078 72.8439 1.19047C72.3816 1.58725 71.9853 1.98403 71.5891 2.38081C70.1362 4.03406 69.0795 5.75344 67.9568 7.47281C65.8435 10.9116 64.0603 14.5487 62.4093 18.1859C60.8243 21.823 59.4374 25.5924 58.2487 29.428C57.0599 33.2635 56.0033 37.099 55.2108 41.0668C54.4183 44.9685 53.7578 48.9363 53.4937 52.9702C53.4937 53.4331 53.4276 53.896 53.4276 54.2928L53.4937 55.6154C53.4937 55.6816 53.4937 55.6816 53.4937 55.7477C49.5312 59.7155 43.6535 64.6091 39.0306 63.6171C38.7004 63.1542 38.5022 62.6252 38.3702 62.03C38.172 61.2365 38.106 60.3107 38.106 59.3848C38.106 58.459 38.172 57.5332 38.3041 56.6074C38.4362 55.6816 38.5683 54.6896 38.7004 53.7638C38.7664 53.4993 38.8324 53.2347 38.8324 52.9702L39.2287 50.9202C39.2947 50.5895 39.3608 50.2589 39.4268 49.9282C39.6249 49.0024 39.0306 48.0105 38.106 47.8121H37.9739C37.0493 47.6137 36.1247 48.2089 35.9927 49.1347C35.7945 50.5234 35.6625 51.9783 35.5304 53.367L35.3322 56.2767C35.2662 57.3348 35.2662 58.3929 35.3322 59.5171C35.3983 60.5752 35.5964 61.6333 35.9266 62.6913C36.1908 63.551 36.6531 64.543 37.3795 65.2704C37.3795 65.2704 37.4456 65.3365 37.5116 65.4027C37.5777 65.4688 37.7097 65.6011 37.7758 65.6672H37.8418C39.1627 66.3946 43.3233 66.8575 53.2295 57.0703C53.2295 57.6655 53.2295 58.2606 53.2956 58.8558C53.3616 59.9139 53.5597 60.972 53.8899 62.03C54.2201 63.0881 54.8145 64.2123 55.8051 65.072C56.3335 65.4688 56.9278 65.7333 57.5222 65.9317C58.1166 66.064 58.711 66.1301 59.3053 66.064C60.4281 65.9978 61.4847 65.6672 62.4093 65.2704C64.3245 64.4768 66.0416 63.3526 67.6266 62.1623C68.8814 61.2365 70.0041 60.3106 71.1928 59.3187C72.6457 58.2606 74.0987 57.1364 75.4855 56.0122C75.5516 55.9461 75.5516 55.9461 75.6176 55.8799C75.5516 57.6655 75.6176 59.5171 76.0799 61.4349C76.3441 62.4268 76.7403 63.4849 77.4668 64.4107C78.1932 65.3365 79.382 65.9978 80.5047 66.1301C81.6274 66.2623 82.6841 66.1301 83.6086 65.7994C84.5332 65.5349 85.4578 65.1381 86.3163 64.6752C87.9674 63.8155 89.5524 62.7575 91.0053 61.6332C92.3922 60.5752 93.713 59.451 94.9678 58.3267C94.7036 59.7816 94.7036 61.3026 95.1659 62.7575L95.298 63.2865C95.4301 63.4188 95.4961 63.4849 95.5622 63.551C95.6282 63.6171 95.6943 63.6833 95.8263 63.6833C95.9584 63.7494 96.1565 63.8155 96.2886 63.8817C96.6188 64.0139 96.949 64.0139 97.2132 64.0139C97.8076 64.0139 98.402 63.8817 98.8642 63.6833C99.8549 63.2865 100.779 62.7575 101.638 62.2284C102.497 61.6994 103.289 61.1042 104.082 60.4429C104.874 59.8477 105.667 59.2526 106.459 58.5913C107.252 57.9961 108.044 57.3348 108.77 56.8058C108.77 56.8058 108.837 56.8058 108.837 56.7396L108.77 57.2025C108.638 58.1945 108.572 59.2526 108.572 60.4429C108.572 61.0381 108.638 61.6332 108.837 62.2945C108.969 62.6252 109.101 63.022 109.365 63.4188C109.629 63.8155 110.025 64.2785 110.554 64.543C111.082 64.8075 111.676 64.9397 112.139 64.8736C112.403 64.8736 112.601 64.8075 112.799 64.8075C112.997 64.7414 113.195 64.6752 113.393 64.6752L113.856 64.4768L114.252 64.2784C114.516 64.1462 114.714 64.0801 114.978 63.9478C116.828 62.9558 118.479 61.8978 120.13 60.7074C120.262 60.5752 120.46 60.4429 120.592 60.3768C120.592 61.2365 120.724 62.03 120.988 62.8236L121.12 63.3526C121.252 63.4849 121.318 63.551 121.384 63.6171C121.45 63.6833 121.517 63.7494 121.649 63.7494C121.781 63.8155 121.979 63.8817 122.111 63.9478C122.441 64.0801 122.771 64.0801 123.035 64.0801C123.63 64.0801 124.224 63.9478 124.687 63.7494C125.677 63.3526 126.602 62.8236 127.46 62.2945C128.319 61.7655 129.111 61.1703 129.904 60.509C130.696 59.9139 131.489 59.3187 132.281 58.6574C133.008 58.0622 133.734 57.4671 134.527 56.938C134.527 58.3929 134.395 60.1123 134.263 61.6994C134.196 62.4929 134.13 63.2865 134.064 64.0801C133.998 65.0059 133.866 65.9978 133.734 66.9236C133.668 67.2543 133.668 67.4527 133.668 67.4527C132.083 67.4527 130.564 67.6511 129.045 68.0479C127.328 68.4446 125.611 68.9737 124.026 69.635C120.79 70.9576 117.818 72.5447 114.978 74.5286C112.139 76.4464 109.497 78.827 107.252 81.4061C106.129 82.7287 105.072 84.1174 104.082 85.5723C103.091 87.0272 102.232 88.5481 101.506 90.0691C99.987 93.1772 98.8643 96.4837 98.2699 99.9225C98.0057 101.642 97.8076 103.427 97.8736 105.213C97.9397 106.998 98.2038 108.85 99.0624 110.636C99.4586 111.495 100.119 112.421 100.912 113.082C101.638 113.678 102.497 114.207 103.421 114.537C105.204 115.199 107.185 115.265 108.969 114.868C110.752 114.471 112.337 113.744 113.79 112.752C115.243 111.826 116.563 110.702 117.686 109.511C119.998 107.065 121.913 104.353 123.564 101.51C125.215 98.666 126.602 95.6902 127.857 92.6482C130.366 86.6304 132.413 80.4142 134.196 74.0657C134.395 73.2721 134.593 72.4124 134.791 71.6189C135.451 71.5527 136.112 71.5527 136.772 71.6189C137.036 71.685 137.234 71.7511 137.499 71.8173C138.555 72.214 139.546 72.677 140.47 73.2721C142.32 74.4625 143.706 76.0496 144.367 78.0996C145.093 80.0835 145.159 82.3981 144.895 84.7126C144.631 87.0272 144.037 89.4078 143.244 91.7224C142.518 94.0369 141.527 96.3515 140.603 98.666C142.188 96.6821 143.574 94.6321 144.763 92.3837C145.952 90.1353 146.943 87.7546 147.537 85.1755C148.131 82.5965 148.263 79.819 147.405 77.0415C147.405 75.5205 146.744 74.1979 145.886 73.0737ZM97.6095 2.64533C97.6095 2.5792 97.6095 2.5792 97.6095 2.64533V2.64533ZM81.1651 45.2991C82.9482 38.3555 85.1936 31.5441 87.5051 24.7327C88.6278 21.3601 89.8165 17.9213 91.0713 14.5487C92.3922 11.2422 93.8451 7.86959 95.6942 4.95988C96.1565 4.23245 96.6849 3.57115 97.2132 3.04211C97.4113 2.84372 97.6095 2.71146 97.7415 2.64533C97.8076 2.77759 97.8736 3.04211 97.9397 3.30663C98.0057 3.63728 98.0057 4.10019 98.0057 4.49697C98.0057 5.35666 97.9397 6.21634 97.8736 7.07603C97.4774 10.5809 96.5528 14.0858 95.6282 17.5907C93.5809 24.5343 91.0713 31.3457 87.9674 37.8926C87.1749 39.5458 86.3163 41.133 85.3918 42.6539C84.4672 44.1749 83.4766 45.6959 82.4199 47.1508C81.6934 48.0766 80.967 49.0024 80.1745 49.8621C80.3726 48.3411 80.7689 46.8201 81.1651 45.2991ZM75.0232 2.77759C74.9572 2.71146 75.0232 2.71146 75.0232 2.77759V2.77759ZM59.5035 41.7943C61.6168 34.3216 64.2585 26.9812 66.9662 19.7069C68.353 16.0697 69.7399 12.4326 71.3909 8.9938C72.2495 7.27442 73.108 5.55505 74.1647 4.16632C74.4289 3.83567 74.693 3.50502 74.9572 3.2405C75.0232 3.17437 75.0893 3.10824 75.1553 3.10824C75.2214 3.30663 75.2874 3.63728 75.2874 3.96793C75.3534 4.82762 75.2874 5.75344 75.2214 6.67926C75.1553 7.60507 75.0232 8.59702 74.8251 9.52284C74.4949 11.4406 74.0987 13.3584 73.5703 15.21C72.5797 18.9794 71.457 22.7488 70.1362 26.4521C68.8153 30.1554 67.2964 33.7925 65.6453 37.2974C63.9283 40.8023 62.0791 44.3072 59.7676 47.4153C58.9751 48.4073 58.1826 49.3992 57.3241 50.325C57.9185 47.4153 58.711 44.5717 59.5035 41.7943ZM110.62 55.6815C110.554 55.6815 110.554 55.6815 110.62 55.6815C110.686 55.6815 110.686 55.6815 110.62 55.6815ZM132.942 73.5366C131.687 79.8851 129.772 86.1013 127.262 92.1192C126.668 93.6402 125.941 95.095 125.215 96.4837C124.885 97.2112 124.422 97.9386 124.092 98.5999C123.696 99.2612 123.3 99.9886 122.837 100.65C121.979 102.039 121.054 103.295 120.064 104.552C119.073 105.808 118.016 106.998 116.828 107.99C114.516 110.107 111.742 111.76 108.903 112.223C107.516 112.421 106.063 112.289 104.874 111.694C104.28 111.429 103.751 111.032 103.223 110.569C102.827 110.173 102.563 109.71 102.298 109.048C101.836 107.858 101.704 106.403 101.77 104.882C101.836 103.427 102.1 101.906 102.563 100.452C103.355 97.5418 104.676 94.7644 106.327 92.1192C109.563 86.8949 113.79 82.4642 118.677 78.827C121.12 77.0415 123.762 75.3883 126.536 73.9995C128.781 72.9415 131.093 72.0156 133.404 71.5527C133.206 72.3463 133.074 72.9415 132.942 73.5366Z" fill="#513938"></path>
        <path d="M161.736 53.9621C159.028 56.4089 156.188 58.6573 153.15 60.5751C151.631 61.567 150.113 62.4267 148.461 63.088C147.669 63.4187 146.81 63.6832 146.018 63.8816C145.225 64.08 144.433 64.08 143.773 63.9477C143.112 63.8155 142.65 63.4187 142.254 62.8896C142.121 62.6913 141.989 62.4267 141.923 62.1622C143.31 61.8316 149.32 60.2444 153.018 56.6734C157.179 52.6395 153.084 48.1427 151.764 47.9443C151.698 47.9443 151.631 47.8781 151.565 47.8781C151.367 47.812 151.169 47.812 150.971 47.812C150.773 47.812 150.575 47.812 150.443 47.812C150.245 47.812 150.113 47.812 149.914 47.8781C148.66 48.0765 147.603 48.5394 146.612 49.0685C145.622 49.5975 144.763 50.2588 143.971 50.9862C142.32 52.4411 140.933 54.1605 140.14 56.2105C139.942 56.7396 139.744 57.3347 139.612 57.9299C139.612 58.0622 139.546 58.2605 139.48 58.5251C139.48 58.5251 139.48 58.5251 139.48 58.5912C139.348 59.2525 139.216 60.3106 139.414 61.1041C139.414 61.1041 139.414 61.1041 139.414 61.1703C139.48 61.567 139.546 61.9638 139.678 62.3606C139.744 62.8235 139.876 63.1542 139.876 63.2864C140.074 63.6171 140.272 64.0139 140.536 64.3445C141.263 65.2703 142.452 65.9316 143.574 66.0639C144.697 66.1961 145.754 66.0639 146.678 65.7332C147.603 65.4687 148.528 65.0719 149.32 64.609C150.971 63.7493 152.49 62.6913 154.009 61.567C156.915 59.3186 159.622 56.8057 162.132 54.1605L161.736 53.9621ZM144.169 58.2605C145.093 56.8718 146.018 55.4831 147.141 54.1605C147.405 53.8298 147.735 53.5653 147.999 53.2347L148.461 52.7718C148.594 52.6395 148.792 52.4411 148.924 52.3088C149.518 51.7137 150.179 51.1846 150.773 50.854C151.037 50.7217 151.301 50.5895 151.235 50.5233V50.4572C151.235 50.4572 151.235 50.3911 151.301 50.3911C151.301 50.3911 151.367 50.3911 151.433 50.4572C151.433 50.4572 151.631 50.7217 151.764 51.1185C151.83 51.3169 151.896 51.5814 151.962 51.7798C152.028 52.1766 152.094 52.5734 152.094 53.0363C152.028 53.9621 151.698 55.0863 150.839 56.2766C148.726 59.1202 143.574 61.038 142.055 61.567C142.782 60.4428 143.442 59.3186 144.169 58.2605Z" fill="#513938"></path>
        <path d="M36.0587 16.3341C36.0587 16.3341 36.0587 15.7389 35.3322 15.7389C34.6058 15.7389 34.5397 16.3341 34.5397 16.3341C34.1435 18.2519 33.7472 20.1696 33.285 22.1535C31.5679 29.7585 29.7187 37.2973 27.3412 44.7039C27.077 45.5635 26.8129 46.4232 26.4827 47.3491C26.4827 47.4152 26.4827 47.4152 26.4166 47.4813C26.0864 48.4733 25.6902 49.5313 25.36 50.5894C25.0958 51.383 24.7656 52.2427 24.4354 53.0362V52.9701C24.1712 53.6314 23.9071 54.2927 23.6429 54.8879C23.6429 54.8879 23.6429 54.8879 23.6429 54.954C23.5108 55.2185 23.4448 55.483 23.3127 55.6814C23.0485 56.3427 22.7183 57.004 22.3881 57.6653C22.3221 57.7976 22.3221 57.8637 22.3221 57.8637C22.256 57.996 22.19 58.1944 22.0579 58.3266C21.5956 59.1863 21.1993 59.9799 20.671 60.7734C20.1427 61.567 19.6143 62.2283 19.02 62.8235C18.6237 63.2202 18.1614 63.5509 17.6991 63.7493C17.5671 63.8154 17.3689 63.8154 17.1048 63.8154C17.1048 63.8154 17.1048 63.8154 17.0387 63.8154C16.7746 63.7493 15.9821 63.8154 15.5198 63.6832C15.4537 63.6832 15.3877 63.617 15.3216 63.617C14.9254 63.2864 14.5952 62.8235 14.331 62.2944C13.9348 61.567 13.6706 60.7734 13.4725 59.9137C13.2744 59.0541 13.0762 58.1944 12.9442 57.2685C12.9442 57.0702 12.8781 56.9379 12.8781 56.7395C12.8781 56.7395 12.8781 56.6734 12.8781 56.5411C12.8121 55.8798 12.68 55.1524 12.6139 54.4911C12.6139 54.2266 12.5479 53.962 12.5479 53.6975C12.5479 53.6975 12.5479 53.6975 12.5479 53.6314C12.4819 53.0362 12.4158 52.3749 12.4158 51.6475V51.7136C12.3498 50.8539 12.3498 50.0604 12.2837 49.2007C12.2177 48.1426 12.2177 47.0184 12.2177 46.0265C12.2177 45.9603 12.2177 45.9603 12.2177 45.8942C12.2177 45.0345 12.2177 44.1087 12.2177 43.249C12.2837 38.2231 12.6139 33.1311 13.0102 28.1052C13.2744 27.3778 13.6046 26.7165 13.8687 25.9891C15.3216 22.4842 16.5764 18.9132 17.6991 15.276C18.2275 13.4244 18.7558 11.5727 19.1521 9.7211C19.3502 8.79529 19.5483 7.80334 19.6804 6.87752C19.7464 6.28235 19.8125 5.68718 19.8785 5.09201C19.8785 4.69523 19.8785 4.29845 19.8785 3.83554C19.8785 3.57102 19.8785 3.3065 19.8125 3.04198C19.7464 2.71133 19.6804 2.44681 19.5483 2.05003C19.4162 1.71938 19.2181 1.3226 18.8879 0.991949C18.6898 0.79356 18.4916 0.6613 18.2275 0.52904C18.2275 0.13226 17.9633 0 17.6331 0H17.5671C17.3029 0 17.1048 0 16.8406 0.06613C16.2462 0.19839 15.85 0.46291 15.5858 0.72743C15.4537 0.85969 15.3216 0.991949 15.2556 1.05808C15.1896 1.12421 15.1896 1.12421 15.1235 1.19034V1.25647C15.0575 1.3226 14.9914 1.38873 14.9254 1.45486C14.5291 1.9839 14.265 2.44681 14.0008 2.90972C13.0762 4.82749 12.4819 6.67913 11.8875 8.53077C10.7648 12.3002 9.97228 16.0696 9.3779 19.9051C8.78353 23.7407 8.45332 27.5762 8.32124 31.4779C8.2552 32.9327 8.2552 34.3876 8.18916 35.8424C6.60416 39.1489 4.82104 42.3893 2.64166 45.299C1.98125 46.291 1.18875 47.2168 0.39625 48.1426C0.39625 48.0765 0.462291 47.9442 0.39625 48.1426C0.39625 48.2087 0.264166 48.6055 0.0660416 49.9943C0 50.0604 0 50.2588 0 50.0604C1.25479 48.7378 2.44354 47.4152 3.5002 45.9603C5.28333 43.5796 6.80228 41.0667 8.18916 38.4876C8.18916 40.0748 8.2552 41.5957 8.32124 43.1829C8.51936 47.0184 8.98166 50.9201 9.70811 54.7556C9.77415 55.1524 9.90624 55.6153 9.97228 56.0121L10.3025 57.4669C10.5006 58.4589 10.7648 59.4508 11.161 60.4428C11.4912 61.4347 11.8875 62.3606 12.4819 63.2864C13.0762 64.2122 13.8687 65.138 15.0575 65.6009C15.6519 65.8654 16.2462 65.9316 16.8406 65.9316C17.0387 65.9316 17.2369 65.9316 17.435 65.9316C18.7558 65.7993 19.8125 65.2041 20.7371 64.4767C21.5956 63.7493 22.3221 62.9557 22.9825 62.096C23.6429 61.2363 24.2373 60.3105 24.7656 59.4508L25.5581 58.1282C25.7562 57.7315 26.0204 57.3347 26.2185 56.9379C27.2752 55.0863 28.1998 53.1685 29.1243 51.1846C29.7187 49.862 36.9172 31.9408 36.0587 16.3341ZM17.501 6.34848C17.435 7.2743 17.3029 8.13399 17.1048 9.0598C16.7746 10.9114 16.3783 12.697 15.916 14.4825C15.2556 17.0615 14.5291 19.5745 13.6706 22.0874C13.7366 21.5584 13.7366 21.0293 13.8027 20.5003C14.1989 16.797 14.5952 13.0276 15.2556 9.39046C15.5858 7.60495 15.9821 5.75331 16.6425 4.16619C16.7746 3.76941 16.9727 3.43876 17.1708 3.10811C17.1708 3.04198 17.2369 3.04198 17.2369 3.04198L17.3029 2.97585C17.3689 3.04198 17.3689 3.10811 17.435 3.24037C17.501 3.43876 17.501 3.57102 17.501 3.76941C17.6331 4.56297 17.5671 5.42266 17.501 6.34848Z" fill="#513938"></path>
    </g>
    <defs>
        <clipPath id="clip0_0_530">
            <rect width="162" height="115" fill="white"></rect>
        </clipPath>
    </defs>
</svg>