<svg width="191" height="47" viewBox="0 0 191 47" fill="none" xmlns="http://www.w3.org/2000/svg">
<path fill-rule="evenodd" clip-rule="evenodd" d="M79.0263 11.9518L73.0893 20.7036H78.8842V23.2817H68.0273L74.0352 14.5301H68.7607V11.9518H79.0263ZM91.8935 23.2817H88.7004V22.1228C87.9474 23.1951 86.6544 23.7312 84.8173 23.7312C83.3114 23.7312 82.0421 23.187 81.0052 22.099C79.9053 20.9479 79.3573 19.4578 79.3573 17.6286C79.3573 15.8308 79.9723 14.3488 81.2023 13.1818C82.3061 12.1095 83.5597 11.5734 84.9631 11.5734C85.8146 11.5734 86.603 11.739 87.3285 12.0701C88.0537 12.4013 88.5347 12.8271 88.7713 13.3474V11.9518H91.8935V23.2817ZM88.8896 17.605C88.8896 16.6746 88.59 15.8901 87.9909 15.2515C87.3916 14.6128 86.6664 14.2935 85.8148 14.2935C84.9474 14.2935 84.2103 14.6168 83.603 15.2633C82.9959 15.9098 82.6925 16.6903 82.6925 17.605C82.6925 18.5353 83 19.308 83.6148 19.9229C84.2298 20.5379 84.9551 20.8454 85.791 20.8454C86.6424 20.8454 87.3718 20.5457 87.9789 19.9467C88.586 19.3474 88.8896 18.5668 88.8896 17.605ZM99.297 14.53H97.7122V23.2816H94.4244V14.53H92.8398V11.9518H94.4244V8.19093H97.7122V11.9518H99.297V14.53ZM116.871 23.2817H113.583V5.61279H116.871V23.2817ZM130.377 17.9125C130.377 19.8836 129.916 21.3462 128.993 22.3002C128.071 23.2542 126.624 23.7312 124.653 23.7312C122.634 23.7312 121.164 23.2542 120.242 22.3002C119.319 21.3462 118.858 19.8835 118.858 17.9125V11.9518H122.122V17.9125C122.122 18.8743 122.307 19.5801 122.678 20.0295C123.048 20.4788 123.691 20.7036 124.606 20.7036C125.505 20.7036 126.151 20.467 126.545 19.9939C126.908 19.5681 127.089 18.8743 127.089 17.9125V11.9518H130.377V17.9125H130.377ZM143.102 23.2817H139.01L137.686 20.9637C137.386 20.4433 137.15 19.8598 136.976 19.2133C136.834 19.7811 136.574 20.3723 136.195 20.9873L134.8 23.2816H130.897L134.918 17.5339L131.11 11.9518H135.226L136.337 14.0569C136.621 14.5931 136.85 15.1686 137.023 15.7836C137.197 15.1843 137.449 14.6008 137.78 14.0333L138.987 11.9518H142.889L139.01 17.4629L143.102 23.2817ZM147.667 21.6495C147.667 22.2015 147.474 22.6666 147.088 23.0449C146.702 23.4235 146.232 23.6129 145.68 23.6129C145.128 23.6129 144.659 23.4196 144.273 23.0333C143.887 22.647 143.693 22.1858 143.693 21.6497C143.693 21.0977 143.887 20.6286 144.273 20.2423C144.659 19.8561 145.128 19.6628 145.68 19.6628C146.232 19.6628 146.702 19.8559 147.088 20.2423C147.474 20.6286 147.667 21.0977 147.667 21.6495ZM158.075 22.9504C157.192 23.4709 156.182 23.7312 155.047 23.7312C153.265 23.7312 151.811 23.1634 150.683 22.0281C149.556 20.8928 148.992 19.4183 148.992 17.605C148.992 15.8074 149.56 14.3527 150.695 13.2411C151.83 12.1294 153.297 11.5734 155.095 11.5734C156.246 11.5734 157.239 11.8101 158.075 12.2831L158.051 15.5946C157.341 14.8376 156.458 14.4592 155.402 14.4592C154.487 14.4592 153.75 14.7392 153.19 15.3028C152.63 15.8627 152.351 16.6195 152.351 17.5695C152.351 18.5196 152.63 19.2805 153.19 19.848C153.75 20.4195 154.519 20.7034 155.496 20.7034C156.521 20.7034 157.373 20.3091 158.051 19.5207L158.075 22.9504ZM171.297 17.6522C171.297 19.387 170.706 20.8335 169.523 21.9927C168.34 23.1518 166.826 23.7313 164.981 23.7313C163.121 23.7313 161.599 23.1478 160.416 21.981C159.234 20.8142 158.642 19.3714 158.642 17.6524C158.642 15.9336 159.242 14.4909 160.44 13.3239C161.639 12.1569 163.152 11.5736 164.982 11.5736C166.827 11.5736 168.34 12.1491 169.523 13.3001C170.706 14.4512 171.297 15.9019 171.297 17.6522ZM167.938 17.6286C167.938 16.8086 167.65 16.099 167.075 15.4999C166.499 14.9005 165.793 14.601 164.958 14.601C164.106 14.601 163.397 14.8967 162.829 15.4881C162.261 16.0794 161.977 16.7929 161.977 17.6286C161.977 18.4958 162.269 19.2212 162.853 19.8047C163.436 20.3882 164.138 20.6798 164.958 20.6798C165.793 20.6798 166.499 20.388 167.075 19.8047C167.65 19.2212 167.938 18.4958 167.938 17.6286ZM191 23.2817H187.712V17.676C187.712 16.5722 187.641 15.8231 187.499 15.429C187.247 14.6406 186.687 14.2463 185.82 14.2463C184.953 14.2463 184.334 14.5734 183.963 15.228C183.593 15.8824 183.407 16.9035 183.407 18.291V23.2819H180.119V17.6604C180.119 16.6039 180.056 15.8668 179.93 15.4567C179.678 14.6486 179.157 14.2464 178.369 14.2464C177.486 14.2464 176.851 14.5736 176.465 15.2321C176.079 15.8865 175.885 16.9037 175.885 18.2794V23.2821H172.598V11.9518H175.885V13.7258C176.926 12.2908 178.195 11.5733 179.694 11.5733C181.57 11.5733 182.753 12.346 183.241 13.8913C184.298 12.346 185.623 11.5733 187.215 11.5733C188.839 11.5733 189.951 12.1645 190.55 13.3472C190.85 13.9307 191 14.9162 191 16.3039V23.2817H191Z" fill="black"/>
<path fill-rule="evenodd" clip-rule="evenodd" d="M112.282 17.6523C112.282 19.3871 111.69 20.8337 110.508 21.9928C109.325 23.1519 107.811 23.7315 105.966 23.7315C104.105 23.7315 102.584 23.148 101.401 21.9811C100.218 20.8143 99.627 19.3715 99.627 17.6525C99.627 15.9337 100.226 14.491 101.425 13.3241C102.623 12.1571 104.137 11.5737 105.966 11.5737C107.811 11.5737 109.325 12.1492 110.508 13.3003C111.69 14.4513 112.282 15.902 112.282 17.6523ZM108.923 17.6287C108.923 16.8088 108.635 16.0991 108.06 15.5C107.484 14.9006 106.778 14.6011 105.943 14.6011C105.091 14.6011 104.382 14.8968 103.814 15.4882C103.246 16.0796 102.962 16.793 102.962 17.6287C102.962 18.4959 103.254 19.2213 103.838 19.8048C104.421 20.3883 105.123 20.6799 105.943 20.6799C106.778 20.6799 107.484 20.3882 108.06 19.8048C108.635 19.2213 108.923 18.4959 108.923 17.6287Z" fill="#BE2E21"/>
<path fill-rule="evenodd" clip-rule="evenodd" d="M8 41.1185C8 41.6603 8.24578 42.0536 8.73735 42.2986C9.22892 42.5437 10.0697 42.6662 11.2598 42.6662C12.6825 42.6662 14.2349 42.4083 15.9164 41.8925C19.5124 43.466 22.5004 44.7107 24.8806 45.6264C27.2608 46.5422 29.3303 47 31.0896 47C33.5473 47 35.7333 46.252 37.6478 44.7558C39.6914 43.1564 40.7133 41.2474 40.7133 39.0292C40.7133 38.1779 40.6616 37.4749 40.558 36.9204C40.4546 36.3657 40.3381 36.0884 40.2088 36.0884C40.0795 36.0884 40.015 36.1788 40.015 36.3593C40.0668 36.6689 40.1184 37.0882 40.1702 37.6169C40.2218 38.1458 40.2478 38.539 40.2478 38.797C40.2478 40.9381 39.3294 42.5761 37.4926 43.7111C36.0179 44.6139 34.2846 45.0652 32.2926 45.0652C30.3781 45.0652 27.1574 44.4591 22.63 43.2466C19.448 42.3954 17.3912 41.8794 16.4599 41.6989C18.219 41.2089 19.8748 40.2929 21.427 38.9517C22.7464 37.8167 24.0399 36.3464 25.3076 34.5405C26.1613 33.3281 27.1315 31.7416 28.218 29.7813C29.1235 30.3231 30.0871 30.7164 31.1091 30.9614C32.1309 31.2065 33.224 31.3291 34.3882 31.3291C37.5185 31.3291 40.3255 30.4391 42.8091 28.6592C45.6031 26.673 47 24.1577 47 21.1138C47 19.6177 46.4696 18.3665 45.409 17.3606C44.3483 16.3546 42.9772 15.8516 41.2955 15.8516C38.8896 15.8516 36.5353 16.9091 34.233 19.0243C31.9305 21.1396 29.7833 24.2867 27.7913 28.4656C26.2909 27.1758 25.5405 25.383 25.5405 23.0872C25.5405 20.9204 26.1549 19.1081 27.3837 17.6507C28.6126 16.1934 30.1196 15.4645 31.9044 15.4645C32.3442 15.4645 32.6806 15.4774 32.9135 15.5032C33.1463 15.5289 33.3533 15.5676 33.5343 15.6192C33.6895 15.5161 33.7672 15.4387 33.7672 15.3871C33.7672 15.1291 33.0945 15 31.7493 15C29.5244 15 27.6488 15.6965 26.1226 17.0895C24.5961 18.4827 23.8331 20.2624 23.8331 22.4292C23.8331 25.3183 25.01 27.5626 27.3643 29.1619C26.0709 31.6125 25.3076 33.0313 25.0749 33.4182C24.1177 35.0692 23.1477 36.4621 22.1645 37.5973C21.4142 38.4228 20.2632 39.2612 18.7108 40.1124C17.288 40.8862 16.2531 41.2732 15.6064 41.2732C15.3994 41.2732 14.5197 41.0927 12.9676 40.7316C11.4154 40.3704 10.3677 40.1898 9.82438 40.1898C9.22943 40.1898 8.77669 40.2866 8.46618 40.48C8.15517 40.6736 8 40.8863 8 41.1185ZM45.0593 21.1138C45.0593 24.0546 43.9986 26.4406 41.8772 28.2721C39.8593 30.0004 37.3499 30.8646 34.3488 30.8646C33.2882 30.8646 32.2471 30.7227 31.2251 30.4389C30.2033 30.1553 29.3172 29.7295 28.567 29.1621C29.7828 26.7373 30.753 24.9574 31.4773 23.8224C32.8743 21.604 34.2843 19.9013 35.7072 18.7149C37.4923 17.2188 39.3809 16.4706 41.3729 16.4706C42.6406 16.4706 43.5718 16.8897 44.1669 17.728C44.7617 18.5665 45.0593 19.6952 45.0593 21.1138Z" fill="black"/>
<path fill-rule="evenodd" clip-rule="evenodd" d="M31.8339 7.37808C32.4707 7.48394 32.9216 7.54992 33.1868 7.57639C33.4521 7.60285 33.8101 7.61608 34.2611 7.61608C36.7813 7.61608 39.0096 7.11362 40.9462 6.10868C43.0685 4.99806 44.1297 3.62297 44.1297 1.98341C44.1297 1.45448 43.9308 1.03793 43.5328 0.733942C43.1349 0.42978 42.6641 0.277698 42.1069 0.277698C40.3561 0.277698 38.068 1.2957 35.2361 3.33204C34.2347 4.04604 33.0675 4.98465 31.7477 6.1482C30.9254 5.77805 29.1413 4.53511 26.3891 2.43295C24.247 0.813333 22.5226 0 21.2293 0C18.981 0 16.998 1.14362 15.2936 3.42449C13.5892 5.70536 12.7336 8.46207 12.7336 11.695V12.8917V12.9709C12.0373 12.2833 11.2083 11.6882 10.2532 11.186C9.29819 10.6835 8.36315 10.4322 7.44793 10.4322C7.20262 10.4322 7.08316 10.5249 7.08316 10.7099C7.26882 10.8421 7.46793 10.9083 7.67997 10.9083C8.3697 10.9083 9.21855 11.186 10.2267 11.7412C11.2348 12.2966 12.0571 12.9444 12.6938 13.6849C13.0651 17.4135 13.5826 19.2777 14.2456 19.2777C14.5109 19.2777 14.7099 19.1586 14.8424 18.9208C14.9752 18.6828 15.0414 18.3654 15.0414 17.9688C15.0414 17.301 14.7231 16.3093 14.0865 14.9806C13.4499 13.6584 13.1315 12.5081 13.1315 11.5231C13.1315 9.05716 13.7017 6.85568 14.8424 4.90543C15.9833 2.95519 17.4024 1.98341 19.1003 1.98341C20.5328 1.98341 22.8806 2.92219 26.1434 4.80628C28.1597 5.96983 29.7116 6.72353 30.7992 7.06722C29.7116 8.17784 27.7484 10.2338 24.91 13.2286C22.4164 15.873 20.692 17.6646 19.7371 18.5902C18.0127 20.2825 16.4077 21.7172 14.9222 22.8807C13.4366 24.0443 11.7785 25.0161 9.9481 25.783C8.43607 26.4176 7.38829 26.735 6.80457 26.735C6.77803 26.735 6.26068 26.6556 5.25255 26.4968C4.24458 26.3382 3.43539 26.2588 2.8253 26.2588C1.79061 26.2588 1.06106 26.3514 0.636636 26.5365C0.212212 26.7216 0 26.9596 0 27.2505C0 27.4885 0.17239 27.6736 0.51717 27.8059C0.861949 27.9381 1.51203 28.0042 2.46707 28.0042C3.05061 28.0042 3.77361 27.9381 4.63574 27.8059C5.49803 27.6736 6.43307 27.5282 7.44121 27.3694C10.3593 27.3694 13.4631 28.2818 16.7527 30.1066C19.4585 31.799 22.1645 33.5048 24.8703 35.2235C27.974 37.0746 30.6933 38 33.0278 38C34.9114 38 36.7816 37.5505 38.6384 36.6514C40.071 35.9637 41.331 35.0977 42.4188 34.0533C43.5064 33.0086 44.4085 31.8915 45.1246 30.7015C45.7081 29.723 46 29.0752 46 28.7579C46 28.5464 45.9204 28.4405 45.7611 28.4405C45.5754 29.1545 45.151 30.0273 44.4878 31.0586C43.8244 32.09 42.8297 33.1212 41.5034 34.1526C40.7606 34.7343 39.8719 35.1641 38.8374 35.4416C37.8027 35.7193 36.6885 35.858 35.4947 35.858C33.0806 35.858 30.0962 35.0912 26.5415 33.5573C23.4642 32.1293 20.4001 30.7013 17.3495 29.2735C13.7946 27.7396 10.8235 26.9728 8.43607 26.9728C11.4072 25.8887 14.3385 24.1962 17.2302 21.8956C19.2197 20.3088 21.7003 17.9421 24.6714 14.7952C28.4914 10.7763 30.879 8.3038 31.8339 7.37808ZM42.3391 0.753875C42.6308 0.753875 42.8961 0.846499 43.1349 1.03157C43.3736 1.21665 43.4929 1.44159 43.4929 1.70606C43.4929 3.21329 42.5379 4.49576 40.628 5.55362C38.9301 6.50546 37.1926 6.98164 35.4151 6.98164C35.017 6.98164 34.5793 6.94847 34.102 6.88249C33.6245 6.81633 33.1337 6.69071 32.6296 6.50563C34.5397 4.7604 35.9986 3.54392 37.0068 2.85638C39.0496 1.45482 40.8271 0.753875 42.3391 0.753875Z" fill="black"/>
<path d="M90 33.4156H94.3327V34.3427H90.8583V37.2839H94.3327V38.211H90.8583V42.821H90V33.4156Z" fill="black"/>
<path d="M102.081 35.8645V42.821H101.27V41.6253C100.925 42.0814 100.537 42.4246 100.106 42.6547C99.6786 42.8849 99.2103 43 98.7008 43C97.7954 43 97.0214 42.6441 96.3786 41.9322C95.7398 41.2161 95.4203 40.3465 95.4203 39.3235C95.4203 38.3218 95.7437 37.465 96.3904 36.7532C97.037 36.0413 97.815 35.6854 98.7243 35.6854C99.2495 35.6854 99.7237 35.8069 100.147 36.0499C100.574 36.2928 100.948 36.6573 101.27 37.1432V35.8645H102.081ZM98.7889 36.5486C98.3304 36.5486 97.9071 36.6722 97.5191 36.9194C97.1311 37.1624 96.8215 37.5055 96.5902 37.9488C96.3629 38.3922 96.2493 38.861 96.2493 39.3555C96.2493 39.8457 96.3649 40.3146 96.5961 40.7621C96.8274 41.2097 97.137 41.5592 97.525 41.8107C97.9169 42.058 98.3363 42.1816 98.7831 42.1816C99.2338 42.1816 99.661 42.058 100.065 41.8107C100.468 41.5635 100.778 41.2289 100.994 40.8069C101.213 40.3849 101.323 39.9096 101.323 39.3811C101.323 38.5754 101.078 37.902 100.588 37.3606C100.102 36.8193 99.5023 36.5486 98.7889 36.5486Z" fill="black"/>
<path d="M107.155 36.6253L106.626 37.2199C106.187 36.7553 105.757 36.523 105.338 36.523C105.072 36.523 104.842 36.6189 104.65 36.8107C104.462 37.0026 104.368 37.2263 104.368 37.4821C104.368 37.708 104.446 37.9233 104.603 38.1279C104.76 38.3367 105.089 38.5818 105.591 38.8632C106.202 39.2084 106.618 39.5409 106.837 39.8606C107.053 40.1846 107.16 40.549 107.16 40.954C107.16 41.5251 106.976 42.009 106.608 42.4054C106.239 42.8018 105.779 43 105.226 43C104.858 43 104.505 42.9126 104.168 42.7379C103.835 42.5631 103.559 42.3223 103.339 42.0153L103.857 41.376C104.276 41.8917 104.721 42.1496 105.191 42.1496C105.52 42.1496 105.801 42.0345 106.032 41.8043C106.263 41.5742 106.379 41.3035 106.379 40.9923C106.379 40.7366 106.302 40.5085 106.149 40.3082C105.996 40.1121 105.652 39.8649 105.115 39.5665C104.539 39.2425 104.147 38.9228 103.939 38.6074C103.731 38.292 103.627 37.9318 103.627 37.5269C103.627 36.9983 103.792 36.5592 104.121 36.2097C104.454 35.8602 104.874 35.6854 105.379 35.6854C105.967 35.6854 106.559 35.9987 107.155 36.6253Z" fill="black"/>
<path d="M108.618 33.179H109.442V37.1113C109.775 36.6338 110.141 36.2779 110.541 36.0435C110.941 35.8048 111.374 35.6854 111.84 35.6854C112.318 35.6854 112.742 35.8176 113.11 36.0818C113.482 36.3461 113.757 36.702 113.933 37.1496C114.109 37.5929 114.198 38.2899 114.198 39.2404V42.821H113.374V39.5026C113.374 38.7012 113.345 38.1662 113.286 37.8977C113.184 37.4373 112.998 37.0921 112.728 36.8619C112.461 36.6275 112.111 36.5102 111.675 36.5102C111.178 36.5102 110.731 36.6893 110.335 37.0473C109.943 37.4054 109.684 37.8487 109.559 38.3772C109.481 38.7182 109.442 39.3491 109.442 40.2698V42.821H108.618V33.179Z" fill="black"/>
<path d="M116.255 33C116.443 33 116.604 33.0725 116.737 33.2174C116.87 33.3623 116.937 33.5371 116.937 33.7417C116.937 33.942 116.87 34.1147 116.737 34.2596C116.604 34.4045 116.443 34.477 116.255 34.477C116.071 34.477 115.912 34.4045 115.779 34.2596C115.646 34.1147 115.579 33.942 115.579 33.7417C115.579 33.5371 115.646 33.3623 115.779 33.2174C115.912 33.0725 116.071 33 116.255 33ZM115.844 35.8645H116.673V42.821H115.844V35.8645Z" fill="black"/>
<path d="M121.405 35.6854C122.389 35.6854 123.204 36.0733 123.851 36.8491C124.439 37.5567 124.733 38.3943 124.733 39.3619C124.733 40.3338 124.421 41.1841 123.798 41.913C123.179 42.6377 122.381 43 121.405 43C120.425 43 119.624 42.6377 119.001 41.913C118.381 41.1841 118.072 40.3338 118.072 39.3619C118.072 38.3986 118.366 37.5631 118.954 36.8555C119.6 36.0754 120.417 35.6854 121.405 35.6854ZM121.405 36.5614C120.723 36.5614 120.137 36.8363 119.647 37.3862C119.157 37.9361 118.912 38.601 118.912 39.3811C118.912 39.8841 119.024 40.3529 119.248 40.7877C119.471 41.2225 119.773 41.5592 120.153 41.798C120.533 42.0324 120.95 42.1496 121.405 42.1496C121.86 42.1496 122.277 42.0324 122.657 41.798C123.037 41.5592 123.339 41.2225 123.563 40.7877C123.786 40.3529 123.898 39.8841 123.898 39.3811C123.898 38.601 123.651 37.9361 123.157 37.3862C122.667 36.8363 122.083 36.5614 121.405 36.5614Z" fill="black"/>
<path d="M126.267 35.8645H127.09V37.1113C127.419 36.6338 127.784 36.2779 128.183 36.0435C128.583 35.8048 129.018 35.6854 129.489 35.6854C129.967 35.6854 130.39 35.8176 130.758 36.0818C131.131 36.3461 131.405 36.702 131.581 37.1496C131.758 37.5972 131.846 38.2941 131.846 39.2404V42.821H131.029V39.5026C131.029 38.7012 130.997 38.1662 130.935 37.8977C130.837 37.4373 130.653 37.0921 130.382 36.8619C130.112 36.6275 129.759 36.5102 129.324 36.5102C128.826 36.5102 128.379 36.6893 127.984 37.0473C127.592 37.4054 127.333 37.8487 127.208 38.3772C127.129 38.7225 127.09 39.3534 127.09 40.2698V42.821H126.267V35.8645Z" fill="black"/>
<path d="M133.081 38.8951H136.314V39.6752H133.081V38.8951Z" fill="black"/>
<path d="M140.641 35.6854C141.625 35.6854 142.44 36.0733 143.086 36.8491C143.674 37.5567 143.968 38.3943 143.968 39.3619C143.968 40.3338 143.657 41.1841 143.034 41.913C142.414 42.6377 141.617 43 140.641 43C139.661 43 138.859 42.6377 138.236 41.913C137.617 41.1841 137.307 40.3338 137.307 39.3619C137.307 38.3986 137.601 37.5631 138.189 36.8555C138.836 36.0754 139.653 35.6854 140.641 35.6854ZM140.641 36.5614C139.959 36.5614 139.373 36.8363 138.883 37.3862C138.393 37.9361 138.148 38.601 138.148 39.3811C138.148 39.8841 138.26 40.3529 138.483 40.7877C138.707 41.2225 139.008 41.5592 139.389 41.798C139.769 42.0324 140.186 42.1496 140.641 42.1496C141.095 42.1496 141.513 42.0324 141.893 41.798C142.273 41.5592 142.575 41.2225 142.798 40.7877C143.022 40.3529 143.133 39.8841 143.133 39.3811C143.133 38.601 142.887 37.9361 142.393 37.3862C141.903 36.8363 141.319 36.5614 140.641 36.5614Z" fill="black"/>
<path d="M145.397 35.8645H146.226V39.1125C146.226 39.9054 146.265 40.451 146.343 40.7494C146.461 41.1756 146.684 41.5124 147.014 41.7596C147.347 42.0068 147.743 42.1304 148.201 42.1304C148.66 42.1304 149.048 42.0111 149.365 41.7724C149.686 41.5294 149.908 41.2119 150.029 40.8197C150.112 40.5512 150.153 39.9821 150.153 39.1125V35.8645H150.994V39.2788C150.994 40.2379 150.89 40.9604 150.682 41.4463C150.478 41.9322 150.169 42.3137 149.753 42.5908C149.342 42.8636 148.824 43 148.201 43C147.578 43 147.057 42.8636 146.637 42.5908C146.222 42.3137 145.91 41.9301 145.703 41.4399C145.499 40.9454 145.397 40.2038 145.397 39.2148V35.8645Z" fill="black"/>
<path d="M153.545 33.2813H154.374V35.8645H155.679V36.6317H154.374V42.821H153.545V36.6317H152.422V35.8645H153.545V33.2813Z" fill="black"/>
<path d="M156.784 33.179H157.607V42.821H156.784V33.179Z" fill="black"/>
<path d="M164.703 40.5128L165.397 40.9092C165.17 41.3951 164.907 41.7873 164.609 42.0857C164.311 42.3841 163.976 42.6121 163.604 42.7698C163.231 42.9233 162.81 43 162.34 43C161.297 43 160.482 42.6292 159.894 41.8875C159.306 41.1415 159.012 40.2997 159.012 39.3619C159.012 38.4795 159.261 37.6931 159.759 37.0026C160.39 36.1245 161.235 35.6854 162.293 35.6854C163.382 35.6854 164.252 36.1351 164.903 37.0345C165.365 37.6697 165.601 38.4625 165.608 39.413H159.859C159.875 40.2229 160.112 40.8879 160.57 41.4079C161.029 41.9237 161.595 42.1816 162.269 42.1816C162.595 42.1816 162.91 42.1198 163.216 41.9962C163.525 41.8725 163.788 41.7084 164.004 41.5038C164.219 41.2992 164.452 40.9689 164.703 40.5128ZM164.703 38.6394C164.593 38.162 164.433 37.7805 164.221 37.4949C164.013 37.2093 163.737 36.9791 163.392 36.8043C163.047 36.6296 162.685 36.5422 162.305 36.5422C161.677 36.5422 161.139 36.7617 160.688 37.2008C160.359 37.5205 160.11 38 159.941 38.6394H164.703Z" fill="black"/>
<path d="M167.866 33.2813H168.695V35.8645H170V36.6317H168.695V42.821H167.866V36.6317H166.743V35.8645H167.866V33.2813Z" fill="black"/>
</svg>
