<?xml version="1.0" encoding="utf-8"?>
<!-- Generator: Adobe Illustrator 22.1.0, SVG Export Plug-In . SVG Version: 6.00 Build 0)  -->
<svg version="1.1" id="Слой_1" xmlns="http://www.w3.org/2000/svg" xmlns:xlink="http://www.w3.org/1999/xlink" x="0px" y="0px"
	 viewBox="0 0 103.2 116" style="enable-background:new 0 0 103.2 116;" xml:space="preserve">
<style type="text/css">
	.st0{fill:#FFFFFF;stroke:#FFFFFF;stroke-width:6;stroke-linecap:round;stroke-linejoin:round;stroke-miterlimit:10;}
	.st1{fill:#FFFFFF;}
	.st2{clip-path:url(#SVGID_2_);}
	.st3{fill:#848484;}
</style>
<g>
	<g>
		<g>
			<path class="st0" d="M82,32.5c-0.6,2.1-4.4,4.9-4.4,4.9c-0.6-0.2-1.7-0.1-1.7-0.1c-0.7-1.3-4.1-0.8-4.1-0.8
				c-1.6-1.1-2.8-3.5-2.8-3.5c-0.5,3.4,1.1,9.1,1.1,9.1c-1.5,0.1-3.1-0.5-4.9-1.6c-1.8-1.1-3.8-1.9-3.8-1.9l0.2,0.5
				C61.1,39,60,39.2,60,39.2c0.3,0,0.9,0.3,0.9,0.3l-1.3,0.6c1,0.9-1.8,10.2-1.8,10.2c1.3-0.9,3.4-1,3.4-1c0,0.4,1,1.8,1.8,2.8
				c0.9,1.1,1.1,2.2,1.1,2.2l0.4-0.2c-0.5,1.5-1.3,3.2-1.7,5.2c-0.2,2.5,0.4,3.7,2.3,3.7c1.9,0,1.6-1.6,1.6-1.6
				c-0.4,0.2-1.4-0.1-1.4-0.1c-0.9-3,1.7-6.3,3.4-7.3c1.7-1,2.6-1.9,2.6-1.9c-0.5,1.2-1.9,2.1-1.9,2.1c0,0.4-0.4,1.3-0.4,1.3h0.3
				L69,55.7c5.6-1.1,7.3,0.7,7.3,0.7c-1,1.2-1.5,2.7-1.5,2.7c1.4,1.1,2.7,1.5,2.7,1.5c1.5-0.7,1.1-2.2,1.1-2.3s-1.3,0-1.3,0
				c0-0.8,1.7-2.4,1.7-2.4c-1.9-1.5-6.3-2.7-6.3-2.7c-0.6-4.8,2.3-4.2,2.3-4.2v-0.3l0.6,0.2c-0.8-5.2,2.9-3.9,2.9-3.9l-0.2-0.4
				c0.6-0.1,1.8,0.7,1.8,0.7c-0.2-0.2-0.4-0.7-0.4-0.7c0.6,0.1,1.5,1.3,1.5,1.3c0-1.1-0.8-6.4-0.8-6.4C83.3,35.9,82,32.5,82,32.5z
				 M70.6,41.2c-1.2-2.3-1.4-6.3-1.4-6.3C69.4,35.5,71,38,71,38l0.7-0.3C70.9,38.8,70.6,41.2,70.6,41.2z M80.5,36.9
				c0.7-0.6,1.6-3,1.6-3c0.3,1.8-1,4-1,4c-0.2-0.5-1.6-1-1.6-1L80.5,36.9z M76.6,41.1c0.1-0.4,1.5-0.3,1.5,0.1
				c0,0.4-0.8,0.6-0.8,0.6S76.4,41.5,76.6,41.1z M74,40.9c0,0-1.1,0.4-1.3,0.5L73,41c0,0-0.6-1.2-0.3-3.6h-0.8c0,0,1.3-0.9,3.5-0.1
				c0,0,0.9,1.8,0.7,3.3c0,0-0.4,0-0.5,0c0,0-0.2-1.6-1.1-1.5C73.6,39.1,73.8,40.5,74,40.9z M74.6,40.8c0,0-0.4-0.9,0.1-1
				c0.4-0.1,0.6,0.9,0.6,0.9L74.6,40.8z M76.9,43.5c-1-0.1-1.5-1-1.5-1s1.8,0.6,3.1-0.1C78.4,42.4,77.9,43.6,76.9,43.5z M79.4,40.9
				c-0.1-0.1-0.5-0.1-0.5-0.1s0.1-0.8,0.5-0.7C79.7,40,79.4,40.9,79.4,40.9z M80.2,41.1l-0.6-0.2c0,0,0.4-1.4-0.3-1.5
				c-0.7-0.1-0.9,1.2-0.9,1.2l-0.9-0.1c0,0,0-1.7,0.5-2.5c0,0,1.4-0.7,2.6,0.1h-0.6c0,0,0.4,1.8-0.2,2.8L80.2,41.1z"/>
			<path class="st0" d="M32.8,71.5c-1.4-4.5-7-6.4-7-6.4c5.8-2.4,8.9-9.7,8.5-14.6c-0.5-4.9-4.8-5.1-4.8-5.1s1.2-4.2-0.4-7.3
				c-1.6-3.1-6-2.6-6-2.6c7.2,2,5.2,10,5.2,10c-7.7,2.7-9.5,10.8-9.7,12.3c-0.2,1.5,0,1.6,0.4,2.2c0.4,0.6,1.1,0,1.1,0
				c6.1-5.3,8.8-12.6,8.8-12.6c5.9,2.4,3.8,10.4-0.6,14.6c-4.4,4.2-10.3,4.3-10.8,4.4c-0.5,0.1-1.2,1.6-0.7,2
				c0.6,0.3,5.1-0.4,5.1-0.4l0.1-0.8c3.9-1.9,8.7,1.8,8.5,9c-0.2,7.2-6.2,11.5-14,11.6c-7.7,0.1-13.4-4.7-11.8-5.5
				c1.6-0.8,7.3,4,7.3,4l0.4-0.5c-2-4.8-7-6.3-8.4-4.9c-1.4,1.3-1.4,4.5,3.2,7.6c4.6,3.1,10.2,1.9,10.2,1.9
				C31.4,86.9,34.6,76,32.8,71.5z M19.4,58.9c0,0,0.1-2.9,2.9-7.3c2.8-4.2,5.4-4.2,5.4-4.2S25.7,54.4,19.4,58.9z"/>
			<path class="st0" d="M45.1,71.5c-0.1-0.6-0.6-2-1.9-2.2c-1.3-0.2-2.7,1-3.3,1.1c0,0-0.9-0.8-1.1-0.8c-0.3,0-2.3,1.2-4.3,5.9
				c-2,4.7-2.3,8.5,1.3,9c3.6,0.5,7.6-5.3,9.1-10.8c0,0,0.8-0.3,1.1-0.6c0,0,0-0.1,0.1-0.1C46,72.7,45.3,72,45.1,71.5z M41.1,78.8
				c-2.1,3-3.7,4.7-4.9,4.6c-1.2-0.2-1.9-2.8,1.3-8c3.2-5.2,5.7-4.9,5.7-4.9c-1,2.5,0.3,2.9,0.3,2.9C43.6,73.7,43.2,75.8,41.1,78.8z
				"/>
			<path class="st0" d="M53.6,69.3c-1.3-0.2-2.7,1-3.3,1.1c0,0-0.9-0.8-1.1-0.8c-0.2,0-1.5,0.8-3,3.4v0c0,0,0,0-0.1,0.1
				c-0.4,0.7-0.8,1.5-1.2,2.4c-2.1,4.7-2.3,8.5,1.3,9c3.6,0.5,7.6-5.3,9.1-10.8c0,0,1.1-0.4,1.2-0.7c0-0.1-0.9-0.8-1-1.4
				C55.4,70.9,54.9,69.6,53.6,69.3z M51.5,78.8c-2.1,3-3.7,4.7-4.9,4.6c-1.2-0.2-1.9-2.8,1.3-8c3.2-5.2,5.7-4.9,5.7-4.9
				c-1,2.5,0.3,2.9,0.3,2.9C54,73.7,53.6,75.8,51.5,78.8z"/>
			<path class="st0" d="M94.9,65.5c4.1,1.4,4.4,5.5,3.1,8.5c-1.3,3.1-8.1,10-8.4,8c-0.1-2.6,4.4-8.8,5.4-10.1
				c0.9-1.2,0.9-1.7,0.9-1.9c0-0.2-0.3-0.7-1.6-0.6c-1.2,0.2-2.9,2.3-4.4,4.6S85,79.6,85,79.6s0.2-1.7,0.3-3.9
				c0.1-2.2,0.4-4.1,0.8-4.8c0.4-0.8,0.6-1.2-0.2-1.9c-0.8-0.6-2,0-2,0c-2.6-10.4-27.9-3.6-33.9-2.4c-5.9,1.2-15.3,1.1-15.7-3.3
				c0.2-4.3,10.3-4.3,10.3-4.3l0,0.5c-3.5,0-1.4,2.9-1.4,2.9c1.8,0.2,3-0.1,3-0.1c0,0.5,0.4,0.9,0.4,0.9c1.2,0.3,2.3,0,2.4-0.2
				c0.1-0.1,0-0.4,0-0.4c1.6-0.1,2.6-0.7,2.6-0.7v1.1c1.6,0.9,3,0.5,3.3,0.4c0.3-0.1,0.6-0.9,0.6-0.9c3.5,0.9,4.9,0,4.9,0
				c0.4-2.6-1.9-2.1-1.9-2.1c-0.1-4,3.6-7.7,3.6-7.7c-0.7-1.1-1.9-3-1.9-3c-1.1-0.1-2.9,0.8-2.9,0.8c-0.3,1.2-1.7,2.8-1.7,2.8
				c1.4-2.2,2.9-10.2,2.9-11.7c0-1.5-2.4-0.8-4-1.4c-1.6-0.5-1.4-2.7-1.4-2.9s0.3,0.3,0.3,0.3c-0.3-1,0-1.6,0-1.7
				c0-0.1,0.1,0.2,0.1,0.2c0.7-1.8,5.2-3.8,5.2-3.8c-0.2,0-0.8,0-0.8,0c0-0.3,1.1-1.2,1.1-1.2H59c0-0.5,1.1-1.1,1.1-1.1
				s-1.9,0-3.7-2.7s0-5.9,0-5.9c-0.2,0.1-1,1.1-1,1.1l0-1.3l-0.4,1C55,21.7,54.5,21,54.5,21c1.1-1.1,2.1-3.2,2.1-3.2
				c-0.4,6.4,3.3,8.5,3.3,8.5c-0.5-4.6,1.5-8,1.5-8c-1.7,0-3.1-0.4-3.1-0.4l0.1,2.3c-0.2-0.3-0.5-2.4-0.5-2.4l-1.2-1.8
				C56,18.1,53.9,20,53.9,20c-1-1.1-2.6-1.2-3.5-1.2c-1,0-1.5-0.5-1.5-0.5l0.3,0.9l-1,0l0.3,0.3c-1,0.8-1.2,1.5-1.2,1.5
				c-1.1-0.5-2.6-2.1-2.6-2.1c-0.3,0.4-1.7,1.5-1.7,1.5c0.4,1,0.3,2.1,0.3,2.1l-0.7-2l-1.8,0.2c2.9,4.4,1.4,9.2,1.4,9.2
				c2.6-0.8,3.3-3.4,3.3-3.4c1.4,4.8-2.9,5.5-2.9,5.5s1.1,0.5,1.3,0.6c0.1,0.1-0.5,0.3-0.5,0.3c2,0.8,4.9,2.8,5,4.4
				c0.1,1.6-0.7,2.5-0.7,2.5l0.5-0.2c-0.7,1.5-2.3,1.8-3.4,2.2C43.8,42,44,43,44.3,43.7c0.3,0.7,1.5,4.4,1.5,6
				c0,1.7,0.6,3.7,0.6,3.7c-1.3-1.7-1.1-4.1-1.1-4.1s-0.6-0.4-1.2-0.2c-0.6,0.1-1.4,0.6-1.4,0.6h0.5c-0.2,0.6-1,1.3-1,1.3l0.4,0
				c-1,1-0.8,2.2,0.4,3.5c1.2,1.3,1.7,3.4,1.7,3.4c-3-0.2-10.5,0.4-11.7,3.8c-1.2,3.4,3.1,5.7,7.9,6.2c4.8,0.5,15.2-1.7,23.8-2.2
				c8.6-0.5,17.4,0.5,18.4,5.7c1.1,5.2-3.8,10.3-5.6,11.1c-1.8,0.8-2.1-1-1.8-1.8c0.2-0.8-0.4-1.1-0.4-1.1c1.7-2.3,2.6-5.9,2.6-5.9
				l1.3-0.7c-1.3-1.1-0.8-2.8-2.5-3.5c-1.4-0.6-3.2,0.7-3.5,0.9c-0.3,0.1-0.9-0.6-1.2-0.7c-0.3-0.1-2.5,0.7-4.7,6.4
				c-2.2,5.7-1.1,8.2,1.4,8.5c2.5,0.2,4.4-2,4.4-2c0.2,2.1,1.8,2,1.8,2c4.7,0.1,8.8-8.2,8.8-8.2c0.4,1,0.4,4.3,0.3,4.9
				c-0.1,0.5-0.4,1.1,0,1.2c0.4,0.1,0.8-1,0.8-1c1.3-1.2,6-6.7,6-6.7c-0.8,1.2-4.9,9.1-2.1,9.3c2.9,0.2,11-8,11.4-13.1
				C100.5,65.7,94.9,65.5,94.9,65.5z M48.8,26.8c0.5,0,0.5,1,0.5,1c-0.3,0-0.7,0.1-0.7,0.1C48.5,27.8,48.3,26.8,48.8,26.8z
				 M51.7,34.5c0,0-1.3,0.2-3-1.3c0,0,3.3,0.5,6.3-2.1C55,31.1,54.1,34.4,51.7,34.5z M52.8,27.9c0,0,0.1-0.8,0.5-0.7
				c0.4,0.1,0.1,0.9,0.1,0.9C53.2,27.9,52.8,27.9,52.8,27.9z M52.1,24.5c1.8-0.9,3.4,0.1,3.4,0.1l-0.8,0c0.5,2.5-0.2,3.6-0.2,3.6
				l0.4,0.3c-0.3-0.2-1.2-0.4-1.2-0.4s0.6-1.6-0.4-2c-1.1,0-1.1,1.6-1.1,1.6c-0.3-0.1-0.8,0-0.8,0C51.3,26.1,52.1,24.5,52.1,24.5z
				 M52.6,29.3c0.3,1-1.7,1.9-1.7,1.9s-1.9-1-1.7-1.9C49.4,28.4,52,27.8,52.6,29.3z M45.3,23.7c0-0.8-0.4-3.6-0.4-3.6
				c0.3,0.8,1.9,1.8,1.9,1.8c-0.5,0.1-0.9,0.7-0.9,0.7L45.7,22l0,0.7L45.4,22C45.6,22.9,45.3,23.7,45.3,23.7z M48.4,25.8
				c-1.2,0.6-0.5,2.3-0.5,2.3c-0.5,0.1-1.3,0.5-1.3,0.5l0.4-0.4c-0.8-1.6-0.4-4.3-0.4-4.3l-0.9,0c2.2-1.2,4.1-0.1,4.1-0.1
				c0.9,1,0.8,3.8,0.8,3.8c-0.5,0-1,0.1-1,0.1S49.6,25.6,48.4,25.8z M74.1,78.8c-2.1,3-3.7,4.7-4.9,4.6c-1.2-0.2-1.9-2.8,1.3-8
				c3.2-5.2,5.7-4.9,5.7-4.9c-1,2.5,0.3,2.9,0.3,2.9C76.6,73.7,76.2,75.8,74.1,78.8z"/>
			<path class="st0" d="M62.4,86c0,0,4.7-9.1,3.8-14.5c0,0-0.2-0.7-0.7-0.7c-0.5,0-1.2-0.1-1.3,0.2s-2.8,6.9-6.8,11.5
				c0,0-2.2,2.6-2.5,1.9c-0.3-0.7,0.3-4.4,5.5-11.6c0,0,3.3-4.6,5.4-2.4c0,0,0.4-1.7-1.9-1.9c-2.3-0.2-6.9,4.2-9.2,9.9
				c-2.3,5.7-1.3,8,0.3,7.8c1.6-0.3,6.6-7.3,8.2-10.3c0,0-1.2,6-3.8,10.9c0,0-13,3.6-16.8,13.2c0,0-1.3,2.8,0.2,5.1
				c1.5,2.3,7.3,0.8,12.8-7.3C61.1,89.6,62,87,62,87s9.2-1.7,14.2,1.1c5,2.8,4.9,6.2,4.5,9c0,0,3.2-4.3,0-8
				C77.4,85.5,68.3,84.3,62.4,86z M50.2,101c-5,4.2-7.1,1-5.7-2.6c1.3-3.7,7.3-8.4,14.3-10.4C58.8,87.9,55.2,96.8,50.2,101z"/>
		</g>
	</g>
	<ellipse class="st1" cx="50.1" cy="17.8" rx="21" ry="17.8"/>
	<ellipse class="st1" cx="46.1" cy="97.7" rx="21" ry="17.8"/>
	<g>
		<defs>
			<rect id="SVGID_1_" x="3.1" y="16" width="97" height="90"/>
		</defs>
		<clipPath id="SVGID_2_">
			<use xlink:href="#SVGID_1_"  style="overflow:visible;"/>
		</clipPath>
		<g class="st2">
			<path class="st3" d="M82.1,32.6c-0.6,2.1-4.4,4.9-4.4,4.9c-0.6-0.2-1.7-0.1-1.7-0.1c-0.7-1.3-4.1-0.8-4.1-0.8
				c-1.6-1.1-2.8-3.5-2.8-3.5c-0.5,3.4,1.1,9.1,1.1,9.1c-1.5,0.1-3.1-0.5-4.9-1.6c-1.8-1.1-3.8-1.9-3.8-1.9l0.2,0.5
				C61.1,39,60,39.2,60,39.2c0.3,0,0.9,0.3,0.9,0.3l-1.3,0.6c1,0.9-1.8,10.2-1.8,10.2c1.3-0.9,3.4-1,3.4-1c0,0.4,1,1.8,1.8,2.8
				c0.9,1.1,1.1,2.2,1.1,2.2l0.4-0.2c-0.5,1.5-1.3,3.2-1.7,5.2c-0.2,2.5,0.4,3.7,2.3,3.7c1.9,0,1.6-1.6,1.6-1.6
				c-0.4,0.2-1.4-0.1-1.4-0.1c-0.9-3,1.7-6.3,3.4-7.3c1.7-1,2.6-1.9,2.6-1.9c-0.5,1.2-1.9,2.1-1.9,2.1c0,0.4-0.4,1.3-0.4,1.3h0.3
				L69,55.7c5.6-1.1,7.3,0.7,7.3,0.7c-1,1.2-1.5,2.7-1.5,2.7c1.4,1.1,2.7,1.5,2.7,1.5c1.5-0.7,1.1-2.2,1.1-2.3s-1.3,0-1.3,0
				c0-0.8,1.7-2.4,1.7-2.4c-1.9-1.5-6.3-2.7-6.3-2.7c-0.6-4.8,2.3-4.2,2.3-4.2v-0.3l0.6,0.2c-0.8-5.2,2.9-3.9,2.9-3.9l-0.2-0.4
				c0.6-0.1,1.8,0.7,1.8,0.7c-0.2-0.2-0.4-0.7-0.4-0.7c0.6,0.1,1.5,1.3,1.5,1.3c0-1.1-0.8-6.4-0.8-6.4
				C83.3,35.9,82.1,32.6,82.1,32.6z M70.6,41.3c-1.2-2.3-1.4-6.3-1.4-6.3c0.1,0.5,1.8,3.1,1.8,3.1l0.7-0.3
				C71,38.9,70.6,41.3,70.6,41.3z M80.5,36.9c0.7-0.6,1.6-3,1.6-3c0.3,1.8-1,4-1,4c-0.2-0.5-1.6-1-1.6-1L80.5,36.9z M76.6,41.2
				c0.1-0.4,1.5-0.3,1.5,0.1c0,0.4-0.8,0.6-0.8,0.6S76.4,41.6,76.6,41.2z M74,40.9c0,0-1.1,0.4-1.3,0.5L73,41c0,0-0.6-1.2-0.3-3.6
				h-0.8c0,0,1.3-0.9,3.5-0.1c0,0,0.9,1.8,0.7,3.3c0,0-0.4,0-0.5,0c0,0-0.2-1.6-1.1-1.5C73.6,39.1,73.8,40.6,74,40.9z M74.6,40.8
				c0,0-0.4-0.9,0.1-1c0.4-0.1,0.6,0.9,0.6,0.9L74.6,40.8z M76.9,43.6c-1-0.1-1.5-1-1.5-1s1.8,0.6,3.1-0.1
				C78.5,42.5,77.9,43.6,76.9,43.6z M79.4,40.9c-0.1-0.1-0.5-0.1-0.5-0.1s0.1-0.8,0.5-0.7C79.7,40.1,79.4,40.9,79.4,40.9z
				 M80.2,41.2L79.7,41c0,0,0.4-1.4-0.3-1.5c-0.7-0.1-0.9,1.2-0.9,1.2l-0.9-0.1c0,0,0-1.7,0.5-2.5c0,0,1.4-0.7,2.6,0.1h-0.6
				c0,0,0.4,1.8-0.2,2.8L80.2,41.2z"/>
			<path class="st3" d="M32.8,71.5c-1.4-4.5-7-6.4-7-6.4c5.8-2.4,8.9-9.7,8.5-14.6c-0.5-4.9-4.8-5.1-4.8-5.1s1.2-4.2-0.4-7.3
				c-1.6-3.1-6-2.6-6-2.6c7.2,2,5.2,10,5.2,10c-7.7,2.7-9.5,10.8-9.7,12.3c-0.2,1.5,0,1.6,0.4,2.2c0.4,0.6,1.1,0,1.1,0
				c6.1-5.3,8.8-12.6,8.8-12.6c5.9,2.4,3.8,10.4-0.6,14.6c-4.4,4.2-10.3,4.3-10.8,4.4c-0.5,0.1-1.2,1.6-0.7,2
				c0.6,0.3,5.1-0.4,5.1-0.4l0.1-0.8c3.9-1.9,8.7,1.8,8.5,9c-0.2,7.2-6.2,11.5-14,11.6C8.7,88,3.1,83.1,4.7,82.3
				c1.6-0.8,7.3,4,7.3,4l0.4-0.5c-2-4.8-7-6.3-8.4-4.9c-1.4,1.3-1.4,4.5,3.2,7.6c4.6,3.1,10.2,1.9,10.2,1.9
				C31.4,86.9,34.6,76.1,32.8,71.5z M19.4,59c0,0,0.1-2.9,2.9-7.3c2.8-4.2,5.4-4.2,5.4-4.2S25.7,54.4,19.4,59z"/>
			<path class="st3" d="M45.1,71.5c-0.1-0.6-0.6-2-1.9-2.2c-1.3-0.2-2.7,1-3.3,1.1c0,0-0.9-0.8-1.1-0.8c-0.3,0-2.3,1.2-4.3,5.9
				c-2,4.7-2.3,8.5,1.3,9c3.6,0.5,7.6-5.3,9.1-10.8c0,0,0.8-0.3,1.1-0.6c0,0,0-0.1,0.1-0.1C46,72.7,45.3,72.1,45.1,71.5z M41.2,78.8
				c-2.1,3-3.7,4.7-4.9,4.6c-1.2-0.2-1.9-2.8,1.3-8c3.2-5.2,5.7-4.9,5.7-4.9c-1,2.5,0.3,2.9,0.3,2.9C43.6,73.7,43.2,75.8,41.2,78.8z
				"/>
			<path class="st3" d="M53.6,69.3c-1.3-0.2-2.7,1-3.3,1.1c0,0-0.9-0.8-1.1-0.8c-0.2,0-1.5,0.8-3,3.4v0c0,0,0,0-0.1,0.1
				c-0.4,0.7-0.8,1.5-1.2,2.4c-2.1,4.7-2.3,8.5,1.3,9c3.6,0.5,7.6-5.3,9.1-10.8c0,0,1.1-0.4,1.2-0.7c0-0.1-0.9-0.8-1-1.4
				C55.4,70.9,54.9,69.6,53.6,69.3z M51.5,78.8c-2.1,3-3.7,4.7-4.9,4.6c-1.2-0.2-1.9-2.8,1.3-8c3.2-5.2,5.7-4.9,5.7-4.9
				c-1,2.5,0.3,2.9,0.3,2.9C54,73.7,53.6,75.8,51.5,78.8z"/>
			<path class="st3" d="M95,65.5c4.1,1.4,4.4,5.5,3.1,8.5c-1.3,3.1-8.1,10-8.4,8c-0.1-2.6,4.4-8.8,5.4-10.1c0.9-1.2,0.9-1.7,0.9-1.9
				c0-0.2-0.3-0.7-1.6-0.6c-1.2,0.2-2.9,2.3-4.4,4.6s-4.8,5.7-4.8,5.7s0.2-1.7,0.3-3.9c0.1-2.2,0.4-4.1,0.8-4.8
				c0.4-0.8,0.6-1.2-0.2-1.9c-0.8-0.6-2,0-2,0c-2.6-10.4-27.9-3.6-33.9-2.4c-5.9,1.2-15.3,1.1-15.7-3.3c0.2-4.3,10.3-4.3,10.3-4.3
				l0,0.5c-3.5,0-1.4,2.9-1.4,2.9c1.8,0.2,3-0.1,3-0.1c0,0.5,0.4,0.9,0.4,0.9c1.2,0.3,2.3,0,2.4-0.2c0.1-0.1,0-0.4,0-0.4
				c1.6-0.1,2.6-0.7,2.6-0.7v1.1c1.6,0.9,3,0.5,3.3,0.4c0.3-0.1,0.6-0.9,0.6-0.9c3.5,0.9,4.9,0,4.9,0c0.4-2.6-1.9-2.1-1.9-2.1
				c-0.1-4,3.6-7.7,3.6-7.7c-0.7-1.1-1.9-3-1.9-3c-1.1-0.1-2.9,0.8-2.9,0.8c-0.3,1.2-1.7,2.8-1.7,2.8c1.4-2.2,2.9-10.2,2.9-11.7
				c0-1.5-2.4-0.8-4-1.4c-1.6-0.5-1.4-2.7-1.4-2.9s0.3,0.3,0.3,0.3c-0.3-1,0-1.6,0-1.7c0-0.1,0.1,0.2,0.1,0.2
				c0.7-1.8,5.2-3.8,5.2-3.8c-0.2,0-0.8,0-0.8,0c0-0.3,1.1-1.2,1.1-1.2H59c0-0.5,1.1-1.1,1.1-1.1s-1.9,0-3.7-2.7s0-5.9,0-5.9
				c-0.2,0.1-1,1.1-1,1.1l0-1.3l-0.4,1C55,21.7,54.5,21,54.5,21c1.1-1.1,2.1-3.2,2.1-3.2c-0.4,6.4,3.3,8.5,3.3,8.5
				c-0.5-4.6,1.5-8,1.5-8c-1.7,0-3.1-0.4-3.1-0.4l0.1,2.3c-0.2-0.3-0.5-2.4-0.5-2.4L56.7,16c-0.8,2.2-2.8,4.1-2.8,4.1
				c-1-1.1-2.6-1.2-3.5-1.2c-1,0-1.5-0.5-1.5-0.5l0.3,0.9l-1,0l0.3,0.3c-1,0.8-1.2,1.5-1.2,1.5c-1.1-0.5-2.6-2.1-2.6-2.1
				c-0.3,0.4-1.7,1.5-1.7,1.5c0.4,1,0.3,2.1,0.3,2.1l-0.7-2l-1.8,0.2c2.9,4.4,1.4,9.2,1.4,9.2c2.6-0.8,3.3-3.4,3.3-3.4
				c1.4,4.8-2.9,5.5-2.9,5.5s1.1,0.5,1.3,0.6c0.1,0.1-0.5,0.3-0.5,0.3c2,0.8,4.9,2.8,5,4.4c0.1,1.6-0.7,2.5-0.7,2.5l0.5-0.2
				c-0.7,1.5-2.3,1.8-3.4,2.2c-1.1,0.4-0.9,1.4-0.6,2.1c0.3,0.7,1.5,4.4,1.5,6c0,1.7,0.6,3.7,0.6,3.7c-1.3-1.7-1.1-4.1-1.1-4.1
				s-0.6-0.4-1.2-0.2c-0.6,0.1-1.4,0.6-1.4,0.6h0.5c-0.2,0.6-1,1.3-1,1.3l0.4,0c-1,1-0.8,2.2,0.4,3.5c1.2,1.3,1.7,3.4,1.7,3.4
				c-3-0.2-10.5,0.4-11.7,3.8c-1.2,3.4,3.1,5.7,7.9,6.2c4.8,0.5,15.2-1.7,23.8-2.2c8.6-0.5,17.4,0.5,18.4,5.7
				c1.1,5.2-3.8,10.3-5.6,11.1c-1.8,0.8-2.1-1-1.8-1.8c0.2-0.8-0.4-1.1-0.4-1.1c1.7-2.3,2.6-5.9,2.6-5.9l1.3-0.7
				c-1.3-1.1-0.8-2.8-2.5-3.5c-1.4-0.6-3.2,0.7-3.5,0.9c-0.3,0.1-0.9-0.6-1.2-0.7c-0.3-0.1-2.5,0.7-4.7,6.4
				c-2.2,5.7-1.1,8.2,1.4,8.5s4.4-2,4.4-2c0.2,2.1,1.8,2,1.8,2c4.7,0.1,8.8-8.2,8.8-8.2c0.4,1,0.4,4.3,0.3,4.9
				c-0.1,0.5-0.4,1.1,0,1.2c0.4,0.1,0.8-1,0.8-1c1.3-1.2,6-6.7,6-6.7c-0.8,1.2-4.9,9.1-2.1,9.3c2.9,0.2,11-8,11.4-13.1
				C100.5,65.7,95,65.5,95,65.5z M48.8,26.9c0.5,0,0.5,1,0.5,1c-0.3,0-0.7,0.1-0.7,0.1C48.5,27.8,48.3,26.9,48.8,26.9z M51.7,34.6
				c0,0-1.3,0.2-3-1.3c0,0,3.3,0.5,6.3-2.1C55,31.2,54.1,34.5,51.7,34.6z M52.8,27.9c0,0,0.1-0.8,0.5-0.7c0.4,0.1,0.1,0.9,0.1,0.9
				C53.2,28,52.8,27.9,52.8,27.9z M52.1,24.5c1.8-0.9,3.4,0.1,3.4,0.1l-0.8,0c0.5,2.5-0.2,3.6-0.2,3.6l0.4,0.3
				c-0.3-0.2-1.2-0.4-1.2-0.4s0.6-1.6-0.4-2c-1.1,0-1.1,1.6-1.1,1.6c-0.3-0.1-0.8,0-0.8,0C51.3,26.1,52.1,24.5,52.1,24.5z
				 M52.6,29.3c0.3,1-1.7,1.9-1.7,1.9s-1.9-1-1.7-1.9C49.4,28.4,52,27.8,52.6,29.3z M45.3,23.7c0-0.8-0.4-3.6-0.4-3.6
				c0.3,0.8,1.9,1.8,1.9,1.8c-0.5,0.1-0.9,0.7-0.9,0.7L45.7,22l0,0.7l-0.2-0.6C45.7,23,45.3,23.7,45.3,23.7z M48.4,25.9
				c-1.2,0.6-0.5,2.3-0.5,2.3c-0.5,0.1-1.3,0.5-1.3,0.5l0.4-0.4c-0.8-1.6-0.4-4.3-0.4-4.3l-0.9,0c2.2-1.2,4.1-0.1,4.1-0.1
				c0.9,1,0.8,3.8,0.8,3.8c-0.5,0-1,0.1-1,0.1S49.6,25.7,48.4,25.9z M74.1,78.8c-2.1,3-3.7,4.7-4.9,4.6c-1.2-0.2-1.9-2.8,1.3-8
				c3.2-5.2,5.7-4.9,5.7-4.9c-1,2.5,0.3,2.9,0.3,2.9C76.6,73.7,76.2,75.8,74.1,78.8z"/>
			<path class="st3" d="M62.4,86c0,0,4.7-9.1,3.8-14.5c0,0-0.2-0.7-0.7-0.7s-1.2-0.1-1.3,0.2c0,0.3-2.8,6.9-6.8,11.5
				c0,0-2.2,2.6-2.5,1.9c-0.3-0.7,0.3-4.4,5.5-11.6c0,0,3.3-4.6,5.4-2.4c0,0,0.4-1.7-1.9-1.9c-2.3-0.2-6.9,4.2-9.2,9.9
				c-2.3,5.7-1.3,8,0.3,7.8c1.6-0.3,6.6-7.3,8.2-10.3c0,0-1.2,6-3.8,10.9c0,0-13,3.6-16.8,13.2c0,0-1.3,2.8,0.2,5.1
				c1.5,2.3,7.3,0.8,12.8-7.3c5.5-8.1,6.4-10.7,6.4-10.7s9.2-1.7,14.2,1.1c5,2.8,4.9,6.2,4.5,9c0,0,3.2-4.3,0-8
				C77.4,85.5,68.3,84.3,62.4,86z M50.2,101.1c-5,4.2-7.1,1-5.7-2.6c1.3-3.7,7.3-8.4,14.3-10.4C58.8,87.9,55.2,96.9,50.2,101.1z"/>
		</g>
	</g>
</g>
</svg>
